<svg xmlns="http://www.w3.org/2000/svg" xmlns:xlink="http://www.w3.org/1999/xlink" width="17" height="17" viewBox="0 0 17 17"><defs><clipPath id="a"><rect width="17" height="17" fill="#f50000"/></clipPath></defs><g clip-path="url(#a)"><path d="M17,8.5a8.508,8.508,0,1,0-2.492,6.008A8.5,8.5,0,0,0,17,8.5Zm-5.092,3.408a1.368,1.368,0,0,1-1.953,0,1.384,1.384,0,0,1,1.953-1.953,1.368,1.368,0,0,1,0,1.953ZM5.092,5.092a1.368,1.368,0,0,1,1.953,0A1.384,1.384,0,1,1,5.092,7.045a1.368,1.368,0,0,1,0-1.953m.973,7.243a.791.791,0,0,1-.617-1.289l4.871-6.08a.79.79,0,1,1,1.233.988l-4.871,6.08A.791.791,0,0,1,6.065,12.335Z" transform="translate(0 0)" fill="#f50000"/></g></svg>