<svg xmlns="http://www.w3.org/2000/svg" width="23.722" height="26.5" viewBox="0 0 23.722 26.5"><g transform="translate(0.75 0.75)"><path d="M10.083,9.823a.75.75,0,0,1-.75-.75V5.031A4.291,4.291,0,0,0,.75,5.011V9.073a.75.75,0,0,1-.75.75.75.75,0,0,1-.75-.75V5.008A5.78,5.78,0,0,1,5.056-.75a5.786,5.786,0,0,1,5.776,5.781V9.073A.75.75,0,0,1,10.083,9.823Z" transform="translate(6.062 0)" fill="#060606"/><path d="M16.491,19.784H3.731A5.372,5.372,0,0,1-1.75,14.541a.752.752,0,0,1,0-.082L-.639,4.45A5.374,5.374,0,0,1,4.842-.75H15.38a5.374,5.374,0,0,1,5.481,5.2l1.107,10.009a.752.752,0,0,1,0,.082A5.372,5.372,0,0,1,16.491,19.784ZM-.25,14.581a3.875,3.875,0,0,0,3.981,3.7h12.76a3.875,3.875,0,0,0,3.981-3.7L19.365,4.575a.752.752,0,0,1,0-.082A3.872,3.872,0,0,0,15.38.75H4.842A3.872,3.872,0,0,0,.861,4.493a.752.752,0,0,1,0,.082Z" transform="translate(1 5.966)" fill="#060606"/></g></svg>