<svg xmlns="http://www.w3.org/2000/svg" xmlns:xlink="http://www.w3.org/1999/xlink" width="15" height="17.355" viewBox="0 0 15 17.355"><defs><clipPath id="a"><rect width="15" height="17.355"/></clipPath></defs><g clip-path="url(#a)"><path d="M6.322,17.355H2.6a2.6,2.6,0,0,1-2.6-2.6V2.6A2.6,2.6,0,0,1,2.6,0H12.4A2.6,2.6,0,0,1,15,2.6V8.677a.868.868,0,0,1-1.736,0V2.6a.868.868,0,0,0-.868-.868H2.6a.868.868,0,0,0-.868.868V14.752a.868.868,0,0,0,.868.868H6.322a.868.868,0,1,1,0,1.735Z" transform="translate(0 0)"/><path d="M100.527,118.4H94.2a.868.868,0,0,1,0-1.736h6.322a.868.868,0,0,1,0,1.736" transform="translate(-89.866 -112.323)"/><path d="M97.058,211.731H94.207a.868.868,0,1,1,0-1.735h2.851a.868.868,0,1,1,0,1.735" transform="translate(-89.868 -202.186)"/><path d="M196.811,263.6a3.471,3.471,0,1,1,2.454-1.017A3.471,3.471,0,0,1,196.811,263.6Zm0-5.206a1.735,1.735,0,1,0,1.227.508,1.736,1.736,0,0,0-1.227-.508" transform="translate(-186.15 -247.117)"/><path d="M315.577,379.771a.868.868,0,0,1-.613-.254l-1.631-1.631a.868.868,0,0,1,1.227-1.227l1.631,1.631h0a.868.868,0,0,1-.613,1.481Z" transform="translate(-301.445 -362.416)"/></g></svg>