<svg xmlns="http://www.w3.org/2000/svg" xmlns:xlink="http://www.w3.org/1999/xlink" width="34" height="20.924" viewBox="0 0 34 20.924"><defs><clipPath id="a"><rect width="34" height="20.924" fill="none"/></clipPath></defs><g transform="translate(0 0)"><g transform="translate(0 0)" clip-path="url(#a)"><path d="M31.82,18.5v2.423H24.134v-2.1H9.866v2.1H2.18V18.5A3.674,3.674,0,0,1,0,15.169V3.678A3.671,3.671,0,0,1,3.67,0H30.33A3.67,3.67,0,0,1,34,3.678V15.169A3.673,3.673,0,0,1,31.82,18.5M31.41,7.422H2.591A1.1,1.1,0,0,0,1.512,8.5v6.665A2.163,2.163,0,0,0,3.67,17.311H30.33a2.163,2.163,0,0,0,2.159-2.142V8.5A1.1,1.1,0,0,0,31.41,7.422M2.591,6.34H31.41a1.083,1.083,0,0,0,1.079-1.081V3.678A2.167,2.167,0,0,0,30.33,1.515H3.67A2.167,2.167,0,0,0,1.512,3.678v1.58A1.083,1.083,0,0,0,2.591,6.34m1.1,12.01H8.355v1.06H3.692Zm26.618,0H25.646v1.06h4.663Z" transform="translate(0 0)" fill="#48463d" fill-rule="evenodd"/></g></g></svg>