<svg xmlns="http://www.w3.org/2000/svg" xmlns:xlink="http://www.w3.org/1999/xlink" width="54.969" height="28.283" viewBox="0 0 54.969 28.283"><defs><clipPath id="a"><rect width="54.969" height="28.283" fill="none"/></clipPath></defs><g transform="translate(0 0)"><g transform="translate(0 0)" clip-path="url(#a)"><path d="M51.684,26.434v1.85H46.519V26.678H8.444v1.606H3.279v-1.85A2.263,2.263,0,0,1,2.1,24.778C1.515,20.884.738,16.989.3,13.079.123,11.554-.331,9.444.414,8A3.425,3.425,0,0,1,1.661,6.864,23.6,23.6,0,0,1,5.3,5.582a6.284,6.284,0,0,1,1.975-.308H8.3V3.635A3.736,3.736,0,0,1,12.1,0h12.32a3.825,3.825,0,0,1,3.059,1.492A3.873,3.873,0,0,1,30.541,0h12.32a3.736,3.736,0,0,1,3.8,3.635V5.274h1.117a6.084,6.084,0,0,1,1.943.308l2.881.893a3.284,3.284,0,0,1,.777.324l.162.1a3.225,3.225,0,0,1,.971,1.038c.81,1.444.324,3.586.146,5.144-.437,3.91-1.214,7.8-1.8,11.7a2.26,2.26,0,0,1-1.182,1.655M4.2,25.525h5.893v.016H44.722v-.016h6.039a1.069,1.069,0,0,0,.987-.908c.5-3.359,1.393-8.049,1.8-11.667.21-2,.567-3.619-.1-4.608a5.27,5.27,0,0,0-1.36,1.444,12.334,12.334,0,0,0-1.069,2.11c-.566,1.444-1.068,2.791-1.473,4.17a24.132,24.132,0,0,0-.858,4.284A1.046,1.046,0,0,1,48.4,21a.981.981,0,0,1-.728.325H28.113a1,1,0,0,1-.632-.227v0a1,1,0,0,1-.631.227H7.31A.992.992,0,0,1,6.566,21a1.049,1.049,0,0,1-.291-.649,22.839,22.839,0,0,0-.858-4.284c-.4-1.379-.906-2.726-1.473-4.17a12.291,12.291,0,0,0-1.068-2.11A5.465,5.465,0,0,0,1.531,8.341c-.68.99-.323,2.612-.1,4.608.4,3.618,1.279,8.308,1.781,11.667a1.068,1.068,0,0,0,.987.908M7.31,26.4h-2.9v.746h2.9Zm43.241,0h-2.9v.746h2.9ZM8.622,6.409H7.278a5.067,5.067,0,0,0-1.635.26A23.363,23.363,0,0,0,2.162,7.886,5.693,5.693,0,0,1,3.571,9.4a12.2,12.2,0,0,1,1.1,2.207c.566,1.46,1.085,2.823,1.49,4.235.129.422.259.877.356,1.315l2.59-2.581a1.858,1.858,0,0,1-.485-1.249Zm39.161,0H46.341v6.913a1.822,1.822,0,0,1-.486,1.266c-.032.032-.065.049-.081.081l2.639,2.467c.113-.438.227-.877.356-1.3A44.636,44.636,0,0,1,50.275,11.6a11.34,11.34,0,0,1,1.133-2.256,6.189,6.189,0,0,1,1.409-1.558,2.158,2.158,0,0,0-.55-.227l-2.882-.908a5.394,5.394,0,0,0-1.6-.244M9.431,3.635a2.592,2.592,0,0,1,2.671-2.5h12.32a2.587,2.587,0,0,1,2.655,2.5v9.688a.967.967,0,0,1-.276.7h.016a.87.87,0,0,1-.632.276H10.338a.845.845,0,0,1-.632-.276,1.027,1.027,0,0,1-.259-.7c0-3.229-.016-6.458-.016-9.688m18.455,0h0a2.587,2.587,0,0,1,2.655-2.5h12.32a2.591,2.591,0,0,1,2.671,2.5v9.688a1,1,0,0,1-.275.7.809.809,0,0,1-.615.276H28.793a.845.845,0,0,1-.632-.276,1.027,1.027,0,0,1-.259-.7c0-3.229-.016-6.458-.016-9.688m0,11.213h0a1.709,1.709,0,0,0,.907.276H44.641a1.473,1.473,0,0,0,.373-.048l1.878,1.752H28.113a.908.908,0,0,0-.21.016ZM9.8,15.026h0a.947.947,0,0,0,.291.065,1.088,1.088,0,0,0,.243.032H26.186a1.669,1.669,0,0,0,.874-.259.016.016,0,0,0,.016-.016l.016,2.012a1.224,1.224,0,0,0-.243-.033H8.006ZM27.077,17.9a.24.24,0,0,0-.227-.26H7.31a.241.241,0,0,0-.145.065.3.3,0,0,0-.082.2v2.353a.262.262,0,0,0,.227.26H26.85a.29.29,0,0,0,.162-.065.286.286,0,0,0,.065-.2Zm1.036-.26a.291.291,0,0,0-.146.065.283.283,0,0,0-.065.2v2.353a.312.312,0,0,0,.065.2.291.291,0,0,0,.146.065H47.669a.291.291,0,0,0,.146-.065.283.283,0,0,0,.065-.2V17.9a.312.312,0,0,0-.065-.2.241.241,0,0,0-.146-.065Z" transform="translate(0 0)" fill="#48463d" fill-rule="evenodd"/></g></g></svg>