<svg xmlns="http://www.w3.org/2000/svg" xmlns:xlink="http://www.w3.org/1999/xlink" width="37" height="28.394" viewBox="0 0 37 28.394"><defs><clipPath id="a"><rect width="37" height="28.394" fill="none"/></clipPath></defs><g transform="translate(0 0)"><g transform="translate(0 0)" clip-path="url(#a)"><path d="M8.774,2.945v-.31A2.588,2.588,0,0,1,11.294,0H25.705a2.587,2.587,0,0,1,2.52,2.635v.31h1.037a6.23,6.23,0,0,1,1.994.31l3.263,1.038a3.82,3.82,0,0,1,.99.45,2.5,2.5,0,0,1,.526.465,2.892,2.892,0,0,1,.433.527,4.48,4.48,0,0,1,.526,2.6c-.031,1.085-.2,2.155-.325,3.224-.494,4.495-1.361,8.943-2.025,13.423a2.187,2.187,0,0,1-1.3,1.689v1.72h-5.35v-1.55H9.005v1.55H3.655v-1.72a2.185,2.185,0,0,1-1.3-1.689C1.692,20.505.826,16.057.331,11.562.223,10.493.037,9.423.006,8.338a4.483,4.483,0,0,1,.525-2.6,2.94,2.94,0,0,1,.959-.992,4.064,4.064,0,0,1,.99-.45L5.743,3.255a6.3,6.3,0,0,1,1.994-.31ZM1.6,6.231a3.337,3.337,0,0,0-.433,2.077c.031,1.023.217,2.092.325,3.131.216,2.03.525,4.076.85,6.091.386,2.433.8,4.851,1.16,7.284a1,1,0,0,0,.99.853H32.509a1,1,0,0,0,.99-.853c.355-2.433.773-4.851,1.16-7.284.324-2.015.634-4.061.85-6.091.124-1.039.294-2.092.325-3.131A3.341,3.341,0,0,0,35.4,6.231a4.655,4.655,0,0,0-1.238,1.286,11.32,11.32,0,0,0-.99,1.984c-.093.217-.185.433-.263.651-1.067,2.541-2.3,4.8-2.3,7.641v1.674A1.536,1.536,0,0,1,29.076,21H7.923a1.536,1.536,0,0,1-1.531-1.534V17.716c0-2.806-1.237-5.053-2.288-7.564-.093-.218-.186-.434-.263-.651A11.386,11.386,0,0,0,2.836,7.517,4.439,4.439,0,0,0,1.6,6.231m30.585,20.3H29.153v.7h3.031Zm-24.338,0H4.815v.7H7.846ZM27.962,4.107v7.238a2.569,2.569,0,0,1-.773,1.844L29.942,16.3a31,31,0,0,1,2.165-6.479c.093-.217.186-.434.278-.666a11.376,11.376,0,0,1,1.067-2.123,5.291,5.291,0,0,1,1.3-1.4,3.015,3.015,0,0,0-.572-.248L30.9,4.355a5.314,5.314,0,0,0-1.638-.248Zm-18.926,0h-1.3A5.317,5.317,0,0,0,6.1,4.355L2.821,5.394a2.512,2.512,0,0,0-.557.248,5.574,5.574,0,0,1,1.3,1.4A13.586,13.586,0,0,1,4.63,9.16c.093.232.185.45.278.666a31.784,31.784,0,0,1,2.118,6.262L9.7,13.066a2.592,2.592,0,0,1-.665-1.706Zm1.407,8.463.031.015a1.811,1.811,0,0,0,1.284.528H25.241a1.861,1.861,0,0,0,1.252-.481l.031-.047a1.7,1.7,0,0,0,.541-1.24V2.635a1.429,1.429,0,0,0-1.361-1.473H11.294A1.417,1.417,0,0,0,9.949,2.635c0,2.914-.016,5.812-.016,8.725a1.72,1.72,0,0,0,.51,1.209m16.035,1.116a2.643,2.643,0,0,1-1.237.295H11.758a2.8,2.8,0,0,1-1.391-.372l-2.15,2.433H28.55ZM7.258,19.467a.67.67,0,0,0,.665.666H29.076a.67.67,0,0,0,.665-.666V17.576a.681.681,0,0,0-.2-.481.655.655,0,0,0-.464-.186H7.923a.655.655,0,0,0-.464.186.681.681,0,0,0-.2.481Z" transform="translate(0 0)" fill="#48463d" fill-rule="evenodd"/></g></g></svg>