<svg xmlns="http://www.w3.org/2000/svg" xmlns:xlink="http://www.w3.org/1999/xlink" width="55.212" height="31" viewBox="0 0 55.212 31"><defs><clipPath id="a"><rect width="55.212" height="31" fill="none"/></clipPath></defs><g transform="translate(0 0)" clip-path="url(#a)"><path d="M.376,15.917a1.842,1.842,0,0,1-.361-1.038A3.644,3.644,0,0,1,.6,12.834c1-1.541,3.107-2.045,4.817-2.328,2.134-.362,4.33-.488,6.5-.786A21.755,21.755,0,0,0,16.365,8.7a41.113,41.113,0,0,0,6.37-2.973C23.96,5,25.058,4.184,26.219,3.4A18.933,18.933,0,0,1,32.339.756,22.509,22.509,0,0,1,36.9.032C43.667-.345,49.08,2.6,49.928,9.736a5.292,5.292,0,0,1,1.13-.126c5.334.031,5.256,7.172,1.333,7.565-.424,3.476-.91,6.952-1.4,10.412a2.114,2.114,0,0,1-1.145,1.62V31H44.844V29.443H7.924V31H2.918V29.207a2.116,2.116,0,0,1-1.145-1.62c-.2-1.431-.408-2.878-.6-4.325a2.1,2.1,0,0,1,.251-1.369A2.525,2.525,0,0,1,.22,20.179,10.561,10.561,0,0,1,0,18.339V16.971a1.662,1.662,0,0,1,.376-1.054M43.526,28.342h5.429a1.068,1.068,0,0,0,.958-.912c.408-2.972.988-7.077,1.38-10.412a1.054,1.054,0,0,1,.957-.928c2.573-.236,2.777-5.364-1.208-5.379a3.2,3.2,0,0,0-3.358,3.129v4.876a7.761,7.761,0,0,1-.2,1.588,2.1,2.1,0,0,1-2.055,1.62H3.295a1.057,1.057,0,0,0-1.035,1.2c.2,1.542.424,3.035.6,4.309a1.067,1.067,0,0,0,.957.912H43.526Zm5.225.849H45.942V29.9h2.808Zm-41.925,0H4.017V29.9H6.826ZM46.209,16.342H1.726a.63.63,0,0,0-.628.629v1.353a9.456,9.456,0,0,0,.188,1.636,1.314,1.314,0,0,0,1.24,1.117h42.9a1.285,1.285,0,0,0,1.223-1.117,7.147,7.147,0,0,0,.189-1.636c.015-.456.015-.9.015-1.353a.634.634,0,0,0-.643-.629M16.742,9.72C10.5,12.079,1.1,10.239,1.114,14.879a.655.655,0,0,0,.644.629H46.193a.631.631,0,0,0,.628-.629c0-.362.015-.723.015-1.07a3.937,3.937,0,0,1,1.742-3.24.543.543,0,0,0,.282-.488C47.92.818,39.07.142,32.621,1.825c-7.249,1.887-5.665,4.058-15.879,7.9" transform="translate(0 0)" fill="#48463d" fill-rule="evenodd"/></g></svg>