<svg xmlns="http://www.w3.org/2000/svg" xmlns:xlink="http://www.w3.org/1999/xlink" width="62.914" height="31.439" viewBox="0 0 62.914 31.439"><defs><clipPath id="a"><rect width="62.914" height="31.439" fill="none"/></clipPath></defs><g transform="translate(0 0)"><g transform="translate(0 0)" clip-path="url(#a)"><path d="M22.42.476A1.486,1.486,0,0,0,21.331,0H8.18A1.679,1.679,0,0,0,6.593,1.742V7.061H2.364A2.361,2.361,0,0,0,0,9.431v5.644a1.591,1.591,0,0,0,.66,1.3A2.4,2.4,0,0,0,0,18.025v3.438a2.356,2.356,0,0,0,2.34,2.369h34.9v7.607H60.933a1.98,1.98,0,0,0,1.981-1.974V24.958a1.984,1.984,0,0,0-.765-1.568,1.217,1.217,0,0,0,.267-.754V19.419c-.012-1.115-.718-1.5-1.483-2.16L59.717,16.2a1.6,1.6,0,0,0,.463-1.127V9.431a2.369,2.369,0,0,0-2.364-2.369H53.564V1.742A1.679,1.679,0,0,0,51.977,0H38.826a1.484,1.484,0,0,0-1.089.476A1.48,1.48,0,0,0,36.659,0H23.5A1.458,1.458,0,0,0,22.42.476m36.509,15.3a.747.747,0,0,0,.44-.7V9.431a1.555,1.555,0,0,0-1.552-1.556H54.653l.046.035a2.179,2.179,0,0,1,.637,1.545v3.217ZM38.05,23.785H60.933a1.168,1.168,0,0,1,1.17,1.173v4.506a1.166,1.166,0,0,1-1.17,1.162H38.05ZM4.831,15.853H1.587a.777.777,0,0,1-.776-.778V9.431A1.555,1.555,0,0,1,2.364,7.874H5.527l-.046.035a2.179,2.179,0,0,0-.638,1.545v3.461a.546.546,0,0,0-.012.186v2.753ZM6.766,7.874h0a1.529,1.529,0,0,0-.869.441,1.619,1.619,0,0,0-.475,1.138v2.88l1.831-1.777a.313.313,0,0,1-.058-.069A1.373,1.373,0,0,1,6.778,9.5V7.874ZM38.444,19.024H61.223a.389.389,0,0,1,.382.395v3.217a.386.386,0,0,1-.382.383H38.444a.389.389,0,0,1-.394-.383V19.419a.391.391,0,0,1,.394-.395M2.34,16.468h35v6.55h-35A1.542,1.542,0,0,1,.811,21.462V18.025A1.55,1.55,0,0,1,2.34,16.468M21.331.813H8.18a.867.867,0,0,0-.776.929V9.5a.739.739,0,0,0,.232.546.75.75,0,0,0,.51.232H21.331a.772.772,0,0,0,.776-.778V1.742a.867.867,0,0,0-.776-.929m17.5,0H51.977a.867.867,0,0,1,.776.929V9.5a.739.739,0,0,1-.232.546.75.75,0,0,1-.51.232H38.826A.772.772,0,0,1,38.05,9.5V1.742a.867.867,0,0,1,.776-.929M52.3,10.859l8.574,7.421H38.258a1.257,1.257,0,0,0-.209.023l-.011-7.654c.011.012.034.023.046.035a1.373,1.373,0,0,0,.741.209H51.977a1.545,1.545,0,0,0,.324-.034M37.436,9.5V1.742a.875.875,0,0,0-.776-.929H23.5a.875.875,0,0,0-.776.929V9.5a.787.787,0,0,0,.232.546.753.753,0,0,0,.545.232H36.659a.773.773,0,0,0,.545-.232.785.785,0,0,0,.232-.546m-7.357,2.764h7.137a1.445,1.445,0,0,1,.22.023l-.011-1.626a1.352,1.352,0,0,1-.765.232H23.5a1.352,1.352,0,0,1-.765-.232l-.011,1.626a1.306,1.306,0,0,1,.22-.023Zm7.357,3.368V13.1a.22.22,0,0,0-.22-.22H22.941a.22.22,0,0,0-.22.22v2.532a.22.22,0,0,0,.22.221H37.216a.22.22,0,0,0,.22-.221M7.856,10.859l-1.6,1.405h15.63a.679.679,0,0,1,.22.023l.012-1.638c-.012.012-.035.023-.047.035a1.374,1.374,0,0,1-.741.209H8.18a1.468,1.468,0,0,1-.324-.034M21.887,12.88a.211.211,0,0,1,.22.209v2.543a.211.211,0,0,1-.209.221H5.666a.218.218,0,0,1-.22-.209V13.1a.22.22,0,0,1,.22-.22ZM53.414,7.874h0a1.529,1.529,0,0,1,.869.441,1.619,1.619,0,0,1,.475,1.138V12.16l-1.68-1.452-.162-.151.07-.069A1.372,1.372,0,0,0,53.4,9.5V7.874Z" transform="translate(0 0)" fill="#48463d" fill-rule="evenodd"/></g></g></svg>