<svg xmlns="http://www.w3.org/2000/svg" width="20" height="20" viewBox="0 0 20 20"><g transform="translate(0 0)"><path d="M9.25-.75a10,10,0,1,1-10,10A10.011,10.011,0,0,1,9.25-.75Zm0,18.5a8.5,8.5,0,1,0-8.5-8.5A8.51,8.51,0,0,0,9.25,17.75Z" transform="translate(0.75 0.751)" fill="#7f7f7f"/><path d="M3.769,7.846a.746.746,0,0,1-.384-.106L-.384,5.491A.75.75,0,0,1-.75,4.847V0A.75.75,0,0,1,0-.75.75.75,0,0,1,.75,0V4.421l3.4,2.031a.75.75,0,0,1-.385,1.394Z" transform="translate(9.661 5.847)" fill="#7f7f7f"/></g></svg>