<svg xmlns="http://www.w3.org/2000/svg" xmlns:xlink="http://www.w3.org/1999/xlink" width="18.908" height="15" viewBox="0 0 18.908 15"><defs><clipPath id="a"><rect width="18.908" height="15" fill="#707070"/></clipPath></defs><g clip-path="url(#a)"><path d="M18.908,12.379V8.561a.527.527,0,0,0-.23-.436l-1.6-1.094L16.1,5.575l-2.081-3.1a.528.528,0,0,0-.438-.233H7.915A4.2,4.2,0,1,0,.789,6.641v5.737a.528.528,0,0,0,.528.528h1.31a2.542,2.542,0,0,0,5,0H12.18a2.541,2.541,0,0,0,5,0h1.2a.528.528,0,0,0,.528-.528ZM11.315,3.3H13.3l2.407,3.579h-4.39ZM4.2,1.056A3.144,3.144,0,1,1,1.056,4.2,3.148,3.148,0,0,1,4.2,1.056ZM5.13,13.944a1.488,1.488,0,1,1,1.489-1.487A1.49,1.49,0,0,1,5.13,13.944Zm9.552,0a1.488,1.488,0,1,1,1.487-1.487A1.49,1.49,0,0,1,14.682,13.944Zm3.171-2.094h-.7a2.54,2.54,0,0,0-4.935,0H7.6a2.541,2.541,0,0,0-4.937,0H1.845V7.676A4.195,4.195,0,0,0,8.3,3.3h1.958V7.409a.528.528,0,0,0,.528.528h5.746l1.319.9V11.85Z" fill="#707070"/><path d="M106.078,43.955H108.1a.528.528,0,1,0,0-1.056h-1.489V40.811a.528.528,0,1,0-1.056,0v2.615a.528.528,0,0,0,.528.528" transform="translate(-101.946 -38.907)" fill="#707070"/></g></svg>