<svg xmlns="http://www.w3.org/2000/svg" xmlns:xlink="http://www.w3.org/1999/xlink" width="47.196" height="20" viewBox="0 0 47.196 20"><defs><clipPath id="a"><rect width="47.196" height="20" fill="#6ebe44"/></clipPath></defs><g clip-path="url(#a)"><path d="M6.2,1.237.778,7.832a3.413,3.413,0,0,0,0,4.339l5.427,6.592A3.413,3.413,0,0,0,8.848,20l34.936,0A3.414,3.414,0,0,0,47.2,16.584V3.412A3.414,3.414,0,0,0,43.784,0H8.845A3.413,3.413,0,0,0,6.2,1.237Zm5.753,4.74A4.006,4.006,0,1,1,9.107,7.15a4.02,4.02,0,0,1,2.848-1.173" transform="translate(0 0)" fill="#6ebe44"/><path d="M138.184,114.6a1.459,1.459,0,1,0-.428-1.032,1.46,1.46,0,0,0,.428,1.032Z" transform="translate(-127.26 -103.569)" fill="#6ebe44"/></g></svg>