<svg xmlns="http://www.w3.org/2000/svg" xmlns:xlink="http://www.w3.org/1999/xlink" width="14" height="15.625" viewBox="0 0 14 15.625"><defs><clipPath id="a"><rect width="14" height="15.625" fill="none"/></clipPath></defs><g clip-path="url(#a)"><path d="M5.426,15.595a.175.175,0,0,0,.117.029.413.413,0,0,0,.175-.058l2.915-2.332A.36.36,0,0,0,8.749,13V8.249L13.821,1.4a.848.848,0,0,0,.087-.9.878.878,0,0,0-.787-.5H.878a.859.859,0,0,0-.787.5.849.849,0,0,0,.088.9L5.251,8.249v7.084a.255.255,0,0,0,.175.262Z" transform="translate(0 0.001)"/></g></svg>