<svg xmlns="http://www.w3.org/2000/svg" xmlns:xlink="http://www.w3.org/1999/xlink" width="11.042" height="14.624" viewBox="0 0 11.042 14.624"><defs><clipPath id="a"><rect width="11.042" height="14.624" fill="none"/></clipPath></defs><g clip-path="url(#a)"><path d="M10.238,6.135,8.572,5.55A.557.557,0,0,1,8.2,5.217a.558.558,0,0,1,.1-.487L10.77,1.09c.2-.291.36-.6.22-.861A.433.433,0,0,0,10.6,0a1.178,1.178,0,0,0-.652.293L2.457,5.734a1.029,1.029,0,0,0-.5.964,1.029,1.029,0,0,0,.764.771l.886.3a.466.466,0,0,1,.251.78L.29,13.531c-.206.288-.378.591-.24.859a.433.433,0,0,0,.395.234,1.222,1.222,0,0,0,.646-.278l9.38-6.481a1.021,1.021,0,0,0,.52-.95,1.022,1.022,0,0,0-.752-.78Z" transform="translate(0)"/></g></svg>