<svg xmlns="http://www.w3.org/2000/svg" width="26.841" height="25.5" viewBox="0 0 26.841 25.5"><g transform="translate(0.754 0.75)"><path d="M12.673,24.75a.749.749,0,0,1-.385-.107l-.325-.195-.008,0A47.281,47.281,0,0,1,3.8,18.091l-.006-.006a16.83,16.83,0,0,1-4-6.379l-.005-.016A10.482,10.482,0,0,1-.028,4.533,8.327,8.327,0,0,1,5.2-.331a8.7,8.7,0,0,1,2.67-.42A8.8,8.8,0,0,1,12.662.686a8.808,8.808,0,0,1,4.8-1.435,8.711,8.711,0,0,1,2.667.418,8.345,8.345,0,0,1,5.233,4.862,10.464,10.464,0,0,1,.195,7.158l-.005.016a16.83,16.83,0,0,1-4,6.379l-.006.006a47.281,47.281,0,0,1-8.158,6.352l-.31.193A.75.75,0,0,1,12.673,24.75ZM4.845,17.019a45.785,45.785,0,0,0,7.822,6.1,45.788,45.788,0,0,0,7.822-6.1,15.322,15.322,0,0,0,3.636-5.8C25.35,7.4,24.2,2.56,19.664,1.1A7.212,7.212,0,0,0,17.457.751,7.3,7.3,0,0,0,13.111,2.2a.75.75,0,0,1-.9,0A7.217,7.217,0,0,0,5.658,1.1C1.126,2.557-.016,7.4,1.209,11.223A15.322,15.322,0,0,0,4.845,17.019Z" transform="translate(0 0)" fill="#060606"/><path d="M2.555,3.979a.75.75,0,0,1-.747-.687A2.949,2.949,0,0,0-.228.714.75.75,0,0,1-.714-.228.75.75,0,0,1,.228-.714,4.444,4.444,0,0,1,3.3,3.166a.75.75,0,0,1-.685.81Z" transform="translate(17.652 5.404)" fill="#060606"/></g></svg>