<svg xmlns="http://www.w3.org/2000/svg" width="15.293" height="14.563" viewBox="0 0 15.293 14.563"><g transform="translate(-610.248 -2239.25)"><g transform="translate(611 2240)"><path d="M6.9,13.813a.749.749,0,0,1-.385-.107L6.336,13.6l-.008,0a26.078,26.078,0,0,1-4.5-3.5l-.006-.006a9.5,9.5,0,0,1-2.26-3.6l-.005-.016a6.048,6.048,0,0,1,.111-4.13A4.869,4.869,0,0,1,2.725-.505,5.076,5.076,0,0,1,4.282-.75a5.131,5.131,0,0,1,2.61.721A5.137,5.137,0,0,1,9.5-.749a5.083,5.083,0,0,1,1.556.244,4.879,4.879,0,0,1,3.06,2.842,6.038,6.038,0,0,1,.115,4.131l-.005.016a9.5,9.5,0,0,1-2.26,3.6l-.006.006a26.078,26.078,0,0,1-4.5,3.5l-.168.1A.749.749,0,0,1,6.9,13.813ZM2.877,9.02a24.583,24.583,0,0,0,4.018,3.162A24.588,24.588,0,0,0,10.913,9.02,8,8,0,0,0,12.808,6c.614-1.92.049-4.35-2.209-5.078a3.593,3.593,0,0,0-3.257.55.75.75,0,0,1-.9,0A3.586,3.586,0,0,0,3.184.923C.93,1.649.368,4.079.982,6A8,8,0,0,0,2.877,9.02Z" transform="translate(0 0)" fill="#060606"/><path d="M1.39,2.508a.75.75,0,0,1-.747-.687A1.264,1.264,0,0,0-.228.714.75.75,0,0,1-.714-.228.75.75,0,0,1,.228-.714a2.76,2.76,0,0,1,1.91,2.409.75.75,0,0,1-.685.81Z" transform="translate(9.608 2.941)" fill="#060606"/></g></g></svg>