<svg xmlns="http://www.w3.org/2000/svg" viewBox="0 0 12.863 15.086"><g transform="translate(0.011 0.011)"><path d="M5.681-.75H5.7A6.439,6.439,0,0,1,12.113,5.7v.064s0,.007,0,.011A9.28,9.28,0,0,1,9.3,11.728l0,0a15.994,15.994,0,0,1-2.813,2.321,1.282,1.282,0,0,1-1.609,0A15.645,15.645,0,0,1,.906,10.327,8.026,8.026,0,0,1-.75,5.7q0-.01,0-.02v-.02A6.432,6.432,0,0,1,5.681-.75Zm5.287,6.512V5.7A5.293,5.293,0,0,0,5.7.395H5.681A5.3,5.3,0,0,0,.395,5.663v.008A6.888,6.888,0,0,0,1.816,9.633l0,0a14.505,14.505,0,0,0,3.709,3.473.572.572,0,0,1,.062.047.138.138,0,0,0,.18,0,.572.572,0,0,1,.064-.048,14.85,14.85,0,0,0,2.637-2.171A8.178,8.178,0,0,0,10.968,5.762Z" transform="translate(0.739 0.739)" /><path d="M1.7-.75A2.45,2.45,0,1,1-.75,1.7,2.453,2.453,0,0,1,1.7-.75Zm0,3.756A1.306,1.306,0,1,0,.395,1.7,1.307,1.307,0,0,0,1.7,3.006Z" transform="translate(4.72 4.813)" /></g></svg>