<svg xmlns="http://www.w3.org/2000/svg" xmlns:xlink="http://www.w3.org/1999/xlink" width="35.957" height="22.224" viewBox="0 0 35.957 22.224"><defs><clipPath id="a"><rect width="35.957" height="22.224" fill="none"/></clipPath></defs><g ><g transform="translate(0 0)" clip-path="url(#a)"><path d="M-.565,22.224H-1.6V0H-.565Z" transform="translate(36.523 0)" fill="#7F7F80"/><path d="M-.565,22.224H-1.6V0H-.565Z" transform="translate(1.6 0)" fill="#7F7F80"/><path d="M79.58,49.375H78.545V42.232a2.107,2.107,0,0,1,2.1-2.1h7.937v1.035H80.65a1.071,1.071,0,0,0-1.07,1.07Z" transform="translate(-53.147 -27.152)" fill="#7F7F80"/><path d="M11.642,49.375H10.607V42.232a1.071,1.071,0,0,0-1.07-1.07H1.6V40.127H9.537a2.107,2.107,0,0,1,2.1,2.1Z" transform="translate(-1.083 -27.152)" fill="#7F7F80"/><path d="M9.525-.565H0V-1.6H9.525Z" transform="translate(25.916 17.75)" fill="#7F7F80"/><path d="M9.525-.565H0V-1.6H9.525Z" transform="translate(0.517 17.75)" fill="#7F7F80"/><path d="M29.1,10.673H43.391a2.107,2.107,0,0,1,2.1,2.1v2.1H27v-2.1A2.107,2.107,0,0,1,29.1,10.673Zm15.357,3.175v-1.07a1.071,1.071,0,0,0-1.07-1.07H29.1a1.071,1.071,0,0,0-1.07,1.07v1.07Z" transform="translate(-18.269 -7.222)" fill="#7F7F80"/><path d="M-.565,14.287H-1.6V0H-.565Z" transform="translate(19.061 7.143)" fill="#7F7F80"/><path d="M9.525-.565H0V-1.6H9.525Z" transform="translate(13.216 22.513)" fill="#7F7F80"/></g></g></svg>