<svg xmlns="http://www.w3.org/2000/svg" xmlns:xlink="http://www.w3.org/1999/xlink" width="29.623" height="19.161" viewBox="0 0 29.623 19.161"><defs><clipPath id="a"><rect width="29.624" height="19.161" transform="translate(0 0)" fill="#7F7F80"/></clipPath></defs><g transform="translate(0)" ><g transform="translate(0 0)" clip-path="url(#a)"><path d="M93.583,40.769H90.819V31.188A1.759,1.759,0,0,1,92.6,29.454H94.47a1.8,1.8,0,0,1,1.319.571,1.71,1.71,0,0,1,.449,1.353l-.888,7.847A1.761,1.761,0,0,1,93.583,40.769Zm-1.911-.852h1.911a.91.91,0,0,0,.921-.788l.888-7.846a.858.858,0,0,0-.227-.677.948.948,0,0,0-.694-.3H92.6a.906.906,0,0,0-.926.882Z" transform="translate(-66.625 -21.608)" fill="#7F7F80"/><path d="M5.43,40.769H2.666A1.761,1.761,0,0,1,.9,39.225L.011,31.378A1.71,1.71,0,0,1,.46,30.026a1.8,1.8,0,0,1,1.32-.572H3.652A1.759,1.759,0,0,1,5.43,31.188ZM1.779,30.306a.948.948,0,0,0-.695.3.858.858,0,0,0-.227.677l.888,7.846a.91.91,0,0,0,.921.787H4.578V31.188a.906.906,0,0,0-.926-.882Z" transform="translate(0 -21.608)" fill="#7F7F80"/><path d="M19.616-.748H0V-1.6H19.616Z" transform="translate(5.003 19.909)" fill="#7F7F80"/><path d="M19.616-.748H0V-1.6H19.616Z" transform="translate(5.003 15.985)" fill="#7F7F80"/><path d="M19.616-.748H0V-1.6H19.616Z" transform="translate(5.003 12.716)" fill="#7F7F80"/><path d="M36.5,6.965h-.852V1.734A.882.882,0,0,0,34.77.852H26.924a.882.882,0,0,0-.881.882H25.19a.882.882,0,0,0-.881-.882H16.462a.882.882,0,0,0-.881.882V6.965h-.852V1.734A1.736,1.736,0,0,1,16.462,0h7.847a1.73,1.73,0,0,1,1.308.6A1.73,1.73,0,0,1,26.924,0H34.77A1.736,1.736,0,0,1,36.5,1.734Z" transform="translate(-10.805 0)" fill="#7F7F80"/><path d="M-.748,8.5H-1.6V0h.852Z" transform="translate(15.986 1.734)" fill="#7F7F80"/></g></g></svg>