<svg xmlns="http://www.w3.org/2000/svg" xmlns:xlink="http://www.w3.org/1999/xlink" width="29.813" height="27.181" viewBox="0 0 29.813 27.181"><defs><clipPath id="a"><rect width="29.813" height="27.181" fill="none"/></clipPath></defs><g transform="translate(0 0)" ><g transform="translate(0 0)" clip-path="url(#a)"><path d="M42.3,19.284h-.085a10.585,10.585,0,0,1-1.938-.352l-.614-.144.193-.836.62.146c1.586.376,2.156.484,2.57.043l0,0c.514-.538.225-1.633-.176-3.148a20.151,20.151,0,0,1-.851-5.347,20.151,20.151,0,0,1,.851-5.347c.4-1.515.69-2.61.176-3.148l0,0C42.63.7,42.059.812,40.47,1.188a33.791,33.791,0,0,1-8.563,1.025,33.79,33.79,0,0,1-8.562-1.025C21.756.812,21.185.7,20.769,1.144l0,0c-.514.538-.225,1.633.176,3.148a20.151,20.151,0,0,1,.851,5.347A15.44,15.44,0,0,1,21.608,12l-.848-.13a14.592,14.592,0,0,0,.176-2.227,19.432,19.432,0,0,0-.823-5.128,13.583,13.583,0,0,1-.467-2.2,2.18,2.18,0,0,1,.5-1.756A1.793,1.793,0,0,1,21.6,0a10.623,10.623,0,0,1,1.941.352,33.015,33.015,0,0,0,8.365,1,33.017,33.017,0,0,0,8.365-1A10.623,10.623,0,0,1,42.213,0a1.793,1.793,0,0,1,1.455.553,2.18,2.18,0,0,1,.5,1.756,13.583,13.583,0,0,1-.467,2.2,19.432,19.432,0,0,0-.823,5.128,19.432,19.432,0,0,0,.823,5.128,13.584,13.584,0,0,1,.467,2.2,2.18,2.18,0,0,1-.5,1.756A1.759,1.759,0,0,1,42.3,19.284Z" transform="translate(-14.369 0)" fill="#7F7F80"/><path d="M2.222,49.089a18.2,18.2,0,0,1,2.062.189,59.566,59.566,0,0,0,7.99.512,59.57,59.57,0,0,0,7.99-.512,18.2,18.2,0,0,1,2.062-.189,2.407,2.407,0,0,1,1.537.431,1.769,1.769,0,0,1,.685,1.489,9.15,9.15,0,0,1-.265,1.856,15.423,15.423,0,0,0-.411,3.234,15.423,15.423,0,0,0,.411,3.234,9.15,9.15,0,0,1,.265,1.856,1.769,1.769,0,0,1-.685,1.489,2.407,2.407,0,0,1-1.537.431,18.2,18.2,0,0,1-2.062-.189,59.566,59.566,0,0,0-7.99-.512,59.57,59.57,0,0,0-7.99.512,18.2,18.2,0,0,1-2.062.189,2.407,2.407,0,0,1-1.537-.431A1.769,1.769,0,0,1,0,61.189a9.151,9.151,0,0,1,.265-1.856A15.423,15.423,0,0,0,.676,56.1a15.423,15.423,0,0,0-.411-3.234A9.151,9.151,0,0,1,0,51.009,1.769,1.769,0,0,1,.685,49.52,2.407,2.407,0,0,1,2.222,49.089Zm10.052,1.558a60.341,60.341,0,0,1-8.1-.518,18.1,18.1,0,0,0-1.957-.182,1.581,1.581,0,0,0-1.02.258c-.5.38-.379,1.114-.1,2.486A16.361,16.361,0,0,1,1.534,56.1a16.361,16.361,0,0,1-.429,3.407c-.283,1.373-.407,2.107.1,2.486a1.581,1.581,0,0,0,1.02.258,18.107,18.107,0,0,0,1.957-.182,60.344,60.344,0,0,1,8.095-.518,60.341,60.341,0,0,1,8.1.518,18.1,18.1,0,0,0,1.957.182,1.581,1.581,0,0,0,1.02-.258c.5-.38.38-1.114.1-2.487a16.361,16.361,0,0,1-.429-3.407,16.361,16.361,0,0,1,.429-3.407c.283-1.373.407-2.107-.1-2.487a1.581,1.581,0,0,0-1.02-.258,18.108,18.108,0,0,0-1.957.182A60.346,60.346,0,0,1,12.274,50.648Z" transform="translate(0 -35.928)" fill="#7F7F80"/></g></g></svg>