<svg xmlns="http://www.w3.org/2000/svg" xmlns:xlink="http://www.w3.org/1999/xlink" width="26.184" height="21.117" viewBox="0 0 26.184 21.117"><defs><clipPath id="a"><rect width="26.184" height="21.117" transform="translate(0 0)" fill="none"/></clipPath></defs><g transform="translate(0)" opacity="0.7"><g transform="translate(0 0)" clip-path="url(#a)"><path d="M-1.223-1.6H10.953a.377.377,0,0,1,.377.377v7.61a.377.377,0,0,1-.377.377H-1.223A.377.377,0,0,1-1.6,6.387v-7.61A.377.377,0,0,1-1.223-1.6Zm11.8.754H-.847V6.01H10.576Z" transform="translate(12.971 1.6)" fill="#4c4c4e"/><path d="M85.359,6.463a1.518,1.518,0,1,1-1.518,1.518A1.52,1.52,0,0,1,85.359,6.463Zm0,2.283a.765.765,0,1,0-.765-.765A.766.766,0,0,0,85.359,8.746Z" transform="translate(-64.099 -4.941)" fill="#4c4c4e"/><path d="M58.652,18.137l-2.778-2.778-1.256,1.256a.377.377,0,0,1-.533,0l-2.777-2.778-2.017,2.017-.533-.533,2.283-2.283a.377.377,0,0,1,.533,0l2.778,2.778,1.256-1.256a.377.377,0,0,1,.533,0L59.185,17.6Z" transform="translate(-37.278 -9.883)" fill="#4c4c4e"/><path d="M-.847,11.19H-1.6V0h.753Z" transform="translate(4.652 9.55)" fill="#4c4c4e"/><path d="M4.069-.846H0V-1.6H4.069Z" transform="translate(1.394 21.963)" fill="#4c4c4e"/><path d="M6.48,23.2H.377a.377.377,0,0,1-.369-.451l1.017-5.086a.377.377,0,0,1,.369-.3H5.463a.377.377,0,0,1,.369.3L6.85,22.747a.377.377,0,0,1-.369.451ZM.836,22.444H6.021l-.867-4.333H1.7Z" transform="translate(0 -13.271)" fill="#4c4c4e"/><path d="M40.783,60.558a1.9,1.9,0,0,1,1.9,1.9v4.578a.377.377,0,0,1-.377.377H39.257a.377.377,0,0,1-.377-.377V62.461A1.9,1.9,0,0,1,40.783,60.558Zm1.149,6.1v-4.2a1.149,1.149,0,1,0-2.3,0v4.2Z" transform="translate(-29.725 -46.298)" fill="#4c4c4e"/><path d="M96.943,60.558a1.9,1.9,0,0,1,1.9,1.9v4.578a.377.377,0,0,1-.377.377H95.417a.377.377,0,0,1-.377-.377V62.461A1.9,1.9,0,0,1,96.943,60.558Zm1.149,6.1v-4.2a1.149,1.149,0,1,0-2.3,0v4.2Z" transform="translate(-72.661 -46.298)" fill="#4c4c4e"/><path d="M60.48,47.815h-.753V45.181a1.15,1.15,0,0,0-1.149-1.149H49.423a1.15,1.15,0,0,0-1.149,1.149v2.634H47.52V45.181a1.9,1.9,0,0,1,1.9-1.9h9.155a1.9,1.9,0,0,1,1.9,1.9Z" transform="translate(-36.331 -33.087)" fill="#4c4c4e"/><path d="M10.172-.846H0V-1.6H10.172Z" transform="translate(12.583 21.963)" fill="#4c4c4e"/><path d="M10.172-.846H0V-1.6H10.172Z" transform="translate(12.583 18.912)" fill="#4c4c4e"/></g></g></svg>