<svg xmlns="http://www.w3.org/2000/svg" xmlns:xlink="http://www.w3.org/1999/xlink" width="29.15" height="18.623" viewBox="0 0 29.15 18.623"><defs><clipPath id="a"><rect width="29.15" height="18.623" fill="none"/></clipPath></defs><g transform="translate(0 0)" ><g transform="translate(0 0)" clip-path="url(#a)"><path d="M27.442,17.568a1.7,1.7,0,0,1-1.206-.5l-1.443-1.443a2.141,2.141,0,0,0-1.523-.631H8.347a5.557,5.557,0,0,1-5.28-3.807L.087,2.246a1.706,1.706,0,0,1,3.237-1.08l2.981,8.943a2.15,2.15,0,0,0,2.042,1.473H23.27a5.525,5.525,0,0,1,3.936,1.631l1.443,1.442a1.706,1.706,0,0,1-1.206,2.913ZM1.7.839A.867.867,0,0,0,.882,1.98l2.981,8.942a4.719,4.719,0,0,0,4.484,3.233H23.27a2.974,2.974,0,0,1,2.116.877l1.443,1.443a.867.867,0,0,0,1.227-1.227l-1.443-1.443a4.692,4.692,0,0,0-3.343-1.385H8.347a2.987,2.987,0,0,1-2.838-2.046L2.528,1.432A.867.867,0,0,0,1.7.839Z" transform="translate(0.002 0)" fill="#7F7F80"/><path d="M19.3-.761H0V-1.6H19.3Z" transform="translate(4.923 8.678)" fill="#7F7F80"/><path d="M77.4,39.671l-1.308-3.925V28.6h.839v7.01l1.265,3.8Z" transform="translate(-56.144 -21.103)" fill="#7F7F80"/><path d="M-.681,3.52l-.75-.375L.5-.716l.75.375Z" transform="translate(5.336 15.103)" fill="#7F7F80"/></g></g></svg>