<svg xmlns="http://www.w3.org/2000/svg" xmlns:xlink="http://www.w3.org/1999/xlink" width="27.202" height="14.802" viewBox="0 0 27.202 14.802"><defs><clipPath id="a"><rect width="27.202" height="14.802" fill="none"/></clipPath></defs><g transform="translate(0 0)" opacity="0.7"><g transform="translate(0 0)"><g clip-path="url(#a)"><path d="M-1.6-1.6H16V2.785H-1.6Zm16.812.783H-.817V2H15.212Z" transform="translate(1.6 10.006)" fill="#4c4c4e"/><path d="M-.817,2.4H-1.6V0h.783Z" transform="translate(17.211 12.401)" fill="#4c4c4e"/><path d="M-.817,2.4H-1.6V0h.783Z" transform="translate(2.801 12.401)" fill="#4c4c4e"/></g></g><path d="M20.081,12.506H19.3V5.691H5.65v6.814H4.867v-7.6H20.081Z" transform="translate(-3.677 -3.708)" fill="#4c4c4e"/><g transform="translate(0 0)"><g clip-path="url(#a)"><path d="M43.658,27.339h-.783v-1.2a.81.81,0,0,0-.809-.809h-1.2a.81.81,0,0,0-.809.809v1.2h-.783v-1.2a1.594,1.594,0,0,1,1.592-1.592h1.2a1.594,1.594,0,0,1,1.592,1.592Z" transform="translate(-29.666 -18.541)" fill="#4c4c4e"/><path d="M19.422,27.339H18.64v-1.2a.81.81,0,0,0-.809-.809h-1.2a.81.81,0,0,0-.809.809v1.2h-.783v-1.2a1.594,1.594,0,0,1,1.592-1.592h1.2a1.594,1.594,0,0,1,1.592,1.592Z" transform="translate(-11.359 -18.541)" fill="#4c4c4e"/><path d="M-1.6-1.6H5.187V6.388H-1.6Zm6,.783H-.817V5.606H4.4Z" transform="translate(22.015 8.205)" fill="#4c4c4e"/><path d="M-.817,2.4H-1.6V0h.783Z" transform="translate(23.816 9.398)" fill="#4c4c4e"/><path d="M-.817,3H-1.6V0h.783Z" transform="translate(25.017 3.994)" fill="#4c4c4e"/><path d="M86.751,0h2.966l1.462,4.385H85.289Zm2.4.783H87.315l-.94,2.82h3.717Z" transform="translate(-64.426 0)" fill="#4c4c4e"/></g></g></g></svg>