<svg xmlns="http://www.w3.org/2000/svg" xmlns:xlink="http://www.w3.org/1999/xlink" width="25.623" height="16.205" viewBox="0 0 25.623 16.205"><defs><clipPath id="a"><rect width="25.623" height="16.205" fill="none"/></clipPath></defs><g transform="translate(0 0)" opacity="0.79"><g transform="translate(0 0)"><g clip-path="url(#a)"><path d="M-1.6-1.6H24.023v3H-1.6Zm24.886.737H-.863V.662H23.286Z" transform="translate(1.6 1.6)" fill="#4c4c4e"/><path d="M13.565,24.8H4.909V11.418h.737v12.64h7.181V11.418h.737Z" transform="translate(-3.778 -8.787)" fill="#4c4c4e"/></g></g><path d="M7.918-.863H0V-1.6H7.918Z" transform="translate(1.5 12.346)" fill="#4c4c4e"/><path d="M4.525-.863H0V-1.6H4.525Z" transform="translate(19.599 12.346)" fill="#4c4c4e"/><path d="M3.393-.863H0V-1.6H3.393Z" transform="translate(3.762 14.609)" fill="#4c4c4e"/><path d="M7.918-.863H0V-1.6H7.918Z" transform="translate(1.5 7.822)" fill="#4c4c4e"/><path d="M3.393-.863H0V-1.6H3.393Z" transform="translate(3.762 10.084)" fill="#4c4c4e"/><g transform="translate(0 0)"><g clip-path="url(#a)"><path d="M-.863,13.574H-1.6V0h.737Z" transform="translate(25.355 2.631)" fill="#4c4c4e"/></g></g></g></svg>