<svg xmlns="http://www.w3.org/2000/svg" xmlns:xlink="http://www.w3.org/1999/xlink" width="32.438" height="22.502" viewBox="0 0 32.438 22.502"><defs><clipPath id="a"><rect width="32.438" height="22.502" fill="none"/></clipPath></defs><g transform="translate(0)" ><g transform="translate(0 0)" clip-path="url(#a)"><path d="M-1.6-1.6H30.838V4.136H-1.6ZM29.814-.576H-.576V3.112h30.39Z" transform="translate(1.6 15.737)" fill="#7F7F80"/><path d="M34.206,36.348H33.182V33.992a1.06,1.06,0,0,0-1.059-1.059H6.992a1.06,1.06,0,0,0-1.059,1.059v2.356H4.909V33.992a2.085,2.085,0,0,1,2.083-2.083H32.123a2.085,2.085,0,0,1,2.083,2.083Z" transform="translate(-3.338 -21.699)" fill="#7F7F80"/><path d="M63.762,25.744H62.738V24.174a1.06,1.06,0,0,0-1.059-1.059H58.538a1.06,1.06,0,0,0-1.059,1.059v1.571H56.455V24.174a2.085,2.085,0,0,1,2.083-2.083h3.141a2.085,2.085,0,0,1,2.083,2.083Z" transform="translate(-38.392 -15.023)" fill="#7F7F80"/><path d="M29.4,25.744H28.374V24.174a1.06,1.06,0,0,0-1.059-1.059H24.174a1.06,1.06,0,0,0-1.059,1.059v1.571H22.091V24.174a2.085,2.085,0,0,1,2.083-2.083h3.141A2.085,2.085,0,0,1,29.4,24.174Z" transform="translate(-15.023 -15.023)" fill="#7F7F80"/><path d="M35.973,10.722H34.949v-9.7H10.842v9.7H9.818V0H35.973Z" transform="translate(-6.677 0)" fill="#7F7F80"/><path d="M-.576,3.141H-1.6V0H-.576Z" transform="translate(29.873 19.361)" fill="#7F7F80"/><path d="M-.576,3.141H-1.6V0H-.576Z" transform="translate(4.741 19.361)" fill="#7F7F80"/></g></g></svg>