<svg xmlns="http://www.w3.org/2000/svg" xmlns:xlink="http://www.w3.org/1999/xlink" width="29.608" height="29.608" viewBox="0 0 29.608 29.608"><defs><clipPath id="a"><rect width="29.608" height="29.608" fill="none"/></clipPath></defs><g ><g clip-path="url(#a)"><path d="M-1.6-1.6H28.008V3.394H-1.6Zm28.716.891H-.709V2.5H27.116Z" transform="translate(1.6 26.214)" fill="#7F7F80"/><path d="M95.128,55.164h-.891V42.619H91.709V55.164h-.891V41.728h4.31Z" transform="translate(-65.52 -30.104)" fill="#7F7F80"/><path d="M4.31,55.164H3.418V42.619H.891V55.164H0V41.728H4.31Z" transform="translate(0 -30.104)" fill="#7F7F80"/></g><path d="M21.879-.709H0V-1.6H21.879Z" transform="translate(3.864 14.591)" fill="#7F7F80"/><path d="M-.709,11.623H-1.6V0h.891Z" transform="translate(24.163 13.437)" fill="#7F7F80"/><path d="M-.709,11.623H-1.6V0h.891Z" transform="translate(21.428 13.437)" fill="#7F7F80"/><path d="M-.709,11.623H-1.6V0h.891Z" transform="translate(18.693 13.437)" fill="#7F7F80"/><path d="M-.709,11.623H-1.6V0h.891Z" transform="translate(15.958 13.437)" fill="#7F7F80"/><path d="M-.709,11.623H-1.6V0h.891Z" transform="translate(13.223 13.437)" fill="#7F7F80"/><path d="M-.709,11.623H-1.6V0h.891Z" transform="translate(10.488 13.437)" fill="#7F7F80"/><path d="M-.709,11.623H-1.6V0h.891Z" transform="translate(7.753 13.437)" fill="#7F7F80"/><g clip-path="url(#a)"><path d="M13.164,12.069h-.891V3.181A3.18,3.18,0,0,1,15.454,0h6.154a3.18,3.18,0,0,1,3.181,3.181V7.967H23.9V3.181A2.292,2.292,0,0,0,21.607.891H15.454a2.292,2.292,0,0,0-2.289,2.289Z" transform="translate(-8.854 0)" fill="#7F7F80"/><path d="M48.369,16.821h-.891V15.454a2.292,2.292,0,0,0-2.289-2.289H42.454a2.292,2.292,0,0,0-2.289,2.289v1.367h-.891V15.454a3.181,3.181,0,0,1,3.181-3.181h2.735a3.18,3.18,0,0,1,3.181,3.181Z" transform="translate(-28.333 -8.854)" fill="#7F7F80"/><path d="M53.426,27.513a1.367,1.367,0,1,1-1.367-1.367,1.367,1.367,0,0,1,1.367,1.367" transform="translate(-36.571 -18.863)" fill="#7F7F80"/><path d="M68.153,27.513a1.367,1.367,0,1,1-1.367-1.367,1.367,1.367,0,0,1,1.367,1.367" transform="translate(-47.196 -18.863)" fill="#7F7F80"/><path d="M38.7,27.513a1.367,1.367,0,1,1-1.367-1.367A1.367,1.367,0,0,1,38.7,27.513" transform="translate(-25.946 -18.863)" fill="#7F7F80"/></g></g></svg>