<svg xmlns="http://www.w3.org/2000/svg" xmlns:xlink="http://www.w3.org/1999/xlink" width="23.816" height="19.977" viewBox="0 0 23.816 19.977"><defs><clipPath id="a"><rect width="23.816" height="19.977" transform="translate(0 0)" fill="none"/></clipPath></defs><g transform="translate(0 0)" opacity="0.79"><g transform="translate(0 0)" clip-path="url(#a)"><path d="M79.23,8.211h-.685V7.16a1.4,1.4,0,0,1,1.394-1.394H85.2v.685H79.939a.71.71,0,0,0-.709.709Z" transform="translate(-61.723 -4.531)" fill="#4c4c4e"/><path d="M-.915,19.977H-1.6V0h.685Z" transform="translate(24.731 0)" fill="#4c4c4e"/><path d="M-.915,19.977H-1.6V0h.685Z" transform="translate(1.6 0)" fill="#4c4c4e"/><path d="M23.131-.915H0V-1.6H23.131Z" transform="translate(0.343 5.463)" fill="#4c4c4e"/><path d="M23.131-.915H0V-1.6H23.131Z" transform="translate(0.343 8.617)" fill="#4c4c4e"/><path d="M79.23,57.3h-.685V56.251a1.4,1.4,0,0,1,1.394-1.394H85.2v.685H79.939a.71.71,0,0,0-.709.709Z" transform="translate(-61.723 -43.108)" fill="#4c4c4e"/><path d="M16.3-.915H0V-1.6H16.3Z" transform="translate(7.177 15.977)" fill="#4c4c4e"/><path d="M16.3-.915H0V-1.6H16.3Z" transform="translate(7.177 19.131)" fill="#4c4c4e"/><path d="M-.915,15.771H-1.6V0h.685Z" transform="translate(7.383 4.206)" fill="#4c4c4e"/><path d="M5.783-.915H0V-1.6H5.783Z" transform="translate(0.343 11.771)" fill="#4c4c4e"/><path d="M5.783-.915H0V-1.6H5.783Z" transform="translate(0.343 15.452)" fill="#4c4c4e"/><path d="M5.783-.915H0V-1.6H5.783Z" transform="translate(0.343 19.131)" fill="#4c4c4e"/></g></g></svg>