<svg xmlns="http://www.w3.org/2000/svg" xmlns:xlink="http://www.w3.org/1999/xlink" width="21.967" height="19.794" viewBox="0 0 21.967 19.794"><defs><clipPath id="a"><rect width="21.967" height="19.794" fill="none"/></clipPath></defs><g transform="translate(0 0)" opacity="0.7"><g transform="translate(0 0)"><g clip-path="url(#a)"><path d="M-1.6-1.6H20.367V18.194H-1.6Zm21.335.632H-.968v18.53h20.7Z" transform="translate(1.6 1.6)" fill="#4c4c4e"/><path d="M-.968,19.162H-1.6V0h.632Z" transform="translate(12.267 0.316)" fill="#4c4c4e"/><path d="M-.968,19.162H-1.6V0h.632Z" transform="translate(6.934 0.316)" fill="#4c4c4e"/></g></g><path d="M-.968,3.879H-1.6V0h.632Z" transform="translate(8.873 9.044)" fill="#4c4c4e"/><path d="M3.879-.968H0V-1.6H3.879Z" transform="translate(14.378 18.086)" fill="#4c4c4e"/><path d="M-.968,3.879H-1.6V0h.632Z" transform="translate(4.994 9.044)" fill="#4c4c4e"/><g transform="translate(0 0)"><g clip-path="url(#a)"><path d="M10.667-.968H0V-1.6H10.667Z" transform="translate(10.983 16.147)" fill="#4c4c4e"/><path d="M77.693,13.043h-.632v-.629a.713.713,0,0,1,.508-.685.654.654,0,1,0-.845-.625h-.632a1.286,1.286,0,1,1,1.662,1.23.085.085,0,0,0-.06.081Z" transform="translate(-61.06 -7.878)" fill="#4c4c4e"/><path d="M65.558,24.313l3.779,2.106a.773.773,0,0,1,.38.914.8.8,0,0,1-.319.417.9.9,0,0,1-.5.15H62.218a.9.9,0,0,1-.5-.15.8.8,0,0,1-.319-.417.773.773,0,0,1,.38-.914ZM68.9,27.268a.224.224,0,0,0,.218-.129.145.145,0,0,0-.086-.168l-3.472-1.935-3.472,1.935A.146.146,0,0,0,62,27.14a.224.224,0,0,0,.218.129Z" transform="translate(-49.241 -19.51)" fill="#4c4c4e"/></g></g></g></svg>