<svg xmlns="http://www.w3.org/2000/svg" xmlns:xlink="http://www.w3.org/1999/xlink" width="32.438" height="23.449" viewBox="0 0 32.438 23.449"><defs><clipPath id="a"><rect width="32.438" height="23.449" fill="none"/></clipPath></defs><g transform="translate(0)" ><g transform="translate(0 0)"><g clip-path="url(#a)"><path d="M-1.6-1.6H30.838V2.373H-1.6Zm31.461.977H-.623V1.4H29.861Z" transform="translate(1.6 1.6)" fill="#7F7F80"/></g></g><path d="M34.351,28.386H4.909V11.418h.977V27.41H33.374V11.418h.977Z" transform="translate(-3.411 -7.934)" fill="#7F7F80"/><g transform="translate(0 0)"><g clip-path="url(#a)"><path d="M37.22,68.9H12.273V65.418h.977v2.508H36.244V65.418h.977Z" transform="translate(-8.528 -45.454)" fill="#7F7F80"/></g></g><path d="M-.623,16.48H-1.6V0h.977Z" transform="translate(17.33 3.485)" fill="#7F7F80"/><path d="M-.623,5.993H-1.6V0h.977Z" transform="translate(20.327 8.728)" fill="#7F7F80"/><path d="M-.623,5.993H-1.6V0h.977Z" transform="translate(14.334 8.728)" fill="#7F7F80"/></g></svg>