<svg xmlns="http://www.w3.org/2000/svg" xmlns:xlink="http://www.w3.org/1999/xlink" width="25.473" height="20.975" viewBox="0 0 25.473 20.975"><defs><clipPath id="a"><rect width="25.473" height="20.975" fill="none"/></clipPath></defs><g transform="translate(0)" opacity="0.7"><g transform="translate(0 0)"><g transform="translate(0 0)" clip-path="url(#a)"><path d="M-1.6-1.6H8.129V19.375H-1.6Zm9,.733H-.867V18.642H7.4Z" transform="translate(1.6 1.6)" fill="#4c4c4e"/><path d="M56.983,62.605H40.873v-.733H56.25V54.733H40.873V54h16.11Z" transform="translate(-31.51 -41.63)" fill="#4c4c4e"/><path d="M-.867,7.872H-1.6V0h.733Z" transform="translate(18.468 12.737)" fill="#4c4c4e"/></g></g><path d="M-1.6-1.6H3.631V1.382H-1.6Zm4.5.733H-.867V.649H2.9Z" transform="translate(20.155 17.906)" fill="#4c4c4e"/><g transform="translate(0 0)"><g transform="translate(0 0)" clip-path="url(#a)"><path d="M91.089,63.525a.562.562,0,1,1-.562-.562.562.562,0,0,1,.562.562" transform="translate(-69.356 -48.54)" fill="#4c4c4e"/><path d="M100.907,63.525a.562.562,0,1,1-.562-.562.562.562,0,0,1,.562.562" transform="translate(-76.925 -48.54)" fill="#4c4c4e"/><path d="M81.271,63.525a.562.562,0,1,1-.562-.562.562.562,0,0,1,.562.562" transform="translate(-61.787 -48.54)" fill="#4c4c4e"/><path d="M3.374-.867H0V-1.6H3.374Z" transform="translate(11.612 16.219)" fill="#4c4c4e"/><path d="M-.867,5.623H-1.6V0h.733Z" transform="translate(8.347 9.925)" fill="#4c4c4e"/><path d="M-1.6-1.6H11.5V4.756H-1.6Zm12.37.733H-.867v4.89H10.77Z" transform="translate(13.97 1.6)" fill="#4c4c4e"/><path d="M5.623-.867H0V-1.6H5.623Z" transform="translate(16.11 4.974)" fill="#4c4c4e"/></g></g></g></svg>