<svg xmlns="http://www.w3.org/2000/svg" xmlns:xlink="http://www.w3.org/1999/xlink" width="15" height="15" viewBox="0 0 15 15"><defs><clipPath id="a"><rect width="15" height="15" fill="#f50000"/></clipPath></defs><g clip-path="url(#a)"><path d="M15,7.5a7.507,7.507,0,1,0-2.2,5.3A7.5,7.5,0,0,0,15,7.5Zm-4.493,3.007a1.207,1.207,0,0,1-1.723,0,1.221,1.221,0,0,1,1.723-1.723,1.207,1.207,0,0,1,0,1.723ZM4.493,4.493a1.207,1.207,0,0,1,1.723,0A1.221,1.221,0,1,1,4.493,6.216a1.207,1.207,0,0,1,0-1.723m.858,6.391a.7.7,0,0,1-.544-1.137L9.1,4.382a.7.7,0,1,1,1.088.872L5.9,10.619A.7.7,0,0,1,5.351,10.884Z" transform="translate(0 0)" fill="#f50000"/></g></svg>