<svg xmlns="http://www.w3.org/2000/svg" xmlns:xlink="http://www.w3.org/1999/xlink" width="14" height="14" viewBox="0 0 14 14"><defs><clipPath id="a"><rect width="14" height="14" fill="#707070"/></clipPath></defs><g transform="translate(0 0.284)"><g transform="translate(0 -0.284)" clip-path="url(#a)"><path d="M267.944,263.763a.524.524,0,0,0-.524.524v2.4l-3.819-3.82h0a.524.524,0,0,0-.74.74l3.819,3.82h-2.4a.524.524,0,1,0,0,1.047h3.666a.524.524,0,0,0,.524-.524v-3.661a.524.524,0,0,0-.524-.524Z" transform="translate(-254.851 -254.57)" fill="#707070"/><path d="M267.527,0h-3.666a.524.524,0,1,0,0,1.047h2.4l-3.819,3.82h0a.524.524,0,1,0,.74.74L267,1.788v2.4a.524.524,0,1,0,1.047,0V.524A.524.524,0,0,0,267.527,0Z" transform="translate(-254.434 0.284)" fill="#707070"/><path d="M4.867,262.852l-3.82,3.819v-2.4a.524.524,0,1,0-1.047,0v3.661a.524.524,0,0,0,.524.524h3.65a.524.524,0,0,0,0-1.047H1.788l3.82-3.82h0a.524.524,0,0,0-.74-.74Z" transform="translate(0 -254.559)" fill="#707070"/><path d="M1.788,1.047H4.174A.524.524,0,0,0,4.174,0H.524A.524.524,0,0,0,0,.524V4.184a.524.524,0,1,0,1.047,0v-2.4l3.82,3.82h0a.524.524,0,0,0,.74-.74Z" transform="translate(0 0.284)" fill="#707070"/></g></g></svg>