<svg xmlns="http://www.w3.org/2000/svg" width="16.859" height="16.771" viewBox="0 0 16.859 16.771"><g transform="translate(0.252 0.25)"><path d="M3-.75l.079,0,.029,0a2.008,2.008,0,0,1,1.214.6l.025.024a16.076,16.076,0,0,1,1.22,1.464c.882,1.171.943,1.464.972,1.6a2.3,2.3,0,0,1-.4,1.685c-.208.361-.261.486-.214.628a7.149,7.149,0,0,0,4.082,4.079.294.294,0,0,0,.095.017,1.407,1.407,0,0,0,.533-.231,2.569,2.569,0,0,1,1.311-.439,1.842,1.842,0,0,1,.373.039,12.525,12.525,0,0,1,3.069,2.194,2.019,2.019,0,0,1,.626,1.24q0,.018,0,.035c.052,1.482-1.791,3-2.224,3.294a2.864,2.864,0,0,1-1.7.532,4.7,4.7,0,0,1-1.949-.485,20.983,20.983,0,0,1-5.959-4.4A20.529,20.529,0,0,1-.268,5.117,3.481,3.481,0,0,1-.228,1.488C.107.964,1.621-.75,3-.75ZM3.32.97,3.3.953A.709.709,0,0,0,3,.75C2.462.759,1.289,1.876,1.036,2.295q-.017.029-.037.056c-.134.183-.541.739.1,2.158l.012.027c1.291,3.162,6.418,8.287,9.624,9.621l.028.012a3.252,3.252,0,0,0,1.331.352,1.375,1.375,0,0,0,.829-.254q.029-.021.061-.039c.381-.238,1.522-1.4,1.533-1.957a.714.714,0,0,0-.2-.3,15.685,15.685,0,0,0-2.334-1.779l-.035,0a1.4,1.4,0,0,0-.564.239,2.517,2.517,0,0,1-1.28.431,1.807,1.807,0,0,1-.618-.111l-.027-.011A8.7,8.7,0,0,1,4.534,5.812l-.011-.029a2.138,2.138,0,0,1,.321-1.9c.173-.3.252-.457.237-.6A15.9,15.9,0,0,0,3.32.97Z" transform="translate(0.5 0.5)" fill="#7f7f7f"/><path d="M5.658,6.4a.75.75,0,0,1-.744-.666,5.626,5.626,0,0,0-5-4.99A.75.75,0,0,1-.745-.083.75.75,0,0,1,.083-.745,7.182,7.182,0,0,1,4.35,1.3,7.183,7.183,0,0,1,6.4,5.568a.75.75,0,0,1-.662.829A.759.759,0,0,1,5.658,6.4Z" transform="translate(10.198 0.701)" fill="#7f7f7f"/><path d="M2.811,3.562a.75.75,0,0,1-.735-.607A2.8,2.8,0,0,0-.143.736a.75.75,0,0,1-.593-.88.75.75,0,0,1,.88-.593,4.29,4.29,0,0,1,3.4,3.4.751.751,0,0,1-.737.894Z" transform="translate(10.198 3.549)" fill="#7f7f7f"/></g></svg>