<svg xmlns="http://www.w3.org/2000/svg" width="20.75" height="22.5" viewBox="0 0 20.75 22.5"><g transform="translate(0.75 0.75)"><path d="M8.06,14.124c-1.541,0-3.046-.015-4.5-.046a3.359,3.359,0,0,1-2.3-.879A3.576,3.576,0,0,1,.227,10.956C-.13,7.734-.741.136-.748.06A.75.75,0,0,1-.06-.748.75.75,0,0,1,.748-.06c.006.076.616,7.651.971,10.851a1.791,1.791,0,0,0,1.868,1.787c2.8.059,5.784.061,8.859.006a1.8,1.8,0,0,0,1.945-1.8c.352-3.173.966-10.767.972-10.844a.75.75,0,0,1,.808-.687.75.75,0,0,1,.687.808c-.006.077-.621,7.694-.976,10.888a3.282,3.282,0,0,1-3.409,3.135C10.977,14.111,9.5,14.124,8.06,14.124Z" transform="translate(1.571 7.626)" fill="#9a9a9a"/><path d="M19.25,1.25H0A.75.75,0,1,1,0-.25H19.25a.75.75,0,0,1,0,1.5Z" transform="translate(0 3.461)" fill="#9a9a9a"/><path d="M11.832,4.711A2.627,2.627,0,0,1,9.263,2.6l-.27-1.353a.7.7,0,0,0-.674-.5H3.513a.7.7,0,0,0-.674.5L2.569,2.6A2.627,2.627,0,0,1,0,4.711a.75.75,0,0,1-.75-.75A.75.75,0,0,1,0,3.211a1.123,1.123,0,0,0,1.1-.9L1.374.93q0-.024.011-.047A2.206,2.206,0,0,1,3.513-.75H8.319A2.206,2.206,0,0,1,10.447.884q.006.023.011.047l.276,1.38a1.123,1.123,0,0,0,1.1.9.75.75,0,1,1,0,1.5Z" transform="translate(3.709 0)" fill="#9a9a9a"/></g></svg>