<svg xmlns="http://www.w3.org/2000/svg" width="20.982" height="21.891" viewBox="0 0 20.982 21.891"><g transform="translate(0.75 0.75)"><g transform="translate(0 0)"><path d="M8.8-.75A9.547,9.547,0,1,1-.75,8.8,9.558,9.558,0,0,1,8.8-.75Zm0,17.594A8.047,8.047,0,1,0,.75,8.8,8.056,8.056,0,0,0,8.8,16.844Z" transform="translate(0 0)" fill="#060606"/></g><path d="M0,.75A.75.75,0,0,1-.75,0,.75.75,0,0,1,0-.75H6.065a.75.75,0,0,1,.75.75.75.75,0,0,1-.75.75Z" transform="translate(14.883 15.792) rotate(45)" fill="#060606"/></g></svg>