<svg xmlns="http://www.w3.org/2000/svg" xmlns:xlink="http://www.w3.org/1999/xlink" width="15.546" height="17.433" viewBox="0 0 15.546 17.433"><defs><clipPath id="a"><rect width="15.546" height="17.433" fill="#707070"/></clipPath></defs><g clip-path="url(#a)"><path d="M15.546,2.4A2.415,2.415,0,0,0,13.15,0H2.038A2.038,2.038,0,0,0,0,2.038V9.773H2.924v4.585H7.018l-.113,3.075,2.339-1.49,2.339,1.49-.113-3.075h4.075ZM2.924,8.641H1.132v-6.6a.906.906,0,1,1,1.811,0Zm6.32,4.037a2.038,2.038,0,1,1,1.441-.6,2.038,2.038,0,0,1-1.441.6m0,1.924-1.132.717.057-1.7h0a3.114,3.114,0,0,0,2.132,0l.057,1.7Zm5.169-1.377H11.433v-.283a3.17,3.17,0,1,0-4.339,0v.3H4.056V2.037a2.017,2.017,0,0,0-.208-.906h9.3A1.283,1.283,0,0,1,14.414,2.4Z" fill="#707070"/><rect width="4.528" height="1.132" transform="translate(5.377 5.018)" fill="#707070"/><rect width="7.471" height="1.132" transform="translate(5.377 2.641)" fill="#707070"/></g></svg>