<svg xmlns="http://www.w3.org/2000/svg" width="19.284" height="20.722" viewBox="0 0 19.284 20.722"><g transform="translate(-0.03 -0.028)"><path d="M8.265-.75H9.52a2.663,2.663,0,0,1,2.662,2.722,1.082,1.082,0,0,0,.151.529,1.149,1.149,0,0,0,.707.537,1.164,1.164,0,0,0,.876-.123l.008,0a2.662,2.662,0,0,1,3.631.981l.622,1.08a.75.75,0,0,1,.043.087A2.673,2.673,0,0,1,17.211,8.6l-.006,0a1.127,1.127,0,0,0-.418.418l0,0a1.154,1.154,0,0,0,.422,1.581,2.654,2.654,0,0,1,.97,3.636l0,.008-.657,1.094a2.662,2.662,0,0,1-3.629.964,1.2,1.2,0,0,0-.553-.156,1.146,1.146,0,0,0-.813.338,1.161,1.161,0,0,0-.338.821s0,0,0,.007a2.669,2.669,0,0,1-2.663,2.65H8.265A2.666,2.666,0,0,1,5.6,17.314a1.082,1.082,0,0,0-.151-.537l-.006-.01a1.145,1.145,0,0,0-1.571-.42l-.011.006A2.663,2.663,0,0,1,.235,15.327l-.628-1.084a2.658,2.658,0,0,1,.969-3.625,1.167,1.167,0,0,0,.582-1.008A1.166,1.166,0,0,0,.576,8.6a2.669,2.669,0,0,1-.97-3.633l.009-.015L.279,3.864a2.662,2.662,0,0,1,3.627-.973l.01.006a1.082,1.082,0,0,0,.537.151A1.168,1.168,0,0,0,5.611,1.908,2.654,2.654,0,0,1,8.265-.75Zm5.066,5.324a2.654,2.654,0,0,1-2.289-1.311,2.58,2.58,0,0,1-.359-1.287q0-.015,0-.029A1.163,1.163,0,0,0,9.52.75v0H8.265A1.154,1.154,0,0,0,7.111,1.909s0,.01,0,.014A2.674,2.674,0,0,1,4.448,4.549H4.44a2.584,2.584,0,0,1-1.284-.358,1.162,1.162,0,0,0-1.582.431l-.009.015L.9,5.727a1.165,1.165,0,0,0,.427,1.579A2.669,2.669,0,0,1,2.658,9.611a2.67,2.67,0,0,1-1.332,2.306,1.155,1.155,0,0,0-.421,1.575l.631,1.088.007.013a1.163,1.163,0,0,0,1.581.453,2.645,2.645,0,0,1,3.619.97A2.584,2.584,0,0,1,7.1,17.3s0,.005,0,.008a1.164,1.164,0,0,0,1.163,1.163H9.519a1.166,1.166,0,0,0,1.163-1.155,2.671,2.671,0,0,1,.777-1.885,2.636,2.636,0,0,1,1.877-.777h.029a2.709,2.709,0,0,1,1.267.355,1.162,1.162,0,0,0,1.588-.422l.005-.009.656-1.094a1.154,1.154,0,0,0-.424-1.577,2.654,2.654,0,0,1-.971-3.635,2.629,2.629,0,0,1,.969-.969,1.167,1.167,0,0,0,.42-1.579.75.75,0,0,1-.036-.071L16.256,4.64a1.162,1.162,0,0,0-1.583-.43A2.656,2.656,0,0,1,13.331,4.574Z" transform="translate(0.779 0.778)" fill="#0391a2"/><path d="M2.636-.75A3.386,3.386,0,1,1-.75,2.636,3.39,3.39,0,0,1,2.636-.75Zm0,5.272A1.886,1.886,0,1,0,.75,2.636,1.888,1.888,0,0,0,2.636,4.522Z" transform="translate(7.039 7.753)" fill="#0391a2"/></g></svg>