<svg xmlns="http://www.w3.org/2000/svg" width="14.5" height="15.95" viewBox="0 0 14.5 15.95"><g transform="translate(-3 -1.5)"><path d="M23.9,1.5A2.9,2.9,0,1,1,21,4.4,2.9,2.9,0,0,1,23.9,1.5Zm0,4.35A1.45,1.45,0,1,0,22.45,4.4,1.452,1.452,0,0,0,23.9,5.85Z" transform="translate(-9.3)" fill="#0391a2"/><path d="M5.9,12A2.9,2.9,0,1,1,3,14.9,2.9,2.9,0,0,1,5.9,12Zm0,4.35A1.45,1.45,0,1,0,4.45,14.9,1.452,1.452,0,0,0,5.9,16.35Z" transform="translate(0 -5.425)" fill="#0391a2"/><path d="M23.9,22.5A2.9,2.9,0,1,1,21,25.4,2.9,2.9,0,0,1,23.9,22.5Zm0,4.35a1.45,1.45,0,1,0-1.45-1.45A1.452,1.452,0,0,0,23.9,26.85Z" transform="translate(-9.3 -10.85)" fill="#0391a2"/><path d="M17.061,23.1A.722.722,0,0,1,16.7,23l-4.952-2.885a.725.725,0,0,1,.73-1.253l4.952,2.885a.725.725,0,0,1-.366,1.352Z" transform="translate(-4.332 -8.92)" fill="#0391a2"/><path d="M12.111,12.6a.725.725,0,0,1-.366-1.351l4.944-2.885a.725.725,0,1,1,.731,1.252L12.475,12.5A.722.722,0,0,1,12.111,12.6Z" transform="translate(-4.332 -3.495)" fill="#0391a2"/></g></svg>