<svg xmlns="http://www.w3.org/2000/svg" xmlns:xlink="http://www.w3.org/1999/xlink" width="18" height="18" viewBox="0 0 18 18"><defs><clipPath id="a"><rect width="18" height="18" fill="#0391a2"/></clipPath></defs><g clip-path="url(#a)"><path d="M9,0a9,9,0,1,0,9,9A9.01,9.01,0,0,0,9,0ZM9,1.286A7.714,7.714,0,1,1,1.286,9,7.7,7.7,0,0,1,9,1.286ZM6.71,4.279a1.6,1.6,0,0,0-.777.221,1.655,1.655,0,0,0-.79,1.386v6.208a1.659,1.659,0,0,0,.79,1.386,1.63,1.63,0,0,0,1.6.02c1.791-1.03,3.582-2.075,5.371-3.114a1.614,1.614,0,0,0,0-2.8C11.1,6.576,9.343,5.476,7.533,4.481a1.894,1.894,0,0,0-.824-.2Zm.047,1.286a.86.86,0,0,1,.167.047L12.261,8.7a.331.331,0,0,1,0,.576L6.924,12.369a.3.3,0,0,1-.328.007.336.336,0,0,1-.167-.295V5.9a.332.332,0,0,1,.161-.295.279.279,0,0,1,.167-.04Z" fill="#0391a2"/></g></svg>