<svg xmlns="http://www.w3.org/2000/svg" xmlns:xlink="http://www.w3.org/1999/xlink" width="15" height="15" viewBox="0 0 15 15"><defs><clipPath id="a"><rect width="15" height="15" fill="#c5c5c5"/></clipPath></defs><g clip-path="url(#a)"><path d="M7.5,15A7.5,7.5,0,1,0,0,7.5,7.5,7.5,0,0,0,7.5,15M3.236,9.938l3.47-3.47a2.749,2.749,0,0,1,3.729-3.324L9.16,4.419a.439.439,0,0,0,0,.62l.8.8a.439.439,0,0,0,.62,0l1.275-1.275A2.749,2.749,0,0,1,8.532,8.294l-3.47,3.47a1.094,1.094,0,0,1-1.546,0l-.28-.28a1.094,1.094,0,0,1,0-1.546Z" fill="#c5c5c5"/></g></svg>