<svg xmlns="http://www.w3.org/2000/svg" xmlns:xlink="http://www.w3.org/1999/xlink" width="90.813" height="84.983" viewBox="0 0 90.813 84.983"><defs><clipPath id="a"><rect width="90.813" height="84.983" fill="none" stroke="#0391a2" stroke-width="1"/></clipPath></defs><g transform="translate(0 0)"><g transform="translate(0 0)"><g clip-path="url(#a)"><path d="M-1.6-1.6H89.547V10.394H-1.6ZM86.347,1.6H1.6V7.194H86.347Z" transform="translate(1.433 1.433)" fill="#0391a2"/><path d="M1.6,74.755H-1.6V0H1.6Z" transform="translate(84.982 10.228)" fill="#0391a2"/><path d="M1.6,74.755H-1.6V0H1.6Z" transform="translate(5.831 10.228)" fill="#0391a2"/></g></g><path d="M79.152,1.6H0V-1.6H79.152Z" transform="translate(5.831 32.215)" fill="#0391a2"/><path d="M26.384,1.6H0V-1.6H26.384Z" transform="translate(32.215 19.023)" fill="#f7bd13"/><path d="M26.384,1.6H0V-1.6H26.384Z" transform="translate(32.215 41.009)" fill="#f7bd13"/><path d="M26.384,1.6H0V-1.6H26.384Z" transform="translate(32.215 62.996)" fill="#f7bd13"/><path d="M79.152,1.6H0V-1.6H79.152Z" transform="translate(5.831 54.201)" fill="#0391a2"/><path d="M79.152,1.6H0V-1.6H79.152Z" transform="translate(5.831 76.188)" fill="#0391a2"/></g></svg>