<svg xmlns="http://www.w3.org/2000/svg" xmlns:xlink="http://www.w3.org/1999/xlink" width="89.405" height="85.275" viewBox="0 0 89.405 85.275"><defs><clipPath id="a"><rect width="89.405" height="85.275" fill="none" stroke="#0391a2" stroke-width="1"/></clipPath></defs><g clip-path="url(#a)"><path d="M-1.6-1.6H88.313V9.858H-1.6ZM85.113,1.6H1.6V6.658H85.113Z" transform="translate(1.346 1.346)" fill="#0391a2"/><path d="M88.238,87.344H77.719l-6.2-6.194H19.169l-6.2,6.194H2.456V11.418h3.2V84.144h5.992l6.2-6.194h55l6.2,6.194h5.993V11.418h3.2Z" transform="translate(-0.644 -1.814)" fill="#0391a2"/></g><path d="M-1.6-1.6H67.667V20.181H-1.6ZM64.467,1.6H1.6V16.981H64.467Z" transform="translate(11.669 17.862)" fill="#0391a2"/><path d="M-1.6-1.6H67.667V26.375H-1.6ZM64.467,1.6H1.6V23.175H64.467Z" transform="translate(11.669 44.702)" fill="#0391a2"/><path d="M1.6,24.775H-1.6V0H1.6Z" transform="translate(44.702 44.702)" fill="#0391a2"/><path d="M1.6,12.387H-1.6V0H1.6Z" transform="translate(52.961 50.896)" fill="#f7bd13"/><path d="M1.6,12.387H-1.6V0H1.6Z" transform="translate(36.446 50.896)" fill="#f7bd13"/><path d="M1.6,18.581H-1.6V0H1.6Z" transform="translate(44.702 17.863)" fill="#0391a2"/><path d="M79.408,34.329H63.821V28.6h3.2v2.529h9.187V28.6h3.2Z" transform="translate(-10.393 -4.544)" fill="#f7bd13"/><path d="M40.133,34.329H24.546V28.6h3.2v2.529h9.187V28.6h3.2Z" transform="translate(-4.154 -4.544)" fill="#f7bd13"/></svg>