<svg xmlns="http://www.w3.org/2000/svg" xmlns:xlink="http://www.w3.org/1999/xlink" width="155.937" height="73.459" viewBox="0 0 155.937 73.459"><defs><clipPath id="a"><rect width="155.937" height="73.459" fill="none" stroke="#0391a2" stroke-width="1"/></clipPath></defs><g transform="translate(0 0)"><g transform="translate(0 0)"><g clip-path="url(#a)"><path d="M-1.6-1.6H28.852V26.374H-1.6ZM25.652,1.6H1.6V23.174H25.652Z" transform="translate(127.473 47.43)" fill="#0391a2"/><path d="M27.252,1.6H0V-1.6H27.252Z" transform="translate(127.474 57.34)" fill="#0391a2"/><path d="M1.6,24.774H-1.6V0H1.6Z" transform="translate(154.725 47.43)" fill="#0391a2"/></g></g><path d="M14.865,1.6H0V-1.6H14.865Z" transform="translate(133.667 63.534)" fill="#f7bd13"/><g transform="translate(0 0)"><g clip-path="url(#a)"><path d="M-1.6-1.6H28.852V26.374H-1.6ZM25.652,1.6H1.6V23.174H25.652Z" transform="translate(1.212 47.43)" fill="#0391a2"/><path d="M27.252,1.6H0V-1.6H27.252Z" transform="translate(1.212 57.34)" fill="#0391a2"/><path d="M1.6,24.774H-1.6V0H1.6Z" transform="translate(28.464 47.43)" fill="#0391a2"/></g></g><path d="M14.865,1.6H0V-1.6H14.865Z" transform="translate(7.405 63.534)" fill="#f7bd13"/><g transform="translate(0 0)"><g clip-path="url(#a)"><path d="M130.93,60.239h-3.2V56.52a2.121,2.121,0,0,0-2.118-2.118H114.457a2.121,2.121,0,0,0-2.118,2.118v3.718h-3.2V56.52a5.324,5.324,0,0,1,5.318-5.318h11.155a5.324,5.324,0,0,1,5.318,5.318Z" transform="translate(-26.861 -12.808)" fill="#0391a2"/><path d="M91.657,60.239h-3.2V56.52A2.121,2.121,0,0,0,86.339,54.4H75.184a2.121,2.121,0,0,0-2.118,2.118v3.718h-3.2V56.52A5.324,5.324,0,0,1,75.184,51.2H86.339a5.324,5.324,0,0,1,5.318,5.318Z" transform="translate(-17.335 -12.808)" fill="#0391a2"/><path d="M1.6,26.029H-1.6V0H1.6Z" transform="translate(117.343 47.43)" fill="#0391a2"/><path d="M1.6,26.029H-1.6V0H1.6Z" transform="translate(39.258 47.43)" fill="#0391a2"/><path d="M157.448,61.429a3.718,3.718,0,1,0-3.718,3.718,3.718,3.718,0,0,0,3.718-3.718" transform="translate(-36.387 -13.999)" fill="#f7bd13"/><path d="M78.085,1.6H0V-1.6H78.085Z" transform="translate(39.258 66.022)" fill="#0391a2"/><path d="M78.085,1.6H0V-1.6H78.085Z" transform="translate(39.258 54.867)" fill="#0391a2"/><path d="M46.92,61.429a3.718,3.718,0,1,1,3.718,3.718,3.718,3.718,0,0,1-3.718-3.718" transform="translate(-11.381 -13.999)" fill="#f7bd13"/><path d="M126.459,70.057h-3.2V66.338a2.121,2.121,0,0,0-2.118-2.118H65.367a2.121,2.121,0,0,0-2.118,2.118v3.718h-3.2V66.338a5.324,5.324,0,0,1,5.318-5.318h55.773a5.324,5.324,0,0,1,5.318,5.318Z" transform="translate(-14.954 -15.189)" fill="#0391a2"/><path d="M1.6,22.31H-1.6V0H1.6Z" transform="translate(109.905 21.402)" fill="#0391a2"/><path d="M1.6,22.31H-1.6V0H1.6Z" transform="translate(46.695 21.402)" fill="#0391a2"/><path d="M147.629,27.065a3.718,3.718,0,1,0-3.718,3.718,3.718,3.718,0,0,0,3.718-3.718" transform="translate(-34.005 -5.663)" fill="#f7bd13"/><path d="M56.74,27.065a3.718,3.718,0,1,1,3.718,3.718,3.718,3.718,0,0,1-3.718-3.718" transform="translate(-13.763 -5.663)" fill="#f7bd13"/><path d="M62.776,38.688l0,0-2.263-2.263a28.493,28.493,0,0,1,7.906-4.973,50.457,50.457,0,0,1,10.141-3.3,73.208,73.208,0,0,1,29.38,0,50.456,50.456,0,0,1,10.141,3.3,28.49,28.49,0,0,1,7.905,4.973l-2.263,2.263,0,0a26.385,26.385,0,0,0-7.154-4.41c-4.5-2.017-12.2-4.422-23.323-4.422s-18.825,2.4-23.323,4.422A26.388,26.388,0,0,0,62.776,38.688Z" transform="translate(-14.954 -6.854)" fill="#0391a2"/><path d="M1.6,20.451H-1.6V0H1.6Z" transform="translate(78.3 21.402)" fill="#0391a2"/><path d="M1.6,13.014H-1.6V0H1.6Z" transform="translate(89.455 23.261)" fill="#0391a2"/><path d="M1.6,13.014H-1.6V0H1.6Z" transform="translate(67.145 23.261)" fill="#0391a2"/><path d="M1.6,11.155H-1.6V0H1.6Z" transform="translate(100.61 25.12)" fill="#0391a2"/><path d="M1.6,11.155H-1.6V0H1.6Z" transform="translate(55.99 25.12)" fill="#0391a2"/><path d="M143.462,47.819h-3.2V3.2H30.309V47.819h-3.2V0H143.462Z" transform="translate(-6.964 -0.388)" fill="#0391a2"/></g></g></g></svg>