<svg xmlns="http://www.w3.org/2000/svg" xmlns:xlink="http://www.w3.org/1999/xlink" width="84.983" height="84.983" viewBox="0 0 84.983 84.983"><defs><clipPath id="a"><rect width="84.983" height="84.983" fill="none" stroke="#0391a2" stroke-width="1"/></clipPath></defs><g clip-path="url(#a)"><path d="M-1.6-1.6H84.137V84.137H-1.6ZM80.937,1.6H1.6V80.937H80.937Z" transform="translate(1.223 1.223)" fill="#0391a2"/><path d="M1.6,82.537H-1.6V0H1.6Z" transform="translate(42.491 1.223)" fill="#0391a2"/><path d="M1.6,82.537H-1.6V0H1.6Z" transform="translate(21.857 1.223)" fill="#0391a2"/></g><path d="M1.6,15.006H-1.6V0H1.6Z" transform="translate(29.36 34.988)" fill="#f7bd13"/><path d="M15.006,1.6H0V-1.6H15.006Z" transform="translate(55.622 65.001)" fill="#f7bd13"/><path d="M1.6,15.006H-1.6V0H1.6Z" transform="translate(14.354 34.988)" fill="#f7bd13"/><g clip-path="url(#a)"><path d="M41.269,1.6H0V-1.6H41.269Z" transform="translate(42.491 57.498)" fill="#0391a2"/><path d="M83.043,22.673h-3.2V20.24a3.132,3.132,0,0,1,2.232-3.012,2.152,2.152,0,1,0-2.783-2.058h-3.2a5.351,5.351,0,1,1,6.952,5.108Z" transform="translate(-18.317 -2.692)" fill="#f7bd13"/><path d="M77.97,24.313l14.8,8.25a3.363,3.363,0,0,1,1.644,3.98A3.644,3.644,0,0,1,90.89,39H65.051a3.644,3.644,0,0,1-3.53-2.457,3.365,3.365,0,0,1,1.645-3.98ZM90.89,35.8a.516.516,0,0,0,.484-.238c.021-.065-.063-.152-.156-.2L77.97,27.977,64.723,35.358c-.093.052-.177.139-.156.205a.517.517,0,0,0,.483.236Z" transform="translate(-14.845 -6.164)" fill="#f7bd13"/></g></svg>