<svg xmlns="http://www.w3.org/2000/svg" xmlns:xlink="http://www.w3.org/1999/xlink" width="91.564" height="112.055" viewBox="0 0 91.564 112.055"><defs><clipPath id="a"><rect width="91.564" height="112.055" transform="translate(0 0)" fill="none" stroke="#0391a2" stroke-width="1"/></clipPath></defs><g clip-path="url(#a)"><path d="M45.781,0A26.152,26.152,0,0,1,55.959,50.236,26.152,26.152,0,0,1,35.6,2.056,25.982,25.982,0,0,1,45.781,0Zm0,49.091A22.946,22.946,0,1,0,22.836,26.146,22.972,22.972,0,0,0,45.781,49.092Z" fill="#0391a2"/><path d="M32.655,26.146h-3.2A16.345,16.345,0,0,1,45.782,9.819v3.2A13.142,13.142,0,0,0,32.655,26.146Z" fill="#f7bd13"/><path d="M9.818,1.6H0V-1.6H9.818Z" transform="translate(70.327 26.146)" fill="#0391a2"/><path d="M9.818,1.6H0V-1.6H9.818Z" transform="translate(11.418 26.146)" fill="#0391a2"/><path d="M1.6,49.091H-1.6V0H1.6Z" transform="translate(80.146 11.419)" fill="#0391a2"/><path d="M1.6,49.091H-1.6V0H1.6Z" transform="translate(11.418 11.419)" fill="#0391a2"/><path d="M-1.6-1.6H89.964V21.236H-1.6ZM86.764,1.6H1.6V18.036H86.764Z" transform="translate(1.6 60.51)" fill="#0391a2"/><path d="M1.6,19.636H-1.6V0H1.6Z" transform="translate(70.327 60.509)" fill="#0391a2"/><path d="M1.6,19.636H-1.6V0H1.6Z" transform="translate(21.236 60.509)" fill="#0391a2"/><path d="M24.546,1.6H0V-1.6H24.546Z" transform="translate(35.964 70.328)" fill="#f7bd13"/><path d="M1.6,21.909H-1.6V0H1.6Z" transform="translate(89.964 80.146)" fill="#0391a2"/><path d="M1.6,31.909H-1.6V0H1.6Z" transform="translate(1.6 70.146)" fill="#0391a2"/></g></svg>