<svg xmlns="http://www.w3.org/2000/svg" xmlns:xlink="http://www.w3.org/1999/xlink" width="389.064" height="353" viewBox="0 0 389.064 353"><defs><clipPath id="a"><rect width="353" height="353" transform="translate(0 0)" fill="#fff"/></clipPath><clipPath id="b"><rect width="114.805" height="112.15" fill="#fff"/></clipPath></defs><g transform="translate(-960 -384)"><g transform="translate(960 384)"><g transform="translate(0 0)" clip-path="url(#a)"><path d="M124.7,227.942A167.489,167.489,0,0,1,116.449,0,180.624,180.624,0,0,0,53.462,41.039c-71.283,71.279-71.283,186.9,0,258.138,71.274,71.279,186.9,71.279,258.138,0a180.072,180.072,0,0,0,41.035-62.992A167.478,167.478,0,0,1,124.7,227.942" transform="translate(-0.001 -0.002)" fill="#fff"/></g></g><g transform="translate(1064.282 488.54)"><path d="M70.214,70.686a7.5,7.5,0,0,1-7.5-7.5V35.033A27.607,27.607,0,0,0,7.5,34.908V63.185a7.5,7.5,0,0,1-7.5,7.5,7.5,7.5,0,0,1-7.5-7.5V35.033a42.607,42.607,0,0,1,85.214,0V63.185A7.5,7.5,0,0,1,70.214,70.686Z" transform="translate(42.214 0)" fill="#6ebe44"/><path d="M120.807,132.554H31.945C13.745,132.554-1,118.545-1,101.265L6.738,31.289C6.738,14.008,21.483,0,39.683,0h73.387c18.2,0,32.945,14.008,32.945,31.289l7.738,69.976C153.752,118.545,139.006,132.554,120.807,132.554Z" transform="translate(1 41.545)" fill="#6ebe44"/><path d="M120.807,140.054H31.945c-22.3,0-40.445-17.4-40.445-38.789l7.783-70.8C-.762,9.9,17.381-7.5,39.683-7.5h73.387c22.3,0,40.445,17.4,40.445,38.789l7.692,69.151C161.252,122.653,143.108,140.054,120.807,140.054ZM39.683,7.5c-14.03,0-25.445,10.672-25.445,23.789l-7.783,70.8c.045,12.293,11.46,22.965,25.49,22.965h88.862c14.03,0,25.445-10.672,25.445-23.789L138.56,32.113C138.514,18.172,127.1,7.5,113.069,7.5Z" transform="translate(1 41.545)" fill="#6ebe44"/></g><path d="M1516.368,209.638h0a58.935,58.935,0,1,0-58.935-58.934,58.935,58.935,0,0,0,58.935,58.934" transform="translate(-449.817 483.822)" fill="#ffca1f"/><path d="M16.515,40.126l-15.8-15.8a2.431,2.431,0,0,1,0-3.438L4.15,17.446a2.431,2.431,0,0,1,3.438,0L18.235,28.091l22.8-22.8a2.431,2.431,0,0,1,3.438,0l3.438,3.438a2.431,2.431,0,0,1,0,3.438l-27.96,27.96A2.431,2.431,0,0,1,16.515,40.126Z" transform="translate(1041.918 612.028)" fill="#fff"/><g transform="translate(1234.259 403.571)"><g transform="translate(0 0)" clip-path="url(#b)"><path d="M29.777,84.94l4.19,13.805,4.19-13.805A23.971,23.971,0,0,1,54.13,68.968l13.805-4.19L54.13,60.587A23.971,23.971,0,0,1,38.158,44.615L33.968,30.81l-4.19,13.805A23.971,23.971,0,0,1,13.805,60.587L0,64.792l13.805,4.19A23.923,23.923,0,0,1,29.777,84.94" transform="translate(0 13.404)" fill="#fff"/><path d="M74.021,9,71.294,0,68.568,9a15.574,15.574,0,0,1-10.39,10.39l-9,2.727,9,2.727a15.574,15.574,0,0,1,10.39,10.39l2.727,9,2.727-9a15.574,15.574,0,0,1,10.39-10.39l9-2.727-9-2.727A15.517,15.517,0,0,1,74.021,9" transform="translate(21.396 0)" fill="#fff"/><path d="M74.41,57.761a7.722,7.722,0,0,1-5.152-5.152L67.909,48.16l-1.349,4.449a7.722,7.722,0,0,1-5.152,5.152L56.96,59.109l4.449,1.349a7.722,7.722,0,0,1,5.152,5.152l1.349,4.449,1.349-4.449a7.722,7.722,0,0,1,5.152-5.152l4.449-1.349Z" transform="translate(24.781 20.952)" fill="#fff"/><path d="M36.288,19.716l-.861-2.856-.861,2.856a4.969,4.969,0,0,1-3.3,3.3l-2.856.861,2.856.861a4.969,4.969,0,0,1,3.3,3.3l.861,2.856.861-2.856a4.969,4.969,0,0,1,3.3-3.3l2.856-.861-2.856-.861a4.941,4.941,0,0,1-3.3-3.3" transform="translate(12.36 7.335)" fill="#fff"/></g></g></g></svg>