<svg xmlns="http://www.w3.org/2000/svg" width="184" height="179" viewBox="0 0 184 179"><g transform="translate(-374 -675)"><circle cx="53.5" cy="53.5" r="53.5" transform="translate(374 747)" fill="#ffca1f"/><g transform="translate(20)"><rect width="147" height="147" rx="32" transform="translate(391 688)" fill="#fff"/><path d="M32,12A20.023,20.023,0,0,0,12,32v83a20.023,20.023,0,0,0,20,20h83a20.023,20.023,0,0,0,20-20V32a20.023,20.023,0,0,0-20-20H32M32,0h83a32,32,0,0,1,32,32v83a32,32,0,0,1-32,32H32A32,32,0,0,1,0,115V32A32,32,0,0,1,32,0Z" transform="translate(391 688)" fill="#6ebe44"/><rect width="15" height="40" rx="7.5" transform="translate(430 675)" fill="#ffca1f"/><rect width="15" height="40" rx="7.5" transform="translate(482 675)" fill="#ffca1f"/><circle cx="10" cy="10" r="10" transform="translate(425 751)" fill="#0391a2"/><circle cx="10" cy="10" r="10" transform="translate(425 778)" fill="#0391a2"/><circle cx="10" cy="10" r="10" transform="translate(454 751)" fill="#0391a2"/><circle cx="10" cy="10" r="10" transform="translate(454 778)" fill="#0391a2"/><circle cx="10" cy="10" r="10" transform="translate(481 751)" fill="#0391a2"/><circle cx="10" cy="10" r="10" transform="translate(481 778)" fill="#0391a2"/><rect width="76" height="16" rx="8" transform="translate(425 725)" fill="#005d5c"/></g></g></svg>