<svg xmlns="http://www.w3.org/2000/svg" width="94.402" height="109.956" viewBox="0 0 94.402 109.956"><path d="M28.182,0H40.04V-107.8H31.724c-2.772,7.546-6.776,13.86-18.48,14.322v9.856a32.243,32.243,0,0,0,14.938-4.62ZM82.236-108.878c-16.632,0-25.41,10.01-25.41,26.642v3.388c0,10.934,3.7,18.788,12.474,22.176-9.086,3.7-12.474,11.858-12.474,22.792v8.008c0,16.632,8.624,26.95,25.41,26.95s25.41-10.318,25.41-26.95V-33.88c0-10.78-3.388-19.25-12.32-22.792,8.47-3.234,12.32-11.242,12.32-22.176v-3.388C107.646-98.868,98.868-108.878,82.236-108.878Zm0,10.78c8.47,0,13.552,5.082,13.552,16.17v5.236c0,10.472-5.082,15.092-13.552,15.092S68.684-66.22,68.684-76.692v-5.236C68.684-93.016,73.766-98.1,82.236-98.1Zm0,47.278c8.932,0,13.552,5.082,13.552,15.554v9.086C95.634-15.092,90.86-9.856,82.236-9.856S68.684-15.092,68.684-26.18v-9.086C68.684-45.738,73.3-50.82,82.236-50.82Z" transform="translate(-13.244 108.878)"/></svg>