<svg xmlns="http://www.w3.org/2000/svg" width="170.96" height="230.284" viewBox="0 0 170.96 230.284"><g transform="translate(-1606.04 -647.716)"><path d="M2025.829,422.475h0a66.393,66.393,0,0,0,66.393-66.391h0a66.393,66.393,0,0,0-132.786,0h0a66.392,66.392,0,0,0,66.393,66.391" transform="translate(-353.396 358.025)" fill="#ffca1f"/><g transform="translate(-137.652 -120)"><rect width="137" height="148" rx="16" transform="translate(1777.653 803)" fill="#fff"/><path d="M16,12a4,4,0,0,0-4,4V132a4,4,0,0,0,4,4H121a4,4,0,0,0,4-4V16a4,4,0,0,0-4-4H16M16,0H121a16,16,0,0,1,16,16V132a16,16,0,0,1-16,16H16A16,16,0,0,1,0,132V16A16,16,0,0,1,16,0Z" transform="translate(1777.653 803)" fill="#005d5c"/><ellipse cx="29" cy="28" rx="29" ry="28" transform="translate(1817.653 914)" fill="#6ebe44"/><path d="M107.556,95.092h27.23a5.836,5.836,0,0,0,0-11.672h-27.23a5.836,5.836,0,1,0,0,11.672" transform="translate(1724.933 766.632)" fill="#0391a2"/><path d="M70.416,162.522h52.517a5.836,5.836,0,1,0,0-11.672H70.416a5.836,5.836,0,1,0,0,11.672" transform="translate(1749.073 722.154)" fill="#0391a2"/><path d="M40,40h-.226l-20-20L0,39.774V0H40Z" transform="translate(1826.653 958)" fill="#6ebe44"/><ellipse cx="13.5" cy="14.5" rx="13.5" ry="14.5" transform="translate(1832.653 928)" fill="#ffca1f"/></g></g></svg>