<svg xmlns="http://www.w3.org/2000/svg" width="166.432" height="79.968" viewBox="0 0 166.432 79.968"><path d="M22.064-79.184c-12.1,0-17.584,7.952-17.584,19.936v6.384h8.176v-6.944c0-6.944,2.8-11.536,9.184-11.536,6.5,0,9.184,4.256,9.184,12.32C31.024-36.96,4.48-32.032,4.48-6.72V0H38.864V-7.952H13.1V-9.184C13.216-27.216,39.76-35.728,39.76-59.36,39.76-71.344,34.272-79.184,22.064-79.184ZM47.152-19.04C47.152-7.056,53.088.784,65.072.784,77.168.784,83.1-7.056,83.1-19.04V-59.472c0-11.984-5.936-19.712-18.032-19.712-11.984,0-17.92,7.728-17.92,19.712Zm8.624-40.88c0-7.168,3.024-11.424,9.3-11.424,6.384,0,9.3,4.256,9.3,11.424v41.44c0,7.056-2.912,11.312-9.3,11.312-6.272,0-9.3-4.256-9.3-11.312ZM90.72-19.04C90.72-7.056,96.656.784,108.64.784c12.1,0,18.032-7.84,18.032-19.824V-59.472c0-11.984-5.936-19.712-18.032-19.712-11.984,0-17.92,7.728-17.92,19.712Zm8.624-40.88c0-7.168,3.024-11.424,9.3-11.424,6.384,0,9.3,4.256,9.3,11.424v41.44c0,7.056-2.912,11.312-9.3,11.312-6.272,0-9.3-4.256-9.3-11.312Zm53.088-19.264c-12.1,0-18.48,7.28-18.48,19.376v2.464c0,7.952,2.688,13.664,9.072,16.128-6.608,2.688-9.072,8.624-9.072,16.576v5.824c0,12.1,6.272,19.6,18.48,19.6s18.48-7.5,18.48-19.6V-24.64c0-7.84-2.464-14-8.96-16.576,6.16-2.352,8.96-8.176,8.96-16.128v-2.464C170.912-71.9,164.528-79.184,152.432-79.184Zm0,7.84c6.16,0,9.856,3.7,9.856,11.76v3.808c0,7.616-3.7,10.976-9.856,10.976s-9.856-3.36-9.856-10.976v-3.808C142.576-67.648,146.272-71.344,152.432-71.344Zm0,34.384c6.5,0,9.856,3.7,9.856,11.312v6.608c-.112,8.064-3.584,11.872-9.856,11.872s-9.856-3.808-9.856-11.872v-6.608C142.576-33.264,145.936-36.96,152.432-36.96Z" transform="translate(-4.48 79.184)"/></svg>