<svg xmlns="http://www.w3.org/2000/svg" xmlns:xlink="http://www.w3.org/1999/xlink" width="67.884" height="61.68" viewBox="0 0 67.884 61.68"><defs><clipPath id="a"><rect width="67.884" height="61.68" fill="none"/></clipPath></defs><g clip-path="url(#a)"><path d="M68.158,193.659a5.365,5.365,0,0,0-2.219.486V193.6a7.993,7.993,0,0,0-7.986-7.993H22.786a7.993,7.993,0,0,0-7.965,7.993v.457a5.414,5.414,0,0,0-4.118,10v12.907a.693.693,0,0,0,.693.693h3.355l-1.8,5.747a.693.693,0,0,0,.693.9h4.443a.693.693,0,0,0,.589-.326l3.958-6.329H57.447l3.958,6.329h0a.692.692,0,0,0,.589.326h4.444a.693.693,0,0,0,.693-.9l-1.8-5.761h4.249a.693.693,0,0,0,.693-.693V204.065a5.414,5.414,0,0,0-2.08-10.4ZM16.208,193.6a6.606,6.606,0,0,1,6.6-6.6H57.954a6.605,6.605,0,0,1,6.6,6.6v1.456h0a5.441,5.441,0,0,0-1.788,3.744v6.17H18.184v-6.239a5.4,5.4,0,0,0-1.976-3.861ZM62.75,210.172H18.19v-3.813H62.75ZM17.691,222.941H14.558l1.65-5.275H20.97Zm47.832,0H62.376l-3.293-5.268h4.763Zm3.854-20.02h0a.694.694,0,0,0-.492.693v12.665H12.09v-12.7a.693.693,0,0,0-.492-.693,4.028,4.028,0,1,1,5.2-4.16V210.8a.693.693,0,0,0,.693.693H63.444a.694.694,0,0,0,.693-.693V198.768a4.021,4.021,0,1,1,5.2,4.083Z" transform="translate(-6.632 -162.634)" fill="#0391a2"/><path d="M.866,20.805a.867.867,0,0,1-.422-1.624L34.95,0,67.457,19.192a.867.867,0,1,1-.881,1.492L34.924,2,1.286,20.7A.863.863,0,0,1,.866,20.805Z" transform="translate(0.001 0)" fill="#f7b905"/></g></svg>