<svg xmlns="http://www.w3.org/2000/svg" width="54.788" height="54.791" viewBox="0 0 54.788 54.791"><g transform="translate(0.25 0.25)"><path d="M26.4,53.79a7.408,7.408,0,0,1-5.256-2.169L19.06,49.542a5.492,5.492,0,0,0-3.839-1.585H12.285a7.461,7.461,0,0,1-7.452-7.452V37.569a5.47,5.47,0,0,0-1.586-3.837L1.2,31.678A7.451,7.451,0,0,1,1.169,21.14l2.079-2.081a5.422,5.422,0,0,0,1.585-3.842V12.286a7.462,7.462,0,0,1,7.452-7.455h2.936a5.419,5.419,0,0,0,3.841-1.584l2.049-2.052A7.454,7.454,0,0,1,31.63,1.149l.005,0,.043.04,2.055,2.055a5.407,5.407,0,0,0,3.839,1.582H40.5a7.463,7.463,0,0,1,7.455,7.455v2.931a5.422,5.422,0,0,0,1.584,3.844L51.6,21.113a7.464,7.464,0,0,1,.028,10.538l-2.082,2.082a5.468,5.468,0,0,0-1.582,3.836v2.936A7.462,7.462,0,0,1,40.5,47.957H37.571a5.41,5.41,0,0,0-3.84,1.586l-2.053,2.051A7.394,7.394,0,0,1,26.4,53.79ZM12.285,6.831a5.46,5.46,0,0,0-5.452,5.455v2.931A7.411,7.411,0,0,1,4.665,20.47l-2.08,2.083a5.451,5.451,0,0,0,.024,7.71l2.054,2.057a7.485,7.485,0,0,1,2.17,5.25v2.936a5.458,5.458,0,0,0,5.452,5.452h2.936a7.408,7.408,0,0,1,5.25,2.168l2.08,2.08a5.451,5.451,0,0,0,7.709-.024l2.057-2.055a7.4,7.4,0,0,1,5.252-2.17H40.5a5.46,5.46,0,0,0,5.455-5.452V37.569a7.483,7.483,0,0,1,2.167-5.249l2.081-2.081a5.461,5.461,0,0,0-.024-7.71l-2.056-2.056a7.412,7.412,0,0,1-2.168-5.256V12.286A5.461,5.461,0,0,0,40.5,6.831H37.571A7.4,7.4,0,0,1,32.32,4.665L30.281,2.626l-.041-.039a5.454,5.454,0,0,0-7.712.02L20.475,4.662a7.409,7.409,0,0,1-5.253,2.168Z" transform="translate(0.75 0.751)" fill="#0391a2"/><path d="M0,14.668,14.668,0" transform="translate(19.812 19.81)" fill="#f7b905"/><path d="M0,15.668a1,1,0,0,1-.707-.293,1,1,0,0,1,0-1.414L13.961-.707a1,1,0,0,1,1.414,0,1,1,0,0,1,0,1.414L.707,15.375A1,1,0,0,1,0,15.668Z" transform="translate(19.812 19.81)" fill="#f7b905"/><path d="M2.14,4.252A2.138,2.138,0,0,1,.628,3.624a2.344,2.344,0,0,1-.457-.713A1.905,1.905,0,0,1,0,2.112a2.047,2.047,0,0,1,.171-.828A2.214,2.214,0,0,1,.628.6,2.208,2.208,0,0,1,3.653.6a2.3,2.3,0,0,1,.485.685,2.651,2.651,0,0,1,.143.828,2.462,2.462,0,0,1-.143.8,2.431,2.431,0,0,1-.485.713,2.138,2.138,0,0,1-1.512.628" transform="translate(32.33 32.374)" fill="#f7b905"/><path d="M2.14,4.254a1.917,1.917,0,0,1-.8-.174,2.336,2.336,0,0,1-.713-.454,2.749,2.749,0,0,1-.457-.713A1.924,1.924,0,0,1,0,2.114a2.037,2.037,0,0,1,.171-.828A1.924,1.924,0,0,1,.628.6,2.2,2.2,0,0,1,3.653.6,2.133,2.133,0,0,1,4.28,2.114a1.9,1.9,0,0,1-.143.8,2.872,2.872,0,0,1-.485.713,2.206,2.206,0,0,1-.685.454,2.05,2.05,0,0,1-.828.174" transform="translate(17.662 17.705)" fill="#f7b905"/></g></svg>