<svg xmlns="http://www.w3.org/2000/svg" xmlns:xlink="http://www.w3.org/1999/xlink" width="17.172" height="15.135" viewBox="0 0 17.172 15.135"><defs><clipPath id="a"><rect width="17.172" height="15.135" fill="#ff6b1f"/></clipPath></defs><g clip-path="url(#a)"><path d="M.983,15.135H16.189a.983.983,0,0,0,.851-1.474L9.437.491h0a.983.983,0,0,0-1.7,0L.132,13.661h0a.983.983,0,0,0,.851,1.474Zm7.6-1.825h0a.97.97,0,1,1,.686-.284.97.97,0,0,1-.686.284Zm0-9.377a1.051,1.051,0,0,1,1.05,1.1L9.443,9.537a.858.858,0,0,1-1.714,0L7.537,5.028a1.051,1.051,0,0,1,1.05-1.1" transform="translate(0 0)" fill="#ff6b1f"/></g></svg>