<svg xmlns="http://www.w3.org/2000/svg" width="28" height="21" viewBox="0 0 28 21"><g transform="translate(-1540 -904.381)"><path d="M28,4.981A4.985,4.985,0,0,0,23.016,0H4.986A4.985,4.985,0,0,0,0,4.981Z" transform="translate(1539.999 904.38)" fill="#fff"/><path d="M0,49.224V57.19a4.985,4.985,0,0,0,4.985,4.986H23.015A4.985,4.985,0,0,0,28,57.19V49.224Zm16.246,7.89a1.414,1.414,0,0,1-1.414,1.414H6.014a1.414,1.414,0,0,1,0-2.828h8.818A1.414,1.414,0,0,1,16.246,57.114Z" transform="translate(1540 863.205)" fill="#fff"/></g></svg>