<svg xmlns="http://www.w3.org/2000/svg" xmlns:xlink="http://www.w3.org/1999/xlink" width="70.5" height="29.924" viewBox="0 0 70.5 29.924"><defs><clipPath id="a"><rect width="56" height="29.265" fill="none"/></clipPath></defs><g transform="translate(-282.5 -327)"><g transform="translate(282.5 327.66)"><g transform="translate(0 0)" clip-path="url(#a)"><path d="M50.873,8.6a4.9,4.9,0,0,1,1.081-.107c5.2.015,5.12,6.95,1.3,7.347-.4,3.36-.884,6.736-1.356,10.1a2.073,2.073,0,0,1-1.1,1.573v1.756H45.92V27.737H10.065v1.527H5.2V27.508a2.128,2.128,0,0,1-1.113-1.573c-.472-3.36-.945-6.736-1.341-10.1-3.825-.4-3.9-7.332,1.3-7.347A5.1,5.1,0,0,1,5.128,8.6a1.57,1.57,0,0,1,.534-.947C11.574,2.306,20.168,0,28,0c7.817,0,16.426,2.306,22.339,7.652a1.57,1.57,0,0,1,.534.947M46.987,27.493H49.73v.7H46.987Zm2.743-.825H6.164A.994.994,0,0,1,5.159,25.8c-.412-2.887-.976-6.874-1.356-10.127a1.023,1.023,0,0,0-.93-.9c-2.5-.23-2.7-5.193,1.174-5.209a3.072,3.072,0,0,1,3.261,3.024V17.32a7.808,7.808,0,0,0,.214,1.558A2.012,2.012,0,0,0,9.5,20.436h37a2.037,2.037,0,0,0,1.981-1.558,7.74,7.74,0,0,0,.2-1.558V12.585a3.093,3.093,0,0,1,3.276-3.024c3.871.015,3.673,4.979,1.158,5.209a1.009,1.009,0,0,0-.914.9c-.381,3.253-.945,7.24-1.356,10.127a1.017,1.017,0,0,1-1.006.871Zm-43.458.825H9v.7H6.271Zm40.99-12.464H29.021a.612.612,0,0,0-.609.611V19a.612.612,0,0,0,.609.611H46.5a1.259,1.259,0,0,0,1.189-1.085,9.29,9.29,0,0,0,.183-1.588v-1.3a.613.613,0,0,0-.61-.611M28,1.069h0c-8.808,0-16.656,2.887-21.623,7.377a.578.578,0,0,0-.214.5.606.606,0,0,0,.274.458A3.784,3.784,0,0,1,8.13,12.555c.015.351.015.687.015,1.039a.612.612,0,0,0,.61.611H47.231a.616.616,0,0,0,.625-.611c0-.351,0-.687.015-1.039a3.809,3.809,0,0,1,1.676-3.146.61.61,0,0,0,.076-.962C44.64,3.956,36.808,1.069,28,1.069M26.98,15.029H8.74a.613.613,0,0,0-.61.611c-.015.428-.015.871,0,1.3a7.963,7.963,0,0,0,.183,1.588A1.246,1.246,0,0,0,9.5,19.612H26.98a.612.612,0,0,0,.61-.611V15.64a.612.612,0,0,0-.61-.611" transform="translate(0 0)" fill="#48463d" fill-rule="evenodd"/></g></g><circle cx="13.5" cy="13.5" r="13.5" transform="translate(326 327)" fill="#fff"/><path d="M13.5,1A12.5,12.5,0,0,0,4.661,22.339,12.5,12.5,0,1,0,22.339,4.661,12.418,12.418,0,0,0,13.5,1m0-1A13.5,13.5,0,1,1,0,13.5,13.5,13.5,0,0,1,13.5,0Z" transform="translate(326 327)" fill="#48463d"/><text transform="translate(333 346)" fill="#48463d" font-size="13" font-family="SuisseIntl-Book, Suisse Intl"><tspan x="0" y="0">%</tspan></text></g></svg>