<svg xmlns="http://www.w3.org/2000/svg" width="31.955" height="16" viewBox="0 0 31.955 16"><g transform="translate(0.5 0.5)"><g transform="translate(0 0)"><path d="M6.624-.5H28.4a3.06,3.06,0,0,1,3.059,3.059v9.879A3.06,3.06,0,0,1,28.4,15.5l-21.77,0a3.051,3.051,0,0,1-2.357-1.109L.2,9.446a3.06,3.06,0,0,1,0-3.889L4,.928H4L4.266.609A3.051,3.051,0,0,1,6.624-.5Zm0,15h.008l21.761,0a2.06,2.06,0,0,0,2.059-2.059V2.559A2.06,2.06,0,0,0,28.4.5H6.624a2.054,2.054,0,0,0-1.567.723l-.019.023L.97,6.192a2.06,2.06,0,0,0,0,2.619l4.07,4.944A2.053,2.053,0,0,0,6.626,14.5Z" transform="translate(0 0)" fill="#e23f4c"/></g></g></svg>