<svg xmlns="http://www.w3.org/2000/svg" width="202.597" height="51" viewBox="0 0 202.597 51"><g transform="translate(0.5 0.5)"><path d="M22.254-.5H193a9.078,9.078,0,0,1,6.431,2.645A8.94,8.94,0,0,1,202.1,8.53V41.461a8.94,8.94,0,0,1-2.667,6.386A9.077,9.077,0,0,1,193,50.491L22.263,50.5a9.1,9.1,0,0,1-7.01-3.272L1.576,30.746a8.981,8.981,0,0,1,0-11.485L14.985,3.087h0l.26-.314A9.1,9.1,0,0,1,22.254-.5Zm.009,50h.032L193,49.491a8.083,8.083,0,0,0,5.727-2.355,7.947,7.947,0,0,0,2.372-5.676V8.53a7.946,7.946,0,0,0-2.372-5.676A8.084,8.084,0,0,0,193,.5H22.255a8.105,8.105,0,0,0-6.177,2.836l-.063.077L2.345,19.9a7.981,7.981,0,0,0,0,10.208l13.676,16.48A8.1,8.1,0,0,0,22.263,49.5Z" transform="translate(0 0)" fill="#6ebe44"/><path d="M141.734,120.566a4.45,4.45,0,0,1-3.163-1.308l-.856-.854h.185a4.453,4.453,0,0,1-.643-2.312,4.478,4.478,0,1,1,4.478,4.474Zm-2.433-1.992a3.456,3.456,0,0,0,2.433.992,3.477,3.477,0,1,0-3.478-3.475,3.457,3.457,0,0,0,1.021,2.459Z" transform="translate(-113.403 -91.089)" fill="#6ebe44"/><path d="M147.956,133.009a10.7,10.7,0,0,1-7.558-3.125l-.856-.854h.088a10.713,10.713,0,0,1-2.373-6.713,10.7,10.7,0,1,1,10.7,10.692Zm-6.792-3.774a9.64,9.64,0,0,0,6.792,2.774,9.7,9.7,0,1,0-9.7-9.692,9.643,9.643,0,0,0,2.848,6.86Z" transform="translate(-119.625 -97.311)" fill="#6ebe44"/></g></svg>