<svg xmlns="http://www.w3.org/2000/svg" width="20.538" height="20" viewBox="0 0 20.538 20"><g transform="translate(-0.022 -0.021)"><path d="M8.569,19.25H3.684A4.44,4.44,0,0,1-.75,14.815V3.685A4.44,4.44,0,0,1,3.684-.75H8.559a4.44,4.44,0,0,1,4.435,4.435v.933a.75.75,0,0,1-1.5,0V3.685A2.938,2.938,0,0,0,8.559.75H3.684A2.938,2.938,0,0,0,.75,3.685v11.13A2.938,2.938,0,0,0,3.684,17.75H8.569a2.928,2.928,0,0,0,2.925-2.924v-.943a.75.75,0,0,1,1.5,0v.943A4.43,4.43,0,0,1,8.569,19.25Z" transform="translate(0.772 0.771)"/><path d="M12.041,1.25H0A.75.75,0,1,1,0-.25H12.041a.75.75,0,0,1,0,1.5Z" transform="translate(7.768 9.521)"/><path d="M0,6.581A.748.748,0,0,1-.531,6.36a.75.75,0,0,1,0-1.061L1.865,2.915-.529.532a.75.75,0,0,1,0-1.061.75.75,0,0,1,1.061,0L3.457,2.383a.75.75,0,0,1,0,1.063L.529,6.362A.748.748,0,0,1,0,6.581Z" transform="translate(16.881 7.106)"/></g></svg>