<svg xmlns="http://www.w3.org/2000/svg" xmlns:xlink="http://www.w3.org/1999/xlink" width="197.934" height="46.939" viewBox="0 0 197.934 46.939"><defs><clipPath id="a"><rect width="197.934" height="46.939" fill="none"/></clipPath></defs><g clip-path="url(#a)"><path d="M164.479,118.017c-.144.02-.291.034-.439.04s-.313.01-.493.01a2.97,2.97,0,0,1-.993-.159,2.019,2.019,0,0,1-.784-.5,2.356,2.356,0,0,1-.52-.862,3.72,3.72,0,0,1-.189-1.261,2.944,2.944,0,0,1,.73-2.144,2.631,2.631,0,0,1,1.973-.747c.09,0,.209,0,.358.01a2.261,2.261,0,0,1,.358.04V111.6h1.7v.877a2.658,2.658,0,0,1,.487-.065c.189-.009.342-.015.459-.015a2.82,2.82,0,0,1,.993.169,2.1,2.1,0,0,1,.784.513,2.335,2.335,0,0,1,.513.872,3.788,3.788,0,0,1,.183,1.236,3.481,3.481,0,0,1-.21,1.266,2.628,2.628,0,0,1-.561.9,2.249,2.249,0,0,1-.838.538,2.946,2.946,0,0,1-1.027.179q-.2,0-.412-.015a2.217,2.217,0,0,1-.372-.055v.977h-1.7Zm-.473-1.037c.063,0,.151,0,.264,0a1.378,1.378,0,0,0,.291-.035V113.5c-.072-.007-.153-.012-.243-.015s-.176-.005-.257-.005a1.172,1.172,0,0,0-.939.423,2.719,2.719,0,0,0-.034,2.637,1.075,1.075,0,0,0,.919.438m2.69-3.5c-.072,0-.171,0-.3.01a1.481,1.481,0,0,0-.3.04v3.43a.97.97,0,0,0,.216.019h.27a1.189,1.189,0,0,0,.946-.424,2.066,2.066,0,0,0,.365-1.361,2.247,2.247,0,0,0-.3-1.261,1.013,1.013,0,0,0-.9-.454" transform="translate(-109.176 -75.647)" fill="#0092a5"/><path d="M191.713,117.495h-2.23l-.554,1.595h-1.689l2.744-7.028h1.338l2.757,7.028h-1.784Zm-1.865-1.017h1.568l-.541-1.625-.216-1.1H190.6l-.23,1.106Z" transform="translate(-126.922 -75.962)" fill="#0092a5"/><path d="M210.271,112.216h4.96v1.156h-3.257v1.515q.2-.03.486-.06a5.192,5.192,0,0,1,.554-.03,5.361,5.361,0,0,1,1.162.114,2.464,2.464,0,0,1,.879.369,1.68,1.68,0,0,1,.561.663,2.3,2.3,0,0,1,.2,1,2.052,2.052,0,0,1-.8,1.764,3.963,3.963,0,0,1-2.365.588c-.127,0-.288,0-.487-.01s-.41-.015-.635-.025-.448-.025-.669-.045-.417-.046-.588-.08Zm2.5,5.962a1.479,1.479,0,0,0,.912-.259,1.028,1.028,0,0,0,.345-.877,1.343,1.343,0,0,0-.108-.588.836.836,0,0,0-.291-.339,1.1,1.1,0,0,0-.432-.159,3.512,3.512,0,0,0-.547-.04,3.413,3.413,0,0,0-.372.025,2.84,2.84,0,0,0-.3.044v2.144q.121.02.351.035t.446.015" transform="translate(-142.534 -76.067)" fill="#0092a5"/><path d="M230.242,112.076q.487-.08,1.067-.125t1.163-.045a8.786,8.786,0,0,1,1.223.085,3.284,3.284,0,0,1,1.074.334,2.057,2.057,0,0,1,.771.7,2.125,2.125,0,0,1,.3,1.181,2.307,2.307,0,0,1-.25,1.117,2.144,2.144,0,0,1-.669.747,2.821,2.821,0,0,1-.966.419,4.879,4.879,0,0,1-1.128.13h-.176c-.081,0-.167,0-.257-.005s-.178-.008-.264-.014-.147-.014-.182-.02v2.4h-1.7Zm1.7,3.379a2.01,2.01,0,0,0,.3.035c.149.01.25.015.3.015a2.614,2.614,0,0,0,.567-.06,1.343,1.343,0,0,0,.48-.2,1,1,0,0,0,.331-.4,1.49,1.49,0,0,0,.121-.643,1.237,1.237,0,0,0-.115-.559.945.945,0,0,0-.311-.364,1.31,1.31,0,0,0-.453-.194,2.368,2.368,0,0,0-.54-.06,3.945,3.945,0,0,0-.689.05Z" transform="translate(-156.072 -75.857)" fill="#0092a5"/><path d="M254.727,115.476l.135-.987h-.068l-.513,1.057-2.689,3.649h-1.338v-6.978h1.7v3.649l-.149,1.017h.068l.541-1.087,2.69-3.579h1.325v6.978h-1.7Z" transform="translate(-169.636 -76.067)" fill="#0092a5"/><path d="M275.27,116.2H274.9v2.99h-1.7v-6.978h1.7v3.091l.338-.12,1.987-2.971h1.919l-2.163,2.934-.635.368.649.379,2.5,3.3h-2.081Z" transform="translate(-185.193 -76.067)" fill="#0092a5"/><path d="M296.807,117.495h-2.23l-.554,1.595h-1.689l2.744-7.028h1.338l2.757,7.028h-1.784Zm-1.865-1.017h1.568l-.541-1.625-.216-1.1H295.7l-.23,1.106Z" transform="translate(-198.161 -75.962)" fill="#0092a5"/><path d="M322.753,115.645l-2.095-3.43h2.054l1.095,1.994.257.758.243-.758,1.149-1.994h1.838l-2.163,3.36,2.271,3.619h-1.987l-1.271-2.144-.284-.778-.27.778-1.271,2.144h-1.878Z" transform="translate(-217.215 -76.066)" fill="#0092a5"/><path d="M343.14,115.412a3.944,3.944,0,0,1,.824-2.7,3.193,3.193,0,0,1,2.514-.927,4.069,4.069,0,0,1,1.514.254,2.637,2.637,0,0,1,1.041.728,3.045,3.045,0,0,1,.6,1.146,5.365,5.365,0,0,1,.2,1.5,3.881,3.881,0,0,1-.845,2.7,3.222,3.222,0,0,1-2.507.927,4.064,4.064,0,0,1-1.521-.254,2.639,2.639,0,0,1-1.034-.728,2.969,2.969,0,0,1-.595-1.147,5.531,5.531,0,0,1-.189-1.5m1.784,0a5.576,5.576,0,0,0,.081.982,2.41,2.41,0,0,0,.27.783,1.494,1.494,0,0,0,.48.518,1.3,1.3,0,0,0,.723.189,1.32,1.32,0,0,0,1.176-.588,3.492,3.492,0,0,0,.391-1.884,5.457,5.457,0,0,0-.081-.962,2.582,2.582,0,0,0-.263-.788,1.45,1.45,0,0,0-.48-.528,1.333,1.333,0,0,0-.743-.194q-1.555,0-1.554,2.472" transform="translate(-232.601 -75.773)" fill="#0092a5"/><path d="M367.011,112.076q.487-.08,1.068-.125t1.163-.045a8.782,8.782,0,0,1,1.223.085,3.284,3.284,0,0,1,1.074.334,2.054,2.054,0,0,1,.77.7,2.122,2.122,0,0,1,.3,1.181,2.311,2.311,0,0,1-.25,1.117,2.144,2.144,0,0,1-.669.747,2.826,2.826,0,0,1-.966.419,4.881,4.881,0,0,1-1.128.13h-.176c-.081,0-.167,0-.257-.005s-.178-.008-.263-.014-.147-.014-.182-.02v2.4h-1.7Zm1.7,3.379a2.022,2.022,0,0,0,.3.035c.149.01.25.015.3.015a2.616,2.616,0,0,0,.567-.06,1.346,1.346,0,0,0,.48-.2,1,1,0,0,0,.331-.4,1.489,1.489,0,0,0,.121-.643,1.237,1.237,0,0,0-.115-.559.948.948,0,0,0-.311-.364,1.313,1.313,0,0,0-.453-.194,2.369,2.369,0,0,0-.54-.06,3.95,3.95,0,0,0-.689.05Z" transform="translate(-248.782 -75.857)" fill="#0092a5"/><path d="M386.016,115.412a3.942,3.942,0,0,1,.824-2.7,3.192,3.192,0,0,1,2.514-.927,4.067,4.067,0,0,1,1.514.254,2.632,2.632,0,0,1,1.041.728,3.049,3.049,0,0,1,.6,1.146,5.363,5.363,0,0,1,.2,1.5,3.883,3.883,0,0,1-.845,2.7,3.224,3.224,0,0,1-2.507.927,4.065,4.065,0,0,1-1.521-.254,2.638,2.638,0,0,1-1.033-.728,2.965,2.965,0,0,1-.595-1.147,5.517,5.517,0,0,1-.189-1.5m1.784,0a5.576,5.576,0,0,0,.081.982,2.41,2.41,0,0,0,.27.783,1.5,1.5,0,0,0,.48.518,1.3,1.3,0,0,0,.723.189,1.32,1.32,0,0,0,1.176-.588,3.491,3.491,0,0,0,.392-1.884,5.456,5.456,0,0,0-.081-.962,2.582,2.582,0,0,0-.264-.788,1.444,1.444,0,0,0-.48-.528,1.332,1.332,0,0,0-.743-.194q-1.554,0-1.554,2.472" transform="translate(-261.664 -75.773)" fill="#0092a5"/><path d="M409.888,119.194v-6.978h1.7v5.822H413.2v-5.822h1.7v5.822h1.609v-5.822h1.7v6.978Z" transform="translate(-277.846 -76.067)" fill="#0092a5"/><path d="M439.507,112.216h4.73v1.156H441.21v1.715h2.744v1.156H441.21v1.794h3.082v1.156h-4.784Z" transform="translate(-297.924 -76.067)" fill="#0092a5"/><path d="M462.021,111.826l.135-.987h-.068l-.514,1.057-2.689,3.649h-1.338v-6.978h1.7v3.649l-.149,1.017h.067l.541-1.087,2.69-3.579h1.324v6.978h-1.7Zm-1.946-4.994a.776.776,0,0,0,1.513.01l1.379.15a1.223,1.223,0,0,1-.662.937,3.228,3.228,0,0,1-1.486.289,5.747,5.747,0,0,1-.865-.06,2.5,2.5,0,0,1-.689-.2,1.376,1.376,0,0,1-.486-.369,1.167,1.167,0,0,1-.243-.578Z" transform="translate(-310.152 -72.417)" fill="#0092a5"/><path d="M495.15,115.6l.189-1.336h-.067l-.5,1.2-1.54,2.452h-.568l-1.635-2.462-.5-1.206h-.081l.257,1.346v3.609h-1.608v-6.978h1.636l1.973,3.021.324.867h.054l.311-.888,1.852-3h1.608v6.978h-1.7Z" transform="translate(-331.537 -76.067)" fill="#0092a5"/><path d="M516.952,112.216h4.73v1.156h-3.027v1.715H521.4v1.156h-2.744v1.794h3.082v1.156h-4.784Z" transform="translate(-350.421 -76.067)" fill="#0092a5"/><path d="M534.992,112.216h4.96v1.156h-3.257v1.515q.2-.03.487-.06a5.186,5.186,0,0,1,.554-.03,5.362,5.362,0,0,1,1.162.114,2.461,2.461,0,0,1,.878.369,1.677,1.677,0,0,1,.561.663,2.3,2.3,0,0,1,.2,1,2.051,2.051,0,0,1-.8,1.764,3.963,3.963,0,0,1-2.365.588q-.189,0-.486-.01t-.635-.025q-.338-.015-.669-.045t-.588-.08Zm2.5,5.962a1.48,1.48,0,0,0,.912-.259,1.028,1.028,0,0,0,.344-.877,1.342,1.342,0,0,0-.108-.588.835.835,0,0,0-.29-.339,1.1,1.1,0,0,0-.433-.159,3.507,3.507,0,0,0-.547-.04,3.408,3.408,0,0,0-.371.025,2.849,2.849,0,0,0-.3.044v2.144q.122.02.351.035t.446.015" transform="translate(-362.649 -76.067)" fill="#0092a5"/><path d="M554.962,112.216h4.731v1.156h-3.027v1.715h2.744v1.156h-2.744v1.794h3.082v1.156h-4.785Z" transform="translate(-376.186 -76.067)" fill="#0092a5"/><path d="M575.435,113.372H574q-.095,1.894-.257,3.165a4.438,4.438,0,0,1-.622,1.939,1.6,1.6,0,0,1-.371.394,1.937,1.937,0,0,1-.419.24,2.02,2.02,0,0,1-.426.12,2.489,2.489,0,0,1-.392.035,3.183,3.183,0,0,1-.5-.035,2.187,2.187,0,0,1-.406-.105l.189-1.136a.894.894,0,0,0,.486.005.69.69,0,0,0,.406-.324,2.041,2.041,0,0,0,.284-.643,7.68,7.68,0,0,0,.209-1.092q.088-.668.135-1.585t.074-2.134h4.744v6.978h-1.7Z" transform="translate(-386.793 -76.067)" fill="#0092a5"/><path d="M599.165,115.476l.135-.987h-.068l-.513,1.057-2.69,3.649h-1.338v-6.978h1.7v3.649l-.149,1.017h.068l.541-1.087,2.69-3.579h1.324v6.978h-1.7Z" transform="translate(-403.117 -76.067)" fill="#0092a5"/><path d="M169.162,36.594h-4.61V9.983h11.137l-.045,3.469h-6.528Z" transform="translate(-111.543 -6.767)" fill="#0391a2"/><path d="M207.627,9.983h4.519L215.935,26h.045l1.643-16.022h4.565l-2.876,21.682a5.914,5.914,0,0,1-1.78,3.606,4.982,4.982,0,0,1-3.469,1.324h-3.2V32.532h1.415c.365,0,.593-.182.593-.5a.577.577,0,0,0-.046-.274Z" transform="translate(-140.742 -6.767)" fill="#0391a2"/><path d="M329.366,9.983H336.9V36.594h-4.61V15.278l-3.2,21.316H324.3L321.059,14.73V36.594h-4.61V9.983h8.308l1.963,18.852Z" transform="translate(-214.507 -6.767)" fill="#f7b905"/><path d="M400.771,36.736h-10.5V10.124h10.5v4.063h-5.843v5.934h5.751v3.971h-5.751v8.627h5.843Z" transform="translate(-264.549 -6.863)" fill="#f7b905"/><path d="M437.674,13.9v5.615H440a4.779,4.779,0,0,1,3.7,1.187,5.314,5.314,0,0,1,1.506,3.378,41.624,41.624,0,0,1,.182,5.112c0,2.83-.456,4.747-1.324,5.752-.913,1-1.917,1.506-4.382,1.506h-6.619V9.841h11.959v4.017Zm0,9.951v8.81h1.278c1.05,0,1.6-1.369,1.6-4.108V27.6a8.05,8.05,0,0,0-.411-3.332,1.443,1.443,0,0,0-1.324-.685,2.223,2.223,0,0,0-1.141.274" transform="translate(-293.556 -6.671)" fill="#f7b905"/><path d="M490.8,36.736H480.391V10.124H490.8v4.063h-5.843v5.934h5.751v3.971h-5.751v8.627H490.8Z" transform="translate(-325.637 -6.863)" fill="#f7b905"/><path d="M524.77,10.124h12V36.735h-4.61V14.187H529.38v15.93a16.145,16.145,0,0,1-.32,3.971,3.29,3.29,0,0,1-2.282,2.647,5.351,5.351,0,0,1-1.871.228H522.9V32.445a2.765,2.765,0,0,0,1.6-.274c.183-.183.274-.73.274-1.689Z" transform="translate(-354.451 -6.863)" fill="#f7b905"/><path d="M581.024,10.832v9.631a15.839,15.839,0,0,1,4.473.365c1.6.5,2.556,1.78,2.967,3.834a40.925,40.925,0,0,1,.228,5.523c0,2.83-.365,4.7-1.141,5.66-.821,1.05-1.734,1.6-4.154,1.6H576.46V10.832Zm0,13.694v9.083H582.3c1.05,0,1.6-1.369,1.6-4.108v-.959a8.17,8.17,0,0,0-.411-3.378,1.411,1.411,0,0,0-1.324-.639Z" transform="translate(-390.759 -7.343)" fill="#f7b905"/><path d="M273.1,33.043V10.266H261.282V33.043h-1.369v3.788H274.52V33.043Zm-4.564,0h-2.693V14.055h2.693Z" transform="translate(-176.184 -6.959)" fill="#0391a2"/><path d="M65.633,24.224c5.158,0,1.805,19.472-2.45,19.472H48.611c-1.16,0-1.934-.258-1.805-1.547.645-8,1.548-15.6.645-23.728L47.064,14.3C47.192,11.2,53,8.621,54.027,24.224Z" transform="translate(-31.718 -8.105)" fill="#f7b905"/><path d="M10.059,35.59H12.9V16.118H6.964a21.341,21.341,0,0,1,3.611-5.287A15.773,15.773,0,0,1,13.8,8.252l-.129-1.934V6.189a3.973,3.973,0,0,1,1.805-3.224,3.28,3.28,0,0,1,2.192-.516A4.066,4.066,0,0,1,19.859,3.61,5.865,5.865,0,0,1,21.277,5.8c.645,0,1.29-.129,1.934-.129A17.872,17.872,0,0,1,35.849,36.235a17.21,17.21,0,0,1-12.638,5.287,17.72,17.72,0,0,1-12.637-5.287c-.129-.129-.258-.387-.516-.645M23.47,0A23.336,23.336,0,0,0,0,23.469,23.47,23.47,0,1,0,40.1,6.834,24.05,24.05,0,0,0,23.47,0" transform="translate(0 0.001)" fill="#0391a2"/></g></svg>