<svg xmlns="http://www.w3.org/2000/svg" xmlns:xlink="http://www.w3.org/1999/xlink" width="20.889" height="17.565" viewBox="0 0 20.889 17.565"><defs><clipPath id="a"><rect width="20.889" height="17.565" fill="none"/></clipPath><clipPath id="b"><rect width="20.889" height="17.565" fill="#f7b905"/></clipPath></defs><g transform="translate(-1413.5 -1384)"><g transform="translate(1413.5 1384)" clip-path="url(#a)"><path d="M3.04,0a.481.481,0,0,0-.327.178L.1,3.5a.482.482,0,0,0-.089.408L.725,6.743s0,.005,0,.007A2.145,2.145,0,0,0,2.847,8.308,2.764,2.764,0,0,0,4.242,7.9a2.582,2.582,0,0,0,.5-.4,2.577,2.577,0,0,0,.5.4,2.764,2.764,0,0,0,1.395.408A2.764,2.764,0,0,0,8.041,7.9a2.582,2.582,0,0,0,.5-.4,2.577,2.577,0,0,0,.5.4,2.588,2.588,0,0,0,2.79,0,2.582,2.582,0,0,0,.5-.4,2.577,2.577,0,0,0,.5.4,2.588,2.588,0,0,0,2.79,0,2.579,2.579,0,0,0,.5-.4,2.577,2.577,0,0,0,.5.4,2.764,2.764,0,0,0,1.395.408A2.145,2.145,0,0,0,20.163,6.75s0-.005,0-.007l.712-2.834a.482.482,0,0,0-.089-.408L18.175.178A.482.482,0,0,0,17.8,0H3.04Zm.267.949H17.581l1.862,2.374h-18ZM1.082,4.272h3.19V6.55a1.262,1.262,0,0,1-.519.534,1.921,1.921,0,0,1-.905.275,1.187,1.187,0,0,1-1.2-.831V6.52Zm4.14,0H8.07V6.55a1.262,1.262,0,0,1-.519.534,1.921,1.921,0,0,1-.905.275,1.919,1.919,0,0,1-.905-.275,1.263,1.263,0,0,1-.519-.534Zm3.8,0h2.849V6.55a1.262,1.262,0,0,1-.519.534,1.921,1.921,0,0,1-.905.275,1.919,1.919,0,0,1-.905-.275A1.261,1.261,0,0,1,9.02,6.55Zm3.8,0h2.849V6.55a1.262,1.262,0,0,1-.519.534,1.921,1.921,0,0,1-.905.275,1.919,1.919,0,0,1-.905-.275,1.261,1.261,0,0,1-.519-.534Zm3.8,0h3.19L19.243,6.52v.007a1.187,1.187,0,0,1-1.2.831,1.919,1.919,0,0,1-.905-.275,1.261,1.261,0,0,1-.519-.534Z" transform="translate(0 0)" fill="#0391a2"/></g><g transform="translate(1413.5 1384)" clip-path="url(#b)"><path d="M3.109,9.521A.492.492,0,0,0,2.686,10v6.639a1.221,1.221,0,0,0,.319.875,1.2,1.2,0,0,0,.868.319H17.168a1.212,1.212,0,0,0,.868-.319,1.188,1.188,0,0,0,.319-.861V10a.475.475,0,1,0-.95,0v6.654c0,.153-.03.179-.037.185s-.042.045-.2.045H14.047V10.477A.493.493,0,0,0,13.572,10H7.981a.492.492,0,0,0-.43.475v6.409H3.873c-.158,0-.194-.038-.2-.045s-.037-.038-.037-.2V10a.5.5,0,0,0-.527-.482ZM8.5,10.952h4.6v5.934H8.5Z" transform="translate(-0.077 -0.271)" fill="#f7b905"/></g></g></svg>