<svg xmlns="http://www.w3.org/2000/svg" xmlns:xlink="http://www.w3.org/1999/xlink" width="46" height="46" viewBox="0 0 46 46"><defs><clipPath id="a"><rect width="46" height="46" fill="#0391a2"/></clipPath><clipPath id="b"><rect width="46" height="46" fill="none"/></clipPath></defs><g transform="translate(-1471 -3995)"><g transform="translate(1471 3995)"><g clip-path="url(#a)"><path d="M35.879,4.674a4.961,4.961,0,0,1,3.1,1.8c.956.923,2.038,1.879,2.291,3.066a3,3,0,0,1-.194,1.827L39.583,14.68l.067.135a19.1,19.1,0,0,1,.947,2.307l.012.035c1.14.434,2.281.866,3.414,1.3a2.3,2.3,0,0,1,.262.117,3.115,3.115,0,0,1,1.621,2.548,19.721,19.721,0,0,1-.021,4.031A3.017,3.017,0,0,1,44,27.554l-3.393,1.29A18.91,18.91,0,0,1,39.6,31.287l-.016.033q.749,1.669,1.493,3.335a2.493,2.493,0,0,1,.118.318,3.09,3.09,0,0,1-.629,2.849,19.16,19.16,0,0,1-2.927,2.9,3.019,3.019,0,0,1-3.007.349l-3.312-1.488-.134.067a18.932,18.932,0,0,1-2.307.947l-.035.012q-.651,1.71-1.3,3.415a2.374,2.374,0,0,1-.105.239,3.125,3.125,0,0,1-2.56,1.644,19.966,19.966,0,0,1-4.031-.021A3.02,3.02,0,0,1,18.446,44l-1.29-3.394-.142-.048a19.032,19.032,0,0,1-2.3-.961l-.033-.016c-1.113.5-2.224,1-3.336,1.494a2.359,2.359,0,0,1-.267.1,3.114,3.114,0,0,1-2.948-.656A19.735,19.735,0,0,1,5.292,37.66a3.019,3.019,0,0,1-.365-3.028l1.488-3.312-.067-.135A18.982,18.982,0,0,1,5.4,28.879l-.012-.035q-1.711-.651-3.415-1.3a2.321,2.321,0,0,1-.262-.117A3.131,3.131,0,0,1,.091,24.876a20,20,0,0,1,.021-4.03A3.022,3.022,0,0,1,2,18.447l3.394-1.29.048-.142a19.035,19.035,0,0,1,.962-2.3l.016-.033c-.5-1.113-1-2.226-1.493-3.335a2.368,2.368,0,0,1-.1-.268,3.067,3.067,0,0,1,.613-2.9A23.457,23.457,0,0,1,8.171,5.433,3.712,3.712,0,0,1,9.59,4.724a3,3,0,0,1,1.777.2l3.312,1.488.134-.067A19.05,19.05,0,0,1,17.12,5.4l.035-.012q.651-1.71,1.3-3.415a2.35,2.35,0,0,1,.129-.285,3.119,3.119,0,0,1,2.536-1.6,19.749,19.749,0,0,1,4.031.021A3.005,3.005,0,0,1,27.553,2l1.29,3.394.142.048a18.931,18.931,0,0,1,2.3.961l.033.016c1.113-.5,2.225-1,3.335-1.493a2.136,2.136,0,0,1,.219-.086,2.98,2.98,0,0,1,.373-.1,3.025,3.025,0,0,1,.632-.06Zm-20.721,33a16.931,16.931,0,0,0,3.007,1.245l.261.126a1.264,1.264,0,0,1,.354.449c.486,1.281.957,2.567,1.46,3.841a1.185,1.185,0,0,0,1.037.666,21.843,21.843,0,0,0,3.616-.019,1.065,1.065,0,0,0,.871-.669l.342-.893q.558-1.463,1.114-2.926l.142-.252a3.461,3.461,0,0,1,1.247-.579,16.82,16.82,0,0,0,2.232-.99l.273-.1a1.263,1.263,0,0,1,.568.068c1.249.561,2.493,1.137,3.749,1.683a1.18,1.18,0,0,0,1.2-.262A21.9,21.9,0,0,0,39.177,36.5a1.063,1.063,0,0,0,.155-1.06c-.42-.993-.881-1.97-1.322-2.954l-.189-.422-.172-.382-.077-.279a3.294,3.294,0,0,1,.45-1.245,16.789,16.789,0,0,0,.9-2.324l.126-.26a1.26,1.26,0,0,1,.449-.354c1.28-.487,2.567-.957,3.841-1.46a1.18,1.18,0,0,0,.666-1.037,21.937,21.937,0,0,0-.019-3.616,1.064,1.064,0,0,0-.641-.86c-1-.406-2.015-.77-3.023-1.154l-.432-.165-.392-.149-.252-.142a3.3,3.3,0,0,1-.562-1.2q-.17-.479-.369-.948-.289-.679-.638-1.332l-.1-.273a1.268,1.268,0,0,1,.068-.568c.561-1.249,1.139-2.492,1.684-3.749a1.172,1.172,0,0,0-.262-1.2A21.831,21.831,0,0,0,36.5,6.821a1.064,1.064,0,0,0-1.06-.155c-.993.42-1.97.88-2.954,1.322l-.422.189-.382.172-.279.077a3.465,3.465,0,0,1-1.291-.472q-.506-.239-1.027-.444c-.411-.162-.829-.306-1.251-.435l-.26-.126a1.262,1.262,0,0,1-.354-.45c-.487-1.281-.957-2.567-1.46-3.842a1.174,1.174,0,0,0-1.037-.666,21.843,21.843,0,0,0-3.616.019,1.062,1.062,0,0,0-.871.669l-.341.893Q19.335,5.037,18.779,6.5l-.142.252a3.308,3.308,0,0,1-1.2.562q-.455.161-.9.349c-.469.2-.929.418-1.379.657l-.273.1a1.264,1.264,0,0,1-.568-.068c-1.249-.561-2.492-1.139-3.748-1.684a1.175,1.175,0,0,0-1.2.262A21.839,21.839,0,0,0,6.822,9.5a1.062,1.062,0,0,0-.143,1.089l.39.873q.639,1.429,1.281,2.857l.077.278a3.308,3.308,0,0,1-.45,1.245,16.794,16.794,0,0,0-.9,2.324l-.126.261a1.263,1.263,0,0,1-.45.354c-1.28.487-2.567.957-3.841,1.46a1.176,1.176,0,0,0-.666,1.037,21.878,21.878,0,0,0,.019,3.616,1.066,1.066,0,0,0,.64.86c1,.405,2.015.77,3.024,1.154l.432.165.392.149.252.142a3.458,3.458,0,0,1,.579,1.247,16.873,16.873,0,0,0,.99,2.233l.1.273a1.27,1.27,0,0,1-.068.568c-.561,1.25-1.139,2.492-1.684,3.749a1.176,1.176,0,0,0,.262,1.2A21.919,21.919,0,0,0,9.5,39.178a1.066,1.066,0,0,0,1.09.143q1.865-.832,3.73-1.671l.279-.077.289.01.273.1Z" transform="translate(0 0)" fill="#0391a2"/></g></g><g transform="translate(1471 3995)"><g clip-path="url(#b)"><path d="M21.491,12.807a8.635,8.635,0,0,1,8.492,9.837,8.821,8.821,0,0,1-6.916,7.272,8.835,8.835,0,0,1-9.412-4.735,8.632,8.632,0,0,1,7.668-12.373h.167Zm-.1,1.912a6.887,6.887,0,0,0-5.865,3.519,6.721,6.721,0,0,0,7.263,9.784,6.719,6.719,0,0,0,3.222-11.5,6.791,6.791,0,0,0-4.533-1.8h-.087Z" transform="translate(1.564 1.562)" fill="#f7b905"/></g></g></g></svg>