<svg xmlns="http://www.w3.org/2000/svg" width="35.5" height="42.5" viewBox="0 0 35.5 42.5"><g transform="translate(0 0)"><path d="M8.382-.75H22.927a.75.75,0,0,1,.546.236L34.546,11.265a.75.75,0,0,1,.2.514V32.242a9.878,9.878,0,0,1-2.585,6.6,8.541,8.541,0,0,1-6.318,2.883H8.382A9.213,9.213,0,0,1-.75,32.242V8.325A8.956,8.956,0,0,1,1.977,1.9,9.1,9.1,0,0,1,8.382-.75ZM22.6.75H8.382A7.706,7.706,0,0,0,.75,8.325V32.242a7.729,7.729,0,0,0,7.632,7.981H25.848c4.013,0,7.4-3.655,7.4-7.981V12.076Z" transform="translate(0.75 0.776)" fill="#0391a2"/><path d="M9.64,13.045q-1.482,0-3.887-.005A6.529,6.529,0,0,1-.75,6.519V0A.75.75,0,0,1,0-.75.75.75,0,0,1,.75,0V6.519A5.027,5.027,0,0,0,5.757,11.54c4.267.01,5.963,0,6.128,0a.75.75,0,1,1,.094,1.5C11.861,13.041,11.078,13.045,9.64,13.045Z" transform="translate(22.81 0.75)" fill="#0391a2"/><path d="M12.913,1.25H0A.75.75,0,0,1-.75.5.75.75,0,0,1,0-.25H12.913a.75.75,0,0,1,0,1.5Z" transform="translate(14.241 28.844)" fill="#f7b905"/><path d="M2.9,1.25H0A.75.75,0,1,1,0-.25H2.9a.75.75,0,0,1,0,1.5Z" transform="translate(8.118 28.844)" fill="#f7b905"/><path d="M7.521,1.25H0A.75.75,0,0,1-.75.5.75.75,0,0,1,0-.25H7.521a.75.75,0,1,1,0,1.5Z" transform="translate(14.347 17.787)" fill="#f7b905"/><path d="M2.9,1.25H0A.75.75,0,0,1-.75.5.75.75,0,0,1,0-.25H2.9a.75.75,0,0,1,0,1.5Z" transform="translate(8.118 17.787)" fill="#f7b905"/></g></svg>