<svg xmlns="http://www.w3.org/2000/svg" width="42.498" height="42.5" viewBox="0 0 42.498 42.5"><g transform="translate(0.248 0.25)"><path d="M8.017-.75c.052,0,.1,0,.154,0l.029,0A4.161,4.161,0,0,1,10.7.549l.038.035a41.558,41.558,0,0,1,3.133,3.787,14.628,14.628,0,0,1,2.367,3.8,5,5,0,0,1-.928,3.635c-.627,1.1-.995,1.817-.659,2.766A20.606,20.606,0,0,0,26.277,26.261a2.032,2.032,0,0,0,.7.127,4.358,4.358,0,0,0,2.044-.787,5.735,5.735,0,0,1,2.878-1.011,3.646,3.646,0,0,1,.743.077A14.558,14.558,0,0,1,36.42,27.05,40.346,40.346,0,0,1,40.186,30.2,4.213,4.213,0,0,1,41.5,32.752q0,.018,0,.035c.049,1.406-.748,3.073-2.37,4.956a16.73,16.73,0,0,1-3.056,2.826,6.394,6.394,0,0,1-3.79,1.181,11.287,11.287,0,0,1-4.7-1.2C23.3,38.753,17.5,34.44,12.065,29.012,6.482,23.433,2.244,17.684.434,13.236-1.139,9.751-1.142,6.881.426,4.707A16.468,16.468,0,0,1,3.3,1.574C5.091.032,6.678-.75,8.017-.75Zm.07,1.5h-.07c-.942,0-2.27.7-3.739,1.961a15.053,15.053,0,0,0-2.583,2.8q-.017.029-.037.056C.392,7.3.441,9.612,1.807,12.631l.012.027C3.553,16.929,7.674,22.5,13.125,27.951c5.307,5.3,10.937,9.5,15.059,11.225l.028.012A9.839,9.839,0,0,0,32.29,40.25a4.857,4.857,0,0,0,2.941-.918.75.75,0,0,1,.064-.041A15.507,15.507,0,0,0,38,36.764c1.321-1.533,2.034-2.92,2.008-3.906a2.812,2.812,0,0,0-.9-1.609c-1.391-1.433-6.02-4.922-6.784-5.114a2.105,2.105,0,0,0-.433-.045,4.469,4.469,0,0,0-2.127.81,5.6,5.6,0,0,1-2.8.989,3.561,3.561,0,0,1-1.223-.222l-.028-.011A22.682,22.682,0,0,1,18.182,22.7a22.844,22.844,0,0,1-4.924-7.579l-.011-.028c-.6-1.656.127-2.918.764-4.032a3.673,3.673,0,0,0,.76-2.587c-.184-.753-3.6-5.348-5.053-6.793l-.033-.03A2.786,2.786,0,0,0,8.087.751Z" transform="translate(0.5 0.5)" fill="#0391a2"/><path d="M16.016,16.747a.75.75,0,0,1-.744-.666A17.29,17.29,0,0,0-.083.745.75.75,0,0,1-.745-.083.75.75,0,0,1,.083-.745,18.821,18.821,0,0,1,6.25,1.035a18.849,18.849,0,0,1,5.091,3.626,18.852,18.852,0,0,1,3.632,5.087,18.825,18.825,0,0,1,1.789,6.165.75.75,0,0,1-.662.829A.759.759,0,0,1,16.016,16.747Z" transform="translate(25.483 1.069)" fill="#f7b905"/><path d="M7.957,8.707A.75.75,0,0,1,7.221,8.1,9.282,9.282,0,0,0-.143.736a.75.75,0,0,1-.593-.88.75.75,0,0,1,.88-.593A10.782,10.782,0,0,1,5.725,2.233,10.782,10.782,0,0,1,8.693,7.814a.751.751,0,0,1-.737.894Z" transform="translate(26.042 8.585)" fill="#f7b905"/></g></svg>