<svg xmlns="http://www.w3.org/2000/svg" width="99" height="141" viewBox="0 0 99 141"><g transform="translate(-1777.948 -803.3)"><rect width="99" height="107" rx="16" transform="translate(1777.948 803.3)" fill="#fff"/><path d="M16,10a6.007,6.007,0,0,0-6,6V91a6.007,6.007,0,0,0,6,6H83a6.007,6.007,0,0,0,6-6V16a6.007,6.007,0,0,0-6-6H16M16,0H83A16,16,0,0,1,99,16V91a16,16,0,0,1-16,16H16A16,16,0,0,1,0,91V16A16,16,0,0,1,16,0Z" transform="translate(1777.948 803.3)" fill="#005d5c"/><ellipse cx="21" cy="20.5" rx="21" ry="20.5" transform="translate(1809.948 883.3)" fill="#6ebe44"/><path d="M105.946,91.872h19.72a4.226,4.226,0,0,0,0-8.452h-19.72a4.226,4.226,0,1,0,0,8.452" transform="translate(1713.269 753.737)" fill="#0391a2"/><path d="M68.806,159.3h38.032a4.226,4.226,0,1,0,0-8.452H68.806a4.226,4.226,0,1,0,0,8.452" transform="translate(1741.254 702.929)" fill="#0391a2"/><path d="M29,29h-.164l-14.5-14.5L0,28.836V0H29Z" transform="translate(1816.948 915.3)" fill="#6ebe44"/><ellipse cx="10" cy="10.5" rx="10" ry="10.5" transform="translate(1820.948 893.3)" fill="#ffca1f"/></g></svg>