<svg xmlns="http://www.w3.org/2000/svg" width="40.7" height="43.829" viewBox="0 0 40.7 43.829"><g transform="translate(0.218 0.222)"><path d="M17.985-1h2.731a5.163,5.163,0,0,1,5.161,5.289,2.987,2.987,0,0,0,.417,1.475l0,0A3.143,3.143,0,0,0,30.6,6.887l.01-.006A5.164,5.164,0,0,1,33.177,6.2h0a5.181,5.181,0,0,1,4.477,2.586l1.354,2.35a1,1,0,0,1,.067.141,5.163,5.163,0,0,1-1.943,6.9l-.008,0a3.086,3.086,0,0,0-1.143,1.143l0,.006a3.143,3.143,0,0,0,1.148,4.307,5.143,5.143,0,0,1,1.879,7.047L39,30.691l-1.43,2.384a5.161,5.161,0,0,1-7.037,1.872,3.25,3.25,0,0,0-1.508-.424h0a3.122,3.122,0,0,0-2.222.921,3.163,3.163,0,0,0-.921,2.238s0,.006,0,.01a5.174,5.174,0,0,1-5.163,5.138H17.985a5.169,5.169,0,0,1-5.163-5.157,2.987,2.987,0,0,0-.418-1.488L12.4,36.17a3.123,3.123,0,0,0-4.285-1.147l-.015.009A5.163,5.163,0,0,1,1.061,33.04l-1.37-2.362A5.15,5.15,0,0,1,1.57,23.654a3.172,3.172,0,0,0,1.582-2.74A3.172,3.172,0,0,0,1.57,18.175,5.174,5.174,0,0,1-.31,11.133l.012-.02L1.151,8.732A5.161,5.161,0,0,1,8.185,6.841l.013.008a2.987,2.987,0,0,0,1.487.418,3.176,3.176,0,0,0,3.157-3.109A5.143,5.143,0,0,1,17.985-1Zm6.589,7.784a4.989,4.989,0,0,1-.7-2.491q0-.02,0-.039A3.163,3.163,0,0,0,20.716,1V1H17.985a3.143,3.143,0,0,0-3.143,3.158q0,.01,0,.019A5.163,5.163,0,0,1,9.68,9.266H9.669a4.99,4.99,0,0,1-2.485-.694A3.161,3.161,0,0,0,2.877,9.741l-.012.02L1.418,12.141a3.169,3.169,0,0,0,1.156,4.3,5.176,5.176,0,0,1,2.579,4.47A5.177,5.177,0,0,1,2.57,25.386a3.147,3.147,0,0,0-1.148,4.291L2.8,32.045l.01.017a3.163,3.163,0,0,0,4.306,1.23,5.123,5.123,0,0,1,7.017,1.879,4.99,4.99,0,0,1,.694,2.485s0,.007,0,.01a3.167,3.167,0,0,0,3.163,3.163h2.729a3.17,3.17,0,0,0,3.163-3.144,5.176,5.176,0,0,1,1.506-3.656,5.109,5.109,0,0,1,3.637-1.506h.047a5.26,5.26,0,0,1,2.461.689,3.161,3.161,0,0,0,4.316-1.148l.007-.012,1.43-2.384a3.143,3.143,0,0,0-1.151-4.3,5.143,5.143,0,0,1-1.881-7.043,5.088,5.088,0,0,1,1.879-1.879,3.174,3.174,0,0,0,1.147-4.3,1,1,0,0,1-.06-.123L35.922,9.781A3.175,3.175,0,0,0,33.177,8.2h0a3.16,3.16,0,0,0-1.564.417,5.143,5.143,0,0,1-7.039-1.829Z" transform="translate(0.779 0.778)" fill="#0391a2"/><path d="M5.736-1A6.736,6.736,0,1,1-1,5.736,6.744,6.744,0,0,1,5.736-1Zm0,11.473A4.736,4.736,0,1,0,1,5.736,4.742,4.742,0,0,0,5.736,10.473Z" transform="translate(14.402 15.956)" fill="#ffca1f"/></g></svg>