<svg xmlns="http://www.w3.org/2000/svg" width="36.394" height="36.014" viewBox="0 0 36.394 36.014"><g transform="translate(0.25 0.25)"><path d="M13.25-1A31.025,31.025,0,0,1,22.892.155a8.028,8.028,0,0,1,3.272,1.926A4.723,4.723,0,0,1,27.5,5.447a4.694,4.694,0,0,1-1.345,3.364,8.042,8.042,0,0,1-3.282,1.911,31.4,31.4,0,0,1-9.623,1.134A31.025,31.025,0,0,1,3.609,10.7,8.028,8.028,0,0,1,.336,8.775,4.723,4.723,0,0,1-1,5.408,4.7,4.7,0,0,1,.345,2.044,8.039,8.039,0,0,1,3.627.133,31.409,31.409,0,0,1,13.25-1Zm0,10.856a29.582,29.582,0,0,0,8.987-1.03c2.925-.981,3.263-2.4,3.263-3.378s-.337-2.408-3.253-3.4A29.207,29.207,0,0,0,13.25,1,29.594,29.594,0,0,0,4.263,2.029C1.338,3.01,1,4.427,1,5.408s.337,2.408,3.253,3.4A29.207,29.207,0,0,0,13.25,9.856Z" transform="translate(0.75 23.908)" fill="#0391a2"/><path d="M8.493,17.985A9.464,9.464,0,0,1-1,8.493,9.463,9.463,0,0,1,8.493-1a9.462,9.462,0,0,1,9.493,9.493,9.463,9.463,0,0,1-9.493,9.493ZM8.493,1a7.493,7.493,0,1,0,7.493,7.493A7.5,7.5,0,0,0,8.493,1Z" transform="translate(5.508 0.75)" fill="#0391a2"/><path d="M.5,8.455a1,1,0,0,1-1-1V0a1,1,0,0,1,1-1,1,1,0,0,1,1,1V7.455A1,1,0,0,1,.5,8.455Z" transform="translate(30.841 11.755)" fill="#ffca1f"/><path d="M7.6,1.5H0a1,1,0,0,1,0-2H7.6a1,1,0,1,1,0,2Z" transform="translate(27.54 14.982)" fill="#ffca1f"/></g></svg>