<svg xmlns="http://www.w3.org/2000/svg" width="44.44" height="44.442" viewBox="0 0 44.44 44.442"><g transform="translate(0.25 0.25)"><path d="M21.222,43.442a6.151,6.151,0,0,1-4.364-1.8l-1.672-1.672a4.217,4.217,0,0,0-2.948-1.217H9.877A6.194,6.194,0,0,1,3.69,32.565V30.2a4.2,4.2,0,0,0-1.218-2.946L.823,25.607A6.186,6.186,0,0,1,.8,16.857l1.671-1.674a4.164,4.164,0,0,0,1.217-2.95V9.877a6.2,6.2,0,0,1,6.187-6.19h2.361a4.162,4.162,0,0,0,2.95-1.217L16.834.822A6.189,6.189,0,0,1,25.564.781h0l.043.04,1.652,1.652a4.152,4.152,0,0,0,2.948,1.214h2.358a6.2,6.2,0,0,1,6.19,6.19v2.356a4.164,4.164,0,0,0,1.217,2.952l1.649,1.649a6.2,6.2,0,0,1,.023,8.749l-1.674,1.674A4.2,4.2,0,0,0,38.754,30.2v2.361a6.2,6.2,0,0,1-6.19,6.187H30.206a4.211,4.211,0,0,0-2.949,1.218l-1.651,1.648A6.139,6.139,0,0,1,21.222,43.442ZM9.877,5.688A4.193,4.193,0,0,0,5.69,9.877v2.356A6.153,6.153,0,0,1,3.89,16.6L2.217,18.27a4.186,4.186,0,0,0,.019,5.921l1.652,1.654A6.215,6.215,0,0,1,5.69,30.2v2.361a4.192,4.192,0,0,0,4.187,4.187h2.361a6.15,6.15,0,0,1,4.359,1.8l1.673,1.673a4.186,4.186,0,0,0,5.92-.019l1.655-1.652a6.143,6.143,0,0,1,4.361-1.8h2.358a4.193,4.193,0,0,0,4.19-4.187V30.2a6.213,6.213,0,0,1,1.8-4.359l1.674-1.674a4.194,4.194,0,0,0-.019-5.921L38.555,16.6a6.154,6.154,0,0,1-1.8-4.364V9.877a4.194,4.194,0,0,0-4.19-4.19H30.206a6.141,6.141,0,0,1-4.36-1.8L24.213,2.256l-.04-.037a4.188,4.188,0,0,0-5.923.015L16.6,3.887a6.152,6.152,0,0,1-4.362,1.8Z" transform="translate(0.75 0.751)" fill="#0391a2"/><path d="M0,11.792,11.792,0" transform="translate(16.075 16.074)" fill="#f7b905"/><path d="M0,12.792A1,1,0,0,1-.707,12.5a1,1,0,0,1,0-1.414L11.085-.707a1,1,0,0,1,1.414,0,1,1,0,0,1,0,1.414L.707,12.5A1,1,0,0,1,0,12.792Z" transform="translate(16.075 16.074)" fill="#f7b905"/><path d="M1.721,3.418A1.719,1.719,0,0,1,.5,2.914,1.884,1.884,0,0,1,.138,2.34,1.532,1.532,0,0,1,0,1.7a1.646,1.646,0,0,1,.138-.665A1.78,1.78,0,0,1,.5.482a1.775,1.775,0,0,1,2.432,0,1.851,1.851,0,0,1,.39.551,2.132,2.132,0,0,1,.115.665,1.979,1.979,0,0,1-.115.642,1.954,1.954,0,0,1-.39.574,1.719,1.719,0,0,1-1.216.5" transform="translate(26.139 26.175)" fill="#f7b905"/><path d="M1.721,3.42a1.542,1.542,0,0,1-.642-.14A1.878,1.878,0,0,1,.5,2.915a2.21,2.21,0,0,1-.367-.574A1.547,1.547,0,0,1,0,1.7a1.638,1.638,0,0,1,.138-.665A1.547,1.547,0,0,1,.5.484a1.771,1.771,0,0,1,2.432,0,1.715,1.715,0,0,1,.5,1.216,1.528,1.528,0,0,1-.115.642,2.309,2.309,0,0,1-.39.574,1.773,1.773,0,0,1-.551.365,1.648,1.648,0,0,1-.665.14" transform="translate(14.347 14.382)" fill="#f7b905"/></g></svg>