<svg xmlns="http://www.w3.org/2000/svg" xmlns:xlink="http://www.w3.org/1999/xlink" width="111.2" height="76.836" viewBox="0 0 111.2 76.836"><defs><clipPath id="a"><rect width="111.2" height="76.836" transform="translate(0 0)" fill="none"/></clipPath></defs><g transform="translate(0 0)"><g clip-path="url(#a)"><path d="M4.909-1.6h98.182A6.516,6.516,0,0,1,109.6,4.909v9.818a6.516,6.516,0,0,1-6.509,6.509H4.909A6.516,6.516,0,0,1-1.6,14.727V4.909A6.516,6.516,0,0,1,4.909-1.6Zm98.182,19.636a3.313,3.313,0,0,0,3.309-3.309V4.909A3.313,3.313,0,0,0,103.091,1.6H4.909A3.313,3.313,0,0,0,1.6,4.909v9.818a3.313,3.313,0,0,0,3.309,3.309Z" transform="translate(1.6 55.6)" fill="#0391a2"/><path d="M89.109,45.782h-3.2V40.873A3.313,3.313,0,0,0,82.6,37.564H67.873a3.313,3.313,0,0,0-3.309,3.309v4.909h-3.2V40.873a6.516,6.516,0,0,1,6.509-6.509H82.6a6.516,6.516,0,0,1,6.509,6.509Z" fill="#f7bd13"/><path d="M49.836,45.782h-3.2V40.873a3.313,3.313,0,0,0-3.309-3.309H28.6a3.313,3.313,0,0,0-3.309,3.309v4.909h-3.2V40.873A6.516,6.516,0,0,1,28.6,34.364H43.327a6.516,6.516,0,0,1,6.509,6.509Z" fill="#f7bd13"/><path d="M98.928,45.782h-3.2V14.745A3.329,3.329,0,0,0,93.6,11.653C86.961,9.112,69.966,3.2,55.6,3.2a98.837,98.837,0,0,0-38.144,8.3,3.311,3.311,0,0,0-1.983,3.033V45.782h-3.2V14.534a6.511,6.511,0,0,1,3.9-5.965,103.769,103.769,0,0,1,20.917-6.6A94.611,94.611,0,0,1,55.6,0,91.6,91.6,0,0,1,78.16,3.337,160.01,160.01,0,0,1,94.745,8.665a6.51,6.51,0,0,1,4.183,6.08Z" fill="#0391a2"/><path d="M103.837,55.6h-3.2V50.691a3.313,3.313,0,0,0-3.309-3.309H13.873a3.313,3.313,0,0,0-3.309,3.309V55.6h-3.2V50.691a6.516,6.516,0,0,1,6.509-6.509H97.328a6.516,6.516,0,0,1,6.509,6.509Z" fill="#0391a2"/></g></g></svg>