<svg xmlns="http://www.w3.org/2000/svg" xmlns:xlink="http://www.w3.org/1999/xlink" width="111.202" height="71.927" viewBox="0 0 111.202 71.927"><defs><clipPath id="a"><rect width="111.202" height="71.927" transform="translate(0 0)" fill="none" stroke="#0391a2" stroke-width="1"/></clipPath></defs><g transform="translate(0 0)"><g clip-path="url(#a)"><path d="M101.194,71.927H90.819V35.963A6.6,6.6,0,0,1,97.5,29.454h7.028a6.769,6.769,0,0,1,4.953,2.145,6.418,6.418,0,0,1,1.685,5.077L107.83,66.131A6.612,6.612,0,0,1,101.194,71.927Zm-7.175-3.2h7.175a3.415,3.415,0,0,0,3.456-2.957l3.332-29.453a3.219,3.219,0,0,0-.852-2.543,3.559,3.559,0,0,0-2.606-1.12H97.5a3.4,3.4,0,0,0-3.477,3.309Z" fill="#0391a2"/><path d="M20.383,71.927H10.008a6.611,6.611,0,0,1-6.636-5.8L.04,36.677A6.418,6.418,0,0,1,1.724,31.6a6.77,6.77,0,0,1,4.954-2.146h7.028a6.6,6.6,0,0,1,6.677,6.509ZM6.678,32.654a3.56,3.56,0,0,0-2.607,1.121,3.219,3.219,0,0,0-.851,2.543L6.552,65.771a3.414,3.414,0,0,0,3.456,2.956h7.175V35.963a3.4,3.4,0,0,0-3.477-3.309Z" fill="#0391a2"/><path d="M73.637,1.6H0V-1.6H73.637Z" transform="translate(18.782 70.327)" fill="#0391a2"/><path d="M73.637,1.6H0V-1.6H73.637Z" transform="translate(18.782 55.6)" fill="#0391a2"/><path d="M73.637,1.6H0V-1.6H73.637Z" transform="translate(18.782 43.327)" fill="#0391a2"/><path d="M96.473,26.145h-3.2V6.509A3.313,3.313,0,0,0,89.964,3.2H60.51A3.313,3.313,0,0,0,57.2,6.509H54A3.313,3.313,0,0,0,50.692,3.2H21.237a3.313,3.313,0,0,0-3.309,3.309V26.145h-3.2V6.509A6.516,6.516,0,0,1,21.237,0H50.692A6.5,6.5,0,0,1,55.6,2.239,6.5,6.5,0,0,1,60.51,0H89.964a6.516,6.516,0,0,1,6.509,6.509Z" fill="#f7bd13"/><path d="M1.6,31.909H-1.6V0H1.6Z" transform="translate(55.601 6.509)" fill="#f7bd13"/></g></g></svg>