<svg xmlns="http://www.w3.org/2000/svg" xmlns:xlink="http://www.w3.org/1999/xlink" width="81.745" height="86.654" viewBox="0 0 81.745 86.654"><defs><clipPath id="a"><rect width="81.745" height="86.654" transform="translate(0 0.001)" fill="none"/></clipPath></defs><g transform="translate(0 0)"><g clip-path="url(#a)"><path d="M60.509,26.145A4.909,4.909,0,1,1,55.6,21.236a4.908,4.908,0,0,1,4.909,4.909" fill="#f7bd13"/><path d="M21.236,26.145a4.909,4.909,0,1,0,4.909-4.909,4.908,4.908,0,0,0-4.909,4.909" fill="#f7bd13"/><path d="M60.509,50.691A4.909,4.909,0,1,1,55.6,45.782a4.908,4.908,0,0,1,4.909,4.909" fill="#f7bd13"/><path d="M21.236,50.691a4.909,4.909,0,1,0,4.909-4.909,4.908,4.908,0,0,0-4.909,4.909" fill="#f7bd13"/><path d="M9.818-1.6H68.727A11.418,11.418,0,0,1,80.145,9.818v54A11.418,11.418,0,0,1,68.727,75.236H9.818A11.418,11.418,0,0,1-1.6,63.818v-54A11.418,11.418,0,0,1,9.818-1.6ZM68.727,72.036a8.227,8.227,0,0,0,8.218-8.218v-54A8.227,8.227,0,0,0,68.727,1.6H9.818A8.227,8.227,0,0,0,1.6,9.818v54a8.227,8.227,0,0,0,8.218,8.218Z" transform="translate(1.6 1.6)" fill="#0391a2"/><path d="M1.6,9.818H-1.6V0H1.6Z" transform="translate(55.6 33.509)" fill="#f7bd13"/><path d="M1.6,9.818H-1.6V0H1.6Z" transform="translate(26.145 33.509)" fill="#f7bd13"/><path d="M1.6,9.818H-1.6V0H1.6Z" transform="translate(55.6 8.964)" fill="#f7bd13"/><path d="M1.6,9.818H-1.6V0H1.6Z" transform="translate(26.145 8.964)" fill="#f7bd13"/><path d="M1.6,9.818H-1.6V0H1.6Z" transform="translate(55.6 58.055)" fill="#f7bd13"/><path d="M14.727,1.6H0V-1.6H14.727Z" transform="translate(33.509 26.145)" fill="#f7bd13"/><path d="M9.818,1.6H0V-1.6H9.818Z" transform="translate(62.964 26.145)" fill="#f7bd13"/><path d="M9.818,1.6H0V-1.6H9.818Z" transform="translate(8.964 26.145)" fill="#f7bd13"/><path d="M14.727,1.6H0V-1.6H14.727Z" transform="translate(33.509 50.691)" fill="#f7bd13"/><path d="M9.818,1.6H0V-1.6H9.818Z" transform="translate(62.964 50.691)" fill="#f7bd13"/><path d="M9.818,1.6H0V-1.6H9.818Z" transform="translate(8.964 50.691)" fill="#f7bd13"/><path d="M1.6,9.818H-1.6V0H1.6Z" transform="translate(26.145 58.055)" fill="#f7bd13"/><path d="M71.927,86.654H54V75.236h3.2v8.218H68.727V75.236h3.2Z" fill="#0391a2"/><path d="M27.745,86.654H9.818V75.236h3.2v8.218H24.545V75.236h3.2Z" fill="#0391a2"/></g></g></svg>