<svg xmlns="http://www.w3.org/2000/svg" width="311.438" height="311.434" viewBox="0 0 311.438 311.434"><g transform="translate(-975 -361.907)"><g transform="translate(898 6.907)"><g transform="translate(77 355)"><path d="M988.3,667.544A77.839,77.839,0,0,1,910.445,745.4v77.858a155.7,155.7,0,0,0,155.718-155.717Z" transform="translate(-754.726 -511.827)" fill="#005d5c"/><path d="M898.339,733.3A77.839,77.839,0,0,1,976.2,655.438V577.579A155.694,155.694,0,0,0,820.48,733.3Z" transform="translate(-820.48 -577.579)" fill="#ffca1f"/><path d="M910.445,655.438A77.839,77.839,0,0,1,988.3,733.3h77.858A155.694,155.694,0,0,0,910.445,577.579Z" transform="translate(-754.726 -577.579)" fill="#6ebe44"/></g><g transform="translate(170.003 471.141)"><path d="M55.96,57.858a7.5,7.5,0,0,1-7.5-7.5V27.921A20.48,20.48,0,0,0,7.5,27.828V50.358a7.5,7.5,0,0,1-7.5,7.5,7.5,7.5,0,0,1-7.5-7.5V27.921a35.48,35.48,0,0,1,70.96,0V50.358A7.5,7.5,0,0,1,55.96,57.858Z" transform="translate(33.644 0)" fill="#6ebe44"/><path d="M96.079,105.644H25.257C10.752,105.644-1,94.48-1,80.707l6.167-55.77C5.167,11.165,16.919,0,31.424,0H89.912c14.5,0,26.257,11.165,26.257,24.937l6.167,55.77C122.336,94.48,110.584,105.644,96.079,105.644Z" transform="translate(1 33.111)" fill="#6ebe44"/><path d="M96.079,113.144H25.257C6.643,113.144-8.5,98.593-8.5,80.707l6.212-56.594C-2.333,7.051,12.81-7.5,31.424-7.5H89.912c18.614,0,33.757,14.551,33.757,32.437l6.121,54.946C129.836,98.593,114.693,113.144,96.079,113.144ZM31.424,7.5c-10.343,0-18.757,7.822-18.757,17.437L6.455,81.531c.045,8.791,8.46,16.613,18.8,16.613H96.079c10.343,0,18.757-7.822,18.757-17.437l-6.121-54.946c-.045-10.439-8.46-18.261-18.8-18.261Z" transform="translate(1 33.111)" fill="#6ebe44"/></g><path d="M1504.4,185.709h0a46.971,46.971,0,1,0-46.971-46.97,46.971,46.971,0,0,0,46.971,46.97" transform="translate(-1332.593 448.751)" fill="#ffca1f"/><path d="M13.163,32.909l-12.6-12.6a1.938,1.938,0,0,1,0-2.74l2.74-2.74a1.938,1.938,0,0,1,2.74,0l8.485,8.485L32.706,5.145a1.938,1.938,0,0,1,2.74,0l2.74,2.74a1.938,1.938,0,0,1,0,2.74L15.9,32.909A1.938,1.938,0,0,1,13.163,32.909Z" transform="translate(152.179 568.63)" fill="#fff"/></g></g></svg>