<svg xmlns="http://www.w3.org/2000/svg" width="107.646" height="109.956" viewBox="0 0 107.646 109.956"><path d="M30.338-108.878c-16.632,0-24.178,10.934-24.178,27.412v8.778H17.4v-9.548c0-9.548,3.85-15.862,12.628-15.862,8.932,0,12.628,5.852,12.628,16.94,0,30.338-36.5,37.114-36.5,71.918V0H53.438V-10.934H18.018v-1.694c.154-24.794,36.652-36.5,36.652-68.992C54.67-98.1,47.124-108.878,30.338-108.878ZM79.464-97.02h31.724V-107.8h-42.5L65.758-47.894H77v-2.464c1.078-7.854,5.544-11.55,12.166-11.55,8.624,0,12.628,15.554,12.628,15.554V-25.41c0,9.7-4,15.554-12.628,15.554S76.538-15.708,76.538-25.41v-8.008H65.3v7.238C65.3-9.7,73,1.078,89.474,1.078S113.806-9.7,113.806-26.18v-21.1c0-15.4-6.16-25.564-20.02-25.564-7.238,0-12.628,3.08-16.016,8.932Z" transform="translate(-6.16 108.878)"/></svg>