<svg xmlns="http://www.w3.org/2000/svg" width="26.24" height="25.696" viewBox="0 0 26.24 25.696"><path d="M14.752,3.072v-5.28h-1.7V-22.4H4.064L3.2-5.472a4.853,4.853,0,0,1-.992,3.264H.768v5.28h2.4V0H12.32V3.072Zm-8.384-23.2h4.16v17.92H4.608c.7-.736.928-1.7,1.024-3.3ZM16.736-5.408c0,3.392,1.7,5.632,5.12,5.632,3.456,0,5.152-2.24,5.152-5.632V-16.992c0-3.424-1.7-5.632-5.152-5.632-3.424,0-5.12,2.208-5.12,5.632ZM19.2-17.12c0-2.016.864-3.232,2.656-3.232,1.824,0,2.656,1.216,2.656,3.232V-5.28c0,2.048-.832,3.232-2.656,3.232-1.792,0-2.656-1.184-2.656-3.232Z" transform="translate(-0.768 22.624)" fill="#b9b9b9"/></svg>