<svg xmlns="http://www.w3.org/2000/svg" width="42.848" height="22.848" viewBox="0 0 42.848 22.848"><path d="M13.088-18.016V0h2.368V-22.4H11.968L8.416-4.512,4.736-22.4H1.248V0H3.424V-17.856L7.136-.032h2.4Zm7.424,5.536v-7.648h6.72V-22.4H18.016V0h9.216V-2.272h-6.72V-10.24h5.472v-2.24ZM34.368-22.624c-3.424,0-5.024,2.24-5.024,5.632V-5.408c0,3.392,1.6,5.632,5.024,5.632,3.456,0,5.056-2.24,5.056-5.632V-8.192H37.056V-5.28c0,2.016-.8,3.232-2.624,3.232-1.792,0-2.624-1.216-2.624-3.232V-17.12c0-2.016.832-3.232,2.624-3.232,1.824,0,2.624,1.216,2.624,3.232v2.144h2.368v-2.016C39.424-20.384,37.824-22.624,34.368-22.624ZM41.7-3.1V0h2.4V-3.1Z" transform="translate(-1.248 22.624)"/></svg>