<svg xmlns="http://www.w3.org/2000/svg" width="109.186" height="109.956" viewBox="0 0 109.186 109.956"><path d="M30.184-108.878c-17.094,0-24.794,10.626-24.794,27.72V-26.18C5.39-9.7,13.552,1.078,30.184,1.078c16.478,0,24.64-10.78,24.64-27.258V-42.5c0-15.554-6.16-25.564-20.02-25.564-8.624,0-14.476,4.158-17.4,11.55V-80.7c0-11.55,4-17.4,13.09-17.4,8.778,0,12.782,5.7,12.782,15.4v2.772H54.516v-2C54.516-98.406,46.816-108.878,30.184-108.878Zm0,51.744c8.624,0,12.782,5.852,12.782,15.554v16.17c0,9.7-4.158,15.554-12.782,15.554C21.406-9.856,17.4-15.708,17.4-25.41V-41.58C17.4-51.282,21.406-57.134,30.184-57.134ZM65.142-26.18C65.142-9.7,73.3,1.078,89.782,1.078c16.632,0,24.794-10.78,24.794-27.258V-81.774c0-16.478-8.162-27.1-24.794-27.1-16.478,0-24.64,10.626-24.64,27.1ZM77-82.39C77-92.246,81.158-98.1,89.782-98.1c8.778,0,12.782,5.852,12.782,15.708v56.98c0,9.7-4,15.554-12.782,15.554C81.158-9.856,77-15.708,77-25.41Z" transform="translate(-5.39 108.878)"/></svg>