<svg xmlns="http://www.w3.org/2000/svg" width="213" height="91.159" viewBox="0 0 213 91.159"><path d="M10.152-44.4H20.974V23.588h14V-65.533H25.557c-2.164,5.984-4.583,11.2-15.405,11.2Zm54.619-.637c0-6.366,2.8-8.785,7.257-8.785s7.257,2.419,7.257,8.785V3.09c0,6.366-2.8,8.785-7.257,8.785S64.771,9.456,64.771,3.09ZM50.766,2.2c0,14.259,7.512,22.408,21.262,22.408S93.29,16.458,93.29,2.2V-44.144c0-14.259-7.512-22.408-21.262-22.408S50.766-58.4,50.766-44.144Zm64.422-47.234c0-6.366,2.8-8.785,7.257-8.785S129.7-51.4,129.7-45.036V3.09c0,6.366-2.8,8.785-7.257,8.785s-7.257-2.419-7.257-8.785Zm-14,47.234c0,14.259,7.512,22.408,21.262,22.408S143.707,16.458,143.707,2.2V-44.144c0-14.259-7.512-22.408-21.262-22.408S101.183-58.4,101.183-44.144Zm59.711-54.746c0-3.947,1.655-5.6,4.583-5.6,2.8,0,4.583,1.655,4.583,5.6v30.556c0,3.947-1.782,5.6-4.583,5.6-2.928,0-4.583-1.655-4.583-5.6Zm-8.912,29.919c0,9.167,4.711,14.259,13.5,14.259s13.5-5.093,13.5-14.259V-51.911c0-9.167-4.711-14.259-13.5-14.259s-13.5,5.093-13.5,14.259Zm13.5,46.216h8.276l35.139-89.122h-8.276Zm39.6-43.542c0-3.947,1.655-5.6,4.583-5.6,2.8,0,4.583,1.655,4.583,5.6V10.6c0,3.947-1.782,5.6-4.583,5.6-2.928,0-4.583-1.655-4.583-5.6ZM196.161,9.965c0,9.167,4.711,14.259,13.5,14.259s13.5-5.093,13.5-14.259V-19.318c0-9.167-4.711-14.259-13.5-14.259s-13.5,5.093-13.5,14.259Z" transform="translate(-10.152 66.552)" fill="#fff"/></svg>