<svg xmlns="http://www.w3.org/2000/svg" width="180.32" height="79.968" viewBox="0 0 180.32 79.968"><path d="M20.5,0H29.12V-78.4H23.072c-2.016,5.488-4.928,10.08-13.44,10.416v7.168A23.449,23.449,0,0,0,20.5-64.176ZM41.664-19.04C41.664-7.056,47.6.784,59.584.784c12.1,0,18.032-7.84,18.032-19.824V-59.472c0-11.984-5.936-19.712-18.032-19.712-11.984,0-17.92,7.728-17.92,19.712Zm8.624-40.88c0-7.168,3.024-11.424,9.3-11.424,6.384,0,9.3,4.256,9.3,11.424v41.44c0,7.056-2.912,11.312-9.3,11.312-6.272,0-9.3-4.256-9.3-11.312ZM85.232-19.04c0,11.984,5.936,19.824,17.92,19.824,12.1,0,18.032-7.84,18.032-19.824V-59.472c0-11.984-5.936-19.712-18.032-19.712-11.984,0-17.92,7.728-17.92,19.712Zm8.624-40.88c0-7.168,3.024-11.424,9.3-11.424,6.384,0,9.3,4.256,9.3,11.424v41.44c0,7.056-2.912,11.312-9.3,11.312-6.272,0-9.3-4.256-9.3-11.312Zm46.368-18.928c-7.616,0-11.2,5.152-11.2,12.656V-41.44c0,7.616,3.584,12.656,11.2,12.656s11.2-5.04,11.2-12.656V-66.192C151.424-73.7,147.84-78.848,140.224-78.848Zm31.808.448L141.12,0h5.264L177.3-78.4Zm-31.808,4.7c3.92,0,5.6,2.912,5.6,7.168v25.536c0,4.256-1.68,7.056-5.6,7.056-4.032,0-5.6-2.8-5.6-7.056V-66.528C134.624-70.784,136.192-73.7,140.224-73.7ZM178.752-49.5c-7.616,0-11.2,5.04-11.2,12.544v24.64c0,7.616,3.584,12.656,11.2,12.656,7.728,0,11.2-5.04,11.2-12.656V-36.96C189.952-44.464,186.48-49.5,178.752-49.5Zm0,5.152c3.92,0,5.6,2.8,5.6,7.056v25.424c0,4.256-1.68,7.168-5.6,7.168s-5.6-2.912-5.6-7.168V-37.3C173.152-41.552,174.832-44.352,178.752-44.352Z" transform="translate(-9.632 79.184)"/></svg>