<svg xmlns="http://www.w3.org/2000/svg" width="49.419" height="54.688" viewBox="0 0 49.419 54.688"><g transform="translate(1 1)"><path d="M46.955,1.473H0a1,1,0,0,1,0-2H46.955a1,1,0,1,1,0,2Z" transform="translate(0.244 19.033)" fill="#0391a2"/><path d="M.483,1.973H.459a1.5,1.5,0,1,1,0-3H.483a1.5,1.5,0,0,1,0,3Z" transform="translate(34.953 29.321)" fill="#f7b905"/><path d="M.483,1.973H.459a1.5,1.5,0,1,1,0-3H.483a1.5,1.5,0,0,1,0,3Z" transform="translate(23.263 29.321)" fill="#f7b905"/><path d="M.483,1.973H.459a1.5,1.5,0,1,1,0-3H.483a1.5,1.5,0,0,1,0,3Z" transform="translate(11.549 29.321)" fill="#f7b905"/><path d="M.483,1.973H.459a1.5,1.5,0,1,1,0-3H.483a1.5,1.5,0,0,1,0,3Z" transform="translate(34.953 39.56)" fill="#f7b905"/><path d="M.483,1.973H.459a1.5,1.5,0,1,1,0-3H.483a1.5,1.5,0,0,1,0,3Z" transform="translate(23.263 39.56)" fill="#f7b905"/><path d="M.483,1.973H.459a1.5,1.5,0,1,1,0-3H.483a1.5,1.5,0,0,1,0,3Z" transform="translate(11.549 39.56)" fill="#f7b905"/><path d="M.463,9.669a1,1,0,0,1-1-1V0a1,1,0,0,1,2,0V8.669A1,1,0,0,1,.463,9.669Z" transform="translate(33.899 0)" fill="#0391a2"/><path d="M.463,9.669a1,1,0,0,1-1-1V0a1,1,0,0,1,2,0V8.669A1,1,0,0,1,.463,9.669Z" transform="translate(12.618 0)" fill="#0391a2"/><path d="M12.569-1H34.875C39.111-1,42.6.249,44.951,2.611a11.224,11.224,0,0,1,2.6,4.152,15.935,15.935,0,0,1,.872,5.471V36.271c0,8.3-5.072,13.256-13.569,13.256H12.569c-4.107,0-7.524-1.208-9.881-3.492A11.425,11.425,0,0,1-.061,41.761,16.323,16.323,0,0,1-1,36.072V12.231C-1,3.946,4.072-1,12.569-1ZM34.85,47.527c7.352,0,11.569-4.1,11.569-11.256V12.231c.011-3.517-.96-6.277-2.884-8.208C41.562,2.046,38.568,1,34.875,1H12.569C5.217,1,1,5.094,1,12.231v23.84c0,7.28,4.217,11.456,11.569,11.456Z" transform="translate(0 4.16)" fill="#0391a2"/></g></svg>