<svg xmlns="http://www.w3.org/2000/svg" width="51.568" height="51.008" viewBox="0 0 51.568 51.008"><g transform="translate(0.251 0.25)"><path d="M19.972,1.5H0a1,1,0,1,1,0-2H19.972a1,1,0,0,1,0,2Z" transform="translate(30.345 49.258)" fill="#f7b905"/><path d="M31.35-1a8.576,8.576,0,0,1,5.2,1.944L40.9,4.358A8.5,8.5,0,0,1,44.07,9.108,6.436,6.436,0,0,1,42.75,14.6L16.79,47.716a5.61,5.61,0,0,1-4.378,2.162L2.4,50.006a1,1,0,0,1-.987-.774L-.853,39.477A5.63,5.63,0,0,1,.2,34.714L26.162,1.593A6.508,6.508,0,0,1,31.35-1ZM3.181,48l9.208-.118a3.621,3.621,0,0,0,2.827-1.4l25.961-33.12c2.094-2.674.751-5.659-1.509-7.431L35.314,2.518A6.58,6.58,0,0,0,31.35,1a4.488,4.488,0,0,0-3.615,1.827L1.776,35.946A3.638,3.638,0,0,0,1.1,39.023Z" transform="translate(0.75 0.75)" fill="#0391a2"/><path d="M15.014,12.77a1,1,0,0,1-.616-.213L-.617.787a1,1,0,0,1-.17-1.4,1,1,0,0,1,1.4-.17l15.014,11.77a1,1,0,0,1-.618,1.787Z" transform="translate(22.837 9.162)" fill="#f7b905"/></g></svg>