<svg xmlns="http://www.w3.org/2000/svg" xmlns:xlink="http://www.w3.org/1999/xlink" width="45" height="45" viewBox="0 0 45 45"><defs><clipPath id="a"><rect width="45" height="45" fill="none"/></clipPath></defs><g transform="translate(0 0.001)"><g transform="translate(0 -0.001)" clip-path="url(#a)"><path d="M272.249,147.7a.685.685,0,0,0,.685-.68v-17.3a.685.685,0,0,0-1.365,0v17.3a.68.68,0,0,0,.68.68Z" transform="translate(-249.749 -118.718)"/><path d="M270.54,401.337a.908.908,0,1,1-.908-.908.908.908,0,0,1,.908.908" transform="translate(-247.132 -368.255)"/><path d="M22.5,0A22.52,22.52,0,1,0,38.4,6.595,22.5,22.5,0,0,0,22.5,0Zm0,43.708A21.233,21.233,0,1,1,37.5,37.49,21.212,21.212,0,0,1,22.5,43.708Z" transform="translate(0 0)"/></g></g></svg>