<svg xmlns="http://www.w3.org/2000/svg" xmlns:xlink="http://www.w3.org/1999/xlink" width="24.75" height="25.375" viewBox="0 0 24.75 25.375"><defs><clipPath id="a"><rect width="24.75" height="25.375" fill="#f7bd13"/></clipPath><clipPath id="b"><rect width="24.75" height="25.375" fill="none"/></clipPath></defs><g transform="translate(-1183 -948)"><g transform="translate(1183 948)"><g clip-path="url(#a)"><path d="M12.389,0a.9.9,0,0,0-.613.236L9.916,1.887,7.51,1.208a.906.906,0,0,0-1.076.519L5.462,4.02l-2.454.443a.906.906,0,0,0-.736.925L2.4,7.87.376,9.342A.907.907,0,0,0,.1,10.493l1.189,2.2L.1,14.891a.907.907,0,0,0,.274,1.151L2.4,17.514,2.272,20a.906.906,0,0,0,.736.925l2.454.434.972,2.3a.906.906,0,0,0,1.076.519l2.406-.68,1.859,1.651a.905.905,0,0,0,1.2,0L14.852,23.5l2.387.68a.906.906,0,0,0,1.076-.519l.981-2.293,2.444-.443A.906.906,0,0,0,22.486,20l-.132-2.482,2.029-1.472a.907.907,0,0,0,.264-1.151l-1.18-2.2,1.18-2.2a.907.907,0,0,0-.264-1.151L22.353,7.87l.132-2.482a.906.906,0,0,0-.745-.925L19.3,4.02l-.981-2.293a.906.906,0,0,0-1.076-.519l-2.387.68L12.973.236A.9.9,0,0,0,12.389,0Zm-.009,2.123,1.642,1.434a.906.906,0,0,0,.831.189l2.123-.585.849,2.01a.906.906,0,0,0,.661.538l2.17.4-.113,2.18a.907.907,0,0,0,.359.774l1.774,1.274-1.029,1.934a.906.906,0,0,0,0,.849l1.029,1.925L20.9,16.325a.907.907,0,0,0-.359.774l.113,2.18-2.17.4a.906.906,0,0,0-.661.538l-.849,2.01-2.123-.585a.906.906,0,0,0-.831.189l-1.642,1.434-1.642-1.434a.906.906,0,0,0-.84-.189l-2.1.585-.849-2.01a.906.906,0,0,0-.679-.538l-2.152-.4.113-2.18a.907.907,0,0,0-.377-.774L2.074,15.042l1.048-1.925a.906.906,0,0,0,0-.849L2.074,10.333,3.849,9.059a.907.907,0,0,0,.377-.774l-.113-2.18,2.152-.4a.906.906,0,0,0,.679-.538l.849-2.01,2.1.585a.906.906,0,0,0,.84-.189Z" transform="translate(-0.001 0)" fill="#f7bd13"/></g></g><g transform="translate(1183 948)"><g transform="translate(0)" clip-path="url(#b)"><path d="M154.6,152.066a.907.907,0,0,0-.623.274l-7.134,7.144a.908.908,0,0,0,1.283,1.283l7.134-7.144a.906.906,0,0,0-.661-1.557Zm-6.53.245a1.3,1.3,0,1,0,1.3,1.3,1.3,1.3,0,0,0-1.3-1.3m5.964,5.888a1.3,1.3,0,1,0,1.3,1.3,1.3,1.3,0,0,0-1.3-1.3" transform="translate(-138.675 -143.865)" fill="#0391a2"/></g></g></g></svg>