<svg xmlns="http://www.w3.org/2000/svg" width="29.498" height="29.5" viewBox="0 0 29.498 29.5"><g transform="translate(0 -0.001)"><path d="M14,28.75a4.147,4.147,0,0,1-2.943-1.214l-1.1-1.1a2.691,2.691,0,0,0-1.881-.776H6.516a4.177,4.177,0,0,1-4.172-4.172V19.926a2.68,2.68,0,0,0-.777-1.88L.479,16.957a4.172,4.172,0,0,1-.014-5.9l1.1-1.1a2.657,2.657,0,0,0,.777-1.883V6.516A4.178,4.178,0,0,1,6.516,2.343H8.074a2.656,2.656,0,0,0,1.883-.777L11.042.478A4.173,4.173,0,0,1,16.927.449l.031.029,1.09,1.09a2.65,2.65,0,0,0,1.881.775h1.556a4.178,4.178,0,0,1,4.174,4.174V8.071a2.658,2.658,0,0,0,.777,1.884l1.088,1.088a4.178,4.178,0,0,1,.015,5.9l-1.1,1.1a2.679,2.679,0,0,0-.775,1.879v1.557a4.178,4.178,0,0,1-4.174,4.172H19.928a2.687,2.687,0,0,0-1.882.778l-1.089,1.087A4.139,4.139,0,0,1,14,28.75ZM6.516,3.843A2.676,2.676,0,0,0,3.844,6.516V8.071A4.149,4.149,0,0,1,2.63,11.012l-1.1,1.105A2.672,2.672,0,0,0,1.539,15.9l1.09,1.092a4.191,4.191,0,0,1,1.215,2.94v1.557a2.675,2.675,0,0,0,2.672,2.672H8.074a4.147,4.147,0,0,1,2.94,1.214l1.1,1.1a2.672,2.672,0,0,0,3.778-.012l1.092-1.09a4.143,4.143,0,0,1,2.941-1.215h1.556a2.676,2.676,0,0,0,2.674-2.672V19.926a4.19,4.19,0,0,1,1.213-2.939l1.1-1.1a2.676,2.676,0,0,0-.013-3.778l-1.091-1.091a4.15,4.15,0,0,1-1.214-2.943V6.516a2.677,2.677,0,0,0-2.674-2.674H19.928a4.141,4.141,0,0,1-2.94-1.213L15.912,1.554l-.028-.026a2.673,2.673,0,0,0-3.78.01L11.015,2.628A4.148,4.148,0,0,1,8.074,3.843Z" transform="translate(0.75 0.751)" fill="#0391a2"/><path d="M0,7.78,7.78,0" transform="translate(10.861 10.86)" fill="#f7b905"/><path d="M0,8.53a.748.748,0,0,1-.53-.22.75.75,0,0,1,0-1.061L7.249-.53a.75.75,0,0,1,1.061,0A.75.75,0,0,1,8.31.53L.53,8.31A.748.748,0,0,1,0,8.53Z" transform="translate(10.861 10.86)" fill="#f7b905"/><path d="M1.135,2.255a1.134,1.134,0,0,1-.8-.333,1.243,1.243,0,0,1-.242-.378A1.011,1.011,0,0,1,0,1.12,1.086,1.086,0,0,1,.091.681,1.174,1.174,0,0,1,.333.318a1.171,1.171,0,0,1,1.6,0,1.221,1.221,0,0,1,.257.363,1.406,1.406,0,0,1,.076.439,1.306,1.306,0,0,1-.076.424,1.289,1.289,0,0,1-.257.378,1.134,1.134,0,0,1-.8.333" transform="translate(17.5 17.524)" fill="#f7b905"/><path d="M1.135,2.755A1.624,1.624,0,0,1-.021,2.276a1.7,1.7,0,0,1-.346-.529A1.513,1.513,0,0,1-.5,1.12,1.592,1.592,0,0,1-.366.478,1.67,1.67,0,0,1-.021-.036,1.64,1.64,0,0,1,1.135-.5a1.64,1.64,0,0,1,1.156.464,1.717,1.717,0,0,1,.361.514l.017.045a1.89,1.89,0,0,1,.1.6,1.8,1.8,0,0,1-.1.582l-.017.045a1.8,1.8,0,0,1-.361.529A1.624,1.624,0,0,1,1.135,2.755ZM1.135.5A.634.634,0,0,0,.687.671.683.683,0,0,0,.548.884.585.585,0,0,0,.5,1.12a.512.512,0,0,0,.048.221.77.77,0,0,0,.139.228.633.633,0,0,0,.9,0,.792.792,0,0,0,.144-.207A.777.777,0,0,0,1.77,1.12.887.887,0,0,0,1.728.864.755.755,0,0,0,1.584.671.634.634,0,0,0,1.135.5Z" transform="translate(17.5 17.524)" fill="#f7b905"/><path d="M1.135,2.256a1.017,1.017,0,0,1-.424-.092,1.239,1.239,0,0,1-.378-.241,1.458,1.458,0,0,1-.242-.378A1.021,1.021,0,0,1,0,1.121,1.08,1.08,0,0,1,.091.682,1.02,1.02,0,0,1,.333.319a1.168,1.168,0,0,1,1.6,0,1.131,1.131,0,0,1,.333.8,1.008,1.008,0,0,1-.076.424,1.523,1.523,0,0,1-.257.378,1.17,1.17,0,0,1-.363.241,1.087,1.087,0,0,1-.439.092" transform="translate(9.72 9.743)" fill="#f7b905"/><path d="M1.135,2.756a1.515,1.515,0,0,1-.627-.135,1.737,1.737,0,0,1-.529-.344l-.023-.024a1.97,1.97,0,0,1-.323-.5A1.526,1.526,0,0,1-.5,1.121,1.57,1.57,0,0,1-.366.479,1.522,1.522,0,0,1,0-.05,1.649,1.649,0,0,1,1.141-.5a1.63,1.63,0,0,1,1.151.466A1.639,1.639,0,0,1,2.77,1.121a1.508,1.508,0,0,1-.118.625,2.019,2.019,0,0,1-.339.506l-.023.024a1.669,1.669,0,0,1-.514.344A1.593,1.593,0,0,1,1.135,2.756ZM.7,1.579a.838.838,0,0,0,.218.128.521.521,0,0,0,.221.049.585.585,0,0,0,.236-.049.694.694,0,0,0,.2-.127,1,1,0,0,0,.164-.238.533.533,0,0,0,.033-.221A.634.634,0,0,0,1.585.674.626.626,0,0,0,1.141.5a.663.663,0,0,0-.46.178L.658.7A.561.561,0,0,0,.548.885.585.585,0,0,0,.5,1.121a.523.523,0,0,0,.049.223A.949.949,0,0,0,.7,1.579Z" transform="translate(9.72 9.743)" fill="#f7b905"/></g></svg>