<svg xmlns="http://www.w3.org/2000/svg" width="21.7" height="27.13" viewBox="0 0 21.7 27.13"><g transform="translate(0.75 0.75)"><path d="M6.371-.75A7.121,7.121,0,1,1-.75,6.371,7.129,7.129,0,0,1,6.371-.75Zm0,12.741A5.621,5.621,0,1,0,.75,6.371,5.627,5.627,0,0,0,6.371,11.991Z" transform="translate(3.735 0)" fill="#0391a2"/><path d="M10.1-.75c.991,0,1.995.044,2.982.13A23.471,23.471,0,0,1,16.3-.167C18.549.3,19.99,1.16,20.582,2.405a3.762,3.762,0,0,1,0,3.244c-.6,1.256-2.039,2.117-4.283,2.56a21.776,21.776,0,0,1-3.221.465c-.982.083-1.98.125-2.966.125-.621,0-1.251-.017-1.871-.05a6.157,6.157,0,0,1-1.163-.078A21.385,21.385,0,0,1,3.91,8.209C1.673,7.771.229,6.912-.382,5.655l0-.006A3.812,3.812,0,0,1-.75,4.02,3.72,3.72,0,0,1-.383,2.4l0-.01C.437.763,2.65.09,3.9-.167A23.213,23.213,0,0,1,7.118-.62C8.1-.706,9.108-.75,10.1-.75Zm.015,8.05c.946,0,1.9-.041,2.845-.12h.012a20.268,20.268,0,0,0,3.012-.435l.018,0C17.734,6.4,18.85,5.8,19.228,5a2.267,2.267,0,0,0,0-1.955C18.853,2.264,17.736,1.659,16,1.3H15.99A21.966,21.966,0,0,0,12.97.876h-.013C12.01.792,11.049.75,10.1.75S8.188.792,7.242.875H7.228a21.708,21.708,0,0,0-3.02.425H4.2c-1.667.342-2.846.982-3.236,1.756a2.216,2.216,0,0,0-.216.96A2.308,2.308,0,0,0,.969,5c.39.8,1.51,1.4,3.238,1.736l.021,0a19.877,19.877,0,0,0,3,.435.749.749,0,0,1,.1.013,4.775,4.775,0,0,0,.939.059H8.3C8.9,7.283,9.512,7.3,10.114,7.3Z" transform="translate(0 17.58)" fill="#f7b905"/></g></svg>