<svg xmlns="http://www.w3.org/2000/svg" width="26.5" height="31.5" viewBox="0 0 26.5 31.5"><g transform="translate(0 0)"><path d="M6.163-.75H16.858a.75.75,0,0,1,.545.235L25.545,8.1a.75.75,0,0,1,.2.515V23.591a7.043,7.043,0,0,1-6.744,7.139H6.163A6.954,6.954,0,0,1-.75,23.591V6.091A6.738,6.738,0,0,1,1.316,1.248,6.906,6.906,0,0,1,6.163-.75ZM16.535.75H6.163A5.45,5.45,0,0,0,.75,6.091v17.5A5.471,5.471,0,0,0,6.163,29.23H19.006a5.526,5.526,0,0,0,5.244-5.639V8.917Z" transform="translate(0.75 0.77)" fill="#0391a2"/><path d="M7.243,10.026q-1.114,0-2.9,0a5.111,5.111,0,0,1-5.09-5.1V0A.75.75,0,0,1,0-.75.75.75,0,0,1,.75,0V4.919a3.608,3.608,0,0,0,3.594,3.6c3.185.007,4.47,0,4.613,0a.75.75,0,0,1,.093,1.5C8.958,10.023,8.352,10.026,7.243,10.026Z" transform="translate(16.742 0.75)" fill="#0391a2"/><path d="M9.743,1.25H0A.75.75,0,0,1-.75.5.75.75,0,0,1,0-.25H9.743a.75.75,0,0,1,0,1.5Z" transform="translate(10.511 21.172)" fill="#f7b905"/><path d="M2.185,1.25H0A.75.75,0,0,1,0-.25H2.185a.75.75,0,0,1,0,1.5Z" transform="translate(6.154 21.172)" fill="#f7b905"/><path d="M5.674,1.25H0A.75.75,0,0,1,0-.25H5.674a.75.75,0,0,1,0,1.5Z" transform="translate(10.674 13.082)" fill="#f7b905"/><path d="M2.186,1.25H0A.75.75,0,1,1,0-.25H2.186a.75.75,0,0,1,0,1.5Z" transform="translate(6.154 13.082)" fill="#f7b905"/></g></svg>