<svg xmlns="http://www.w3.org/2000/svg" width="182.32" height="182.32" viewBox="0 0 182.32 182.32"><path d="M182.32,1780.658H109.491l67.286-27.872-2.792-6.736L106.7,1773.92l51.5-51.5-5.156-5.157-51.5,51.5,27.87-67.284-6.737-2.793-27.869,67.284v-72.827H87.513v72.827l-27.869-67.284-6.737,2.793,27.869,67.284-51.5-51.5-5.156,5.157,51.5,51.5L8.334,1746.05l-2.792,6.736,67.286,27.872H0v7.293H72.828L5.543,1815.822l2.792,6.738,67.285-27.872-51.5,51.5,5.156,5.156,51.5-51.5-27.869,67.283,6.737,2.792,27.869-67.284v72.829h7.294v-72.829l27.869,67.284,6.737-2.792-27.87-67.283,51.5,51.5,5.156-5.156-51.5-51.5,67.285,27.872,2.792-6.738-67.286-27.871H182.32Z" transform="translate(0 -1693.145)" fill="#fff"/></svg>