<svg xmlns="http://www.w3.org/2000/svg" width="179.454" height="27" viewBox="0 0 179.454 27"><g transform="translate(-404.5 -2183.5)"><g transform="translate(405 2184)"><g transform="translate(0 0)"><path d="M11.485,26.5a4.923,4.923,0,0,1-3.8-1.789L.625,16.14a4.937,4.937,0,0,1,0-6.276L7.424,1.6h0l.255-.309A4.923,4.923,0,0,1,11.481-.5H174.019a4.938,4.938,0,0,1,4.936,4.936V21.559a4.938,4.938,0,0,1-4.936,4.936Zm-3-24.614-.033.04L1.4,10.5a3.937,3.937,0,0,0,0,5l7.055,8.57A3.925,3.925,0,0,0,11.485,25.5H11.5l162.518,0a3.938,3.938,0,0,0,3.936-3.936V4.436A3.938,3.938,0,0,0,174.018.5H11.481A3.925,3.925,0,0,0,8.482,1.886ZM15.541,18.72A5.726,5.726,0,0,1,9.814,13,5.708,5.708,0,0,1,15.523,7.27h.022a5.725,5.725,0,0,1,0,11.45ZM15.523,8.27a4.768,4.768,0,1,0,.019,0Z" transform="translate(0 0)" fill="#e23f4c"/><path d="M139.653,116.4a2.382,2.382,0,0,1-1.693-.7l-.856-.854h.3a2.4,2.4,0,1,1,2.245,1.554Zm-.977-1.4a1.388,1.388,0,0,0,.977.4,1.4,1.4,0,1,0-1.4-1.4,1.389,1.389,0,0,0,.41.988Z" transform="translate(-124.112 -101.007)" fill="#e23f4c"/></g></g></g></svg>