<svg xmlns="http://www.w3.org/2000/svg" width="26.938" height="31.539" viewBox="0 0 26.938 31.539"><g transform="translate(0 0)"><path d="M6.271-.75H17.152a.75.75,0,0,1,.541.231l8.286,8.63a.75.75,0,0,1,.209.519V23.662a7.077,7.077,0,0,1-6.851,7.108H6.271A6.945,6.945,0,0,1,1.266,28.7,7.135,7.135,0,0,1-.75,23.662V6.1a6.7,6.7,0,0,1,2.1-4.854A7.067,7.067,0,0,1,6.271-.75ZM16.832.75H6.271A5.51,5.51,0,0,0,.75,6.1V23.662A5.506,5.506,0,0,0,6.271,29.27H19.337a5.558,5.558,0,0,0,5.351-5.608V8.932Z" transform="translate(0.75 0.769)" fill="#0391a2"/><path d="M7.042,9.724c-.657,0-1.57,0-2.842,0A4.969,4.969,0,0,1-.75,4.758V0A.75.75,0,0,1,0-.75.75.75,0,0,1,.75,0V4.758A3.467,3.467,0,0,0,4.2,8.22c3.073.007,4.318,0,4.459,0a.75.75,0,0,1,.093,1.5C8.717,9.718,8.621,9.724,7.042,9.724Z" transform="translate(17.472 0.75)" fill="#0391a2"/><path d="M.5,11.5a.75.75,0,0,1-.75-.75V0a.75.75,0,1,1,1.5,0V10.751A.75.75,0,0,1,.5,11.5Z" transform="translate(12.339 11.694)" fill="#ffca1f"/><path d="M4.642,5.413a.749.749,0,0,1-.532-.221L-.532.529a.75.75,0,0,1,0-1.061.75.75,0,0,1,1.061,0L4.642,3.6,8.754-.529a.75.75,0,0,1,1.061,0,.75.75,0,0,1,0,1.061L5.174,5.193A.75.75,0,0,1,4.642,5.413Z" transform="translate(8.196 17.783)" fill="#ffca1f"/></g></svg>