<svg aria-hidden="true" xmlns="http://www.w3.org/2000/svg" xmlns:xlink="http://www.w3.org/1999/xlink"><symbol viewBox="0 0 17 17" id="svg-akciya" xmlns="http://www.w3.org/2000/svg"><defs><clipPath id="aaa"><rect width="17" height="17"/></clipPath></defs><g clip-path="url(#aaa)"><path d="M17,8.5a8.508,8.508,0,1,0-2.492,6.008A8.5,8.5,0,0,0,17,8.5Zm-5.092,3.408a1.368,1.368,0,0,1-1.953,0,1.384,1.384,0,0,1,1.953-1.953,1.368,1.368,0,0,1,0,1.953ZM5.092,5.092a1.368,1.368,0,0,1,1.953,0A1.384,1.384,0,1,1,5.092,7.045a1.368,1.368,0,0,1,0-1.953m.973,7.243a.791.791,0,0,1-.617-1.289l4.871-6.08a.79.79,0,1,1,1.233.988l-4.871,6.08A.791.791,0,0,1,6.065,12.335Z" transform="translate(0 0)"/></g></symbol><symbol viewBox="0 0 23.722 26.5" id="svg-bag" xmlns="http://www.w3.org/2000/svg"><g transform="translate(0.75 0.75)"><path d="M10.083,9.823a.75.75,0,0,1-.75-.75V5.031A4.291,4.291,0,0,0,.75,5.011V9.073a.75.75,0,0,1-.75.75.75.75,0,0,1-.75-.75V5.008A5.78,5.78,0,0,1,5.056-.75a5.786,5.786,0,0,1,5.776,5.781V9.073A.75.75,0,0,1,10.083,9.823Z" transform="translate(6.062 0)"/><path d="M16.491,19.784H3.731A5.372,5.372,0,0,1-1.75,14.541a.752.752,0,0,1,0-.082L-.639,4.45A5.374,5.374,0,0,1,4.842-.75H15.38a5.374,5.374,0,0,1,5.481,5.2l1.107,10.009a.752.752,0,0,1,0,.082A5.372,5.372,0,0,1,16.491,19.784ZM-.25,14.581a3.875,3.875,0,0,0,3.981,3.7h12.76a3.875,3.875,0,0,0,3.981-3.7L19.365,4.575a.752.752,0,0,1,0-.082A3.872,3.872,0,0,0,15.38.75H4.842A3.872,3.872,0,0,0,.861,4.493a.752.752,0,0,1,0,.082Z" transform="translate(1 5.966)"/></g></symbol><symbol viewBox="0 0 13.6 8" id="svg-btn-arrow" xmlns="http://www.w3.org/2000/svg"><defs><clipPath id="aca"><rect width="13.6" height="8"/></clipPath></defs><g clip-path="url(#aca)"><path d="M13.6,4a.672.672,0,0,0-.163-.413l-3.2-3.4a.687.687,0,0,0-.875-.05.625.625,0,0,0,.006.875L11.619,3.4H.6a.6.6,0,1,0,0,1.2H11.619L9.369,6.987a.661.661,0,0,0-.006.875.678.678,0,0,0,.875-.05l3.2-3.4A.577.577,0,0,0,13.6,4Z" transform="translate(0 0)"/></g></symbol><symbol viewBox="0 0 15 17.355" id="svg-catalog" xmlns="http://www.w3.org/2000/svg"><defs><clipPath id="ada"><rect width="15" height="17.355"/></clipPath></defs><g clip-path="url(#ada)"><path d="M6.322,17.355H2.6a2.6,2.6,0,0,1-2.6-2.6V2.6A2.6,2.6,0,0,1,2.6,0H12.4A2.6,2.6,0,0,1,15,2.6V8.677a.868.868,0,0,1-1.736,0V2.6a.868.868,0,0,0-.868-.868H2.6a.868.868,0,0,0-.868.868V14.752a.868.868,0,0,0,.868.868H6.322a.868.868,0,1,1,0,1.735Z" transform="translate(0 0)"/><path d="M100.527,118.4H94.2a.868.868,0,0,1,0-1.736h6.322a.868.868,0,0,1,0,1.736" transform="translate(-89.866 -112.323)"/><path d="M97.058,211.731H94.207a.868.868,0,1,1,0-1.735h2.851a.868.868,0,1,1,0,1.735" transform="translate(-89.868 -202.186)"/><path d="M196.811,263.6a3.471,3.471,0,1,1,2.454-1.017A3.471,3.471,0,0,1,196.811,263.6Zm0-5.206a1.735,1.735,0,1,0,1.227.508,1.736,1.736,0,0,0-1.227-.508" transform="translate(-186.15 -247.117)"/><path d="M315.577,379.771a.868.868,0,0,1-.613-.254l-1.631-1.631a.868.868,0,0,1,1.227-1.227l1.631,1.631h0a.868.868,0,0,1-.613,1.481Z" transform="translate(-301.445 -362.416)"/></g></symbol><symbol viewBox="0 0 159.998 320" id="svg-categories-1-icon" xmlns="http://www.w3.org/2000/svg"><defs><clipPath id="aea"><rect width="159.998" height="320"/></clipPath></defs><g clip-path="url(#aea)"><path d="M980.48,289.692a160,160,0,1,0,0,320Z" transform="translate(-820.482 -289.688)"/></g></symbol><symbol viewBox="0 0 197.5 197.5" id="svg-categories-2-icon" xmlns="http://www.w3.org/2000/svg"><defs><clipPath id="afa"><rect width="98.744" height="98.75"/></clipPath><clipPath id="afb"><rect width="98.756" height="98.75"/></clipPath></defs><g transform="translate(-890 -914.5)"><g transform="translate(988.756 1013.25)"><g clip-path="url(#afa)"><path d="M1829.676,1342.07l-98.75-98.75h98.75Z" transform="translate(-1730.93 -1243.32)"/></g></g><g transform="translate(890 1013.25)"><g clip-path="url(#afb)"><path d="M1739.711,1342.07l-98.75-98.75h98.75Z" transform="translate(-1640.96 -1243.32)"/></g></g><g transform="translate(988.756 914.5)"><g clip-path="url(#afa)"><path d="M1829.676,1252.105l-98.75-98.75h98.75Z" transform="translate(-1730.93 -1153.355)"/></g></g><g transform="translate(890 914.5)"><g clip-path="url(#afb)"><path d="M1739.711,1252.105l-98.75-98.75h98.75Z" transform="translate(-1640.96 -1153.355)"/></g></g></g></symbol><symbol viewBox="0 0 238.801 238.801" id="svg-categories-3-icon" xmlns="http://www.w3.org/2000/svg"><path d="M400.137,662.008a42.214,42.214,0,1,1-42.215-42.214V577.579a84.429,84.429,0,1,0,84.43,84.429Z" transform="translate(840.6 334.421) rotate(135)"/></symbol><symbol viewBox="0 0 125.477 125.477" id="svg-categories-4-icon" xmlns="http://www.w3.org/2000/svg"><defs><clipPath id="aha"><rect width="125.477" height="125.477"/></clipPath><clipPath id="ahb"><rect width="62.735" height="62.735"/></clipPath></defs><g transform="translate(-226 -34.523)"><g transform="translate(226 34.523)"><g clip-path="url(#aha)"><path d="M1219.451,990.944h-62.739l-62.739-62.739V865.467Z" transform="translate(-1093.971 -865.469)"/></g></g><g transform="translate(288.742 34.523)"><g clip-path="url(#ahb)"><path d="M1246.678,928.206l-62.739-62.739h62.739Z" transform="translate(-1183.94 -865.469)"/></g></g></g></symbol><symbol viewBox="0 0 156.739 156.739" id="svg-categories-5-icon" xmlns="http://www.w3.org/2000/svg"><defs><clipPath id="aia"><rect width="156.739" height="156.739"/></clipPath></defs><g transform="translate(-4.5 156.739) rotate(-90)"><g transform="translate(0 4.5)"><g clip-path="url(#aia)"><path d="M703.726,368.06a78.369,78.369,0,1,0-78.369,78.369V368.06Z" transform="translate(-546.987 -289.69)"/></g></g></g></symbol><symbol viewBox="0 0 182.32 182.32" id="svg-categories-6-icon" xmlns="http://www.w3.org/2000/svg"><path d="M182.32,1780.658H109.491l67.286-27.872-2.792-6.736L106.7,1773.92l51.5-51.5-5.156-5.157-51.5,51.5,27.87-67.284-6.737-2.793-27.869,67.284v-72.827H87.513v72.827l-27.869-67.284-6.737,2.793,27.869,67.284-51.5-51.5-5.156,5.157,51.5,51.5L8.334,1746.05l-2.792,6.736,67.286,27.872H0v7.293H72.828L5.543,1815.822l2.792,6.738,67.285-27.872-51.5,51.5,5.156,5.156,51.5-51.5-27.869,67.283,6.737,2.792,27.869-67.284v72.829h7.294v-72.829l27.869,67.284,6.737-2.792-27.87-67.283,51.5,51.5,5.156-5.156-51.5-51.5,67.285,27.872,2.792-6.738-67.286-27.871H182.32Z" transform="translate(0 -1693.145)"/></symbol><symbol viewBox="0 0 52 104" id="svg-categories-7-icon" xmlns="http://www.w3.org/2000/svg"><defs><clipPath id="aka"><rect width="26" height="26"/></clipPath></defs><g transform="translate(684.911 4939.309) rotate(180)"><g transform="translate(658.912 4861.308)"><g clip-path="url(#aka)"><rect width="26" height="26"/></g></g><g transform="translate(632.912 4835.309)"><g clip-path="url(#aka)"><rect width="26" height="26" transform="translate(0)"/></g></g><g transform="translate(658.912 4913.309)"><g clip-path="url(#aka)"><rect width="26" height="26"/></g></g><g transform="translate(632.912 4887.309)"><g clip-path="url(#aka)"><rect width="26" height="26" transform="translate(0 -0.001)"/></g></g></g></symbol><symbol viewBox="0 0 54.969 28.283" id="svg-category_1" xmlns="http://www.w3.org/2000/svg"><defs><clipPath id="ala"><rect width="54.969" height="28.283"/></clipPath></defs><g transform="translate(0 0)"><g transform="translate(0 0)" clip-path="url(#ala)"><path d="M51.684,26.434v1.85H46.519V26.678H8.444v1.606H3.279v-1.85A2.263,2.263,0,0,1,2.1,24.778C1.515,20.884.738,16.989.3,13.079.123,11.554-.331,9.444.414,8A3.425,3.425,0,0,1,1.661,6.864,23.6,23.6,0,0,1,5.3,5.582a6.284,6.284,0,0,1,1.975-.308H8.3V3.635A3.736,3.736,0,0,1,12.1,0h12.32a3.825,3.825,0,0,1,3.059,1.492A3.873,3.873,0,0,1,30.541,0h12.32a3.736,3.736,0,0,1,3.8,3.635V5.274h1.117a6.084,6.084,0,0,1,1.943.308l2.881.893a3.284,3.284,0,0,1,.777.324l.162.1a3.225,3.225,0,0,1,.971,1.038c.81,1.444.324,3.586.146,5.144-.437,3.91-1.214,7.8-1.8,11.7a2.26,2.26,0,0,1-1.182,1.655M4.2,25.525h5.893v.016H44.722v-.016h6.039a1.069,1.069,0,0,0,.987-.908c.5-3.359,1.393-8.049,1.8-11.667.21-2,.567-3.619-.1-4.608a5.27,5.27,0,0,0-1.36,1.444,12.334,12.334,0,0,0-1.069,2.11c-.566,1.444-1.068,2.791-1.473,4.17a24.132,24.132,0,0,0-.858,4.284A1.046,1.046,0,0,1,48.4,21a.981.981,0,0,1-.728.325H28.113a1,1,0,0,1-.632-.227v0a1,1,0,0,1-.631.227H7.31A.992.992,0,0,1,6.566,21a1.049,1.049,0,0,1-.291-.649,22.839,22.839,0,0,0-.858-4.284c-.4-1.379-.906-2.726-1.473-4.17a12.291,12.291,0,0,0-1.068-2.11A5.465,5.465,0,0,0,1.531,8.341c-.68.99-.323,2.612-.1,4.608.4,3.618,1.279,8.308,1.781,11.667a1.068,1.068,0,0,0,.987.908M7.31,26.4h-2.9v.746h2.9Zm43.241,0h-2.9v.746h2.9ZM8.622,6.409H7.278a5.067,5.067,0,0,0-1.635.26A23.363,23.363,0,0,0,2.162,7.886,5.693,5.693,0,0,1,3.571,9.4a12.2,12.2,0,0,1,1.1,2.207c.566,1.46,1.085,2.823,1.49,4.235.129.422.259.877.356,1.315l2.59-2.581a1.858,1.858,0,0,1-.485-1.249Zm39.161,0H46.341v6.913a1.822,1.822,0,0,1-.486,1.266c-.032.032-.065.049-.081.081l2.639,2.467c.113-.438.227-.877.356-1.3A44.636,44.636,0,0,1,50.275,11.6a11.34,11.34,0,0,1,1.133-2.256,6.189,6.189,0,0,1,1.409-1.558,2.158,2.158,0,0,0-.55-.227l-2.882-.908a5.394,5.394,0,0,0-1.6-.244M9.431,3.635a2.592,2.592,0,0,1,2.671-2.5h12.32a2.587,2.587,0,0,1,2.655,2.5v9.688a.967.967,0,0,1-.276.7h.016a.87.87,0,0,1-.632.276H10.338a.845.845,0,0,1-.632-.276,1.027,1.027,0,0,1-.259-.7c0-3.229-.016-6.458-.016-9.688m18.455,0h0a2.587,2.587,0,0,1,2.655-2.5h12.32a2.591,2.591,0,0,1,2.671,2.5v9.688a1,1,0,0,1-.275.7.809.809,0,0,1-.615.276H28.793a.845.845,0,0,1-.632-.276,1.027,1.027,0,0,1-.259-.7c0-3.229-.016-6.458-.016-9.688m0,11.213h0a1.709,1.709,0,0,0,.907.276H44.641a1.473,1.473,0,0,0,.373-.048l1.878,1.752H28.113a.908.908,0,0,0-.21.016ZM9.8,15.026h0a.947.947,0,0,0,.291.065,1.088,1.088,0,0,0,.243.032H26.186a1.669,1.669,0,0,0,.874-.259.016.016,0,0,0,.016-.016l.016,2.012a1.224,1.224,0,0,0-.243-.033H8.006ZM27.077,17.9a.24.24,0,0,0-.227-.26H7.31a.241.241,0,0,0-.145.065.3.3,0,0,0-.082.2v2.353a.262.262,0,0,0,.227.26H26.85a.29.29,0,0,0,.162-.065.286.286,0,0,0,.065-.2Zm1.036-.26a.291.291,0,0,0-.146.065.283.283,0,0,0-.065.2v2.353a.312.312,0,0,0,.065.2.291.291,0,0,0,.146.065H47.669a.291.291,0,0,0,.146-.065.283.283,0,0,0,.065-.2V17.9a.312.312,0,0,0-.065-.2.241.241,0,0,0-.146-.065Z" transform="translate(0 0)" fill-rule="evenodd"/></g></g></symbol><symbol viewBox="0 0 62.914 31.439" id="svg-category_3" xmlns="http://www.w3.org/2000/svg"><defs><clipPath id="ama"><rect width="62.914" height="31.439"/></clipPath></defs><g transform="translate(0 0)"><g transform="translate(0 0)" clip-path="url(#ama)"><path d="M22.42.476A1.486,1.486,0,0,0,21.331,0H8.18A1.679,1.679,0,0,0,6.593,1.742V7.061H2.364A2.361,2.361,0,0,0,0,9.431v5.644a1.591,1.591,0,0,0,.66,1.3A2.4,2.4,0,0,0,0,18.025v3.438a2.356,2.356,0,0,0,2.34,2.369h34.9v7.607H60.933a1.98,1.98,0,0,0,1.981-1.974V24.958a1.984,1.984,0,0,0-.765-1.568,1.217,1.217,0,0,0,.267-.754V19.419c-.012-1.115-.718-1.5-1.483-2.16L59.717,16.2a1.6,1.6,0,0,0,.463-1.127V9.431a2.369,2.369,0,0,0-2.364-2.369H53.564V1.742A1.679,1.679,0,0,0,51.977,0H38.826a1.484,1.484,0,0,0-1.089.476A1.48,1.48,0,0,0,36.659,0H23.5A1.458,1.458,0,0,0,22.42.476m36.509,15.3a.747.747,0,0,0,.44-.7V9.431a1.555,1.555,0,0,0-1.552-1.556H54.653l.046.035a2.179,2.179,0,0,1,.637,1.545v3.217ZM38.05,23.785H60.933a1.168,1.168,0,0,1,1.17,1.173v4.506a1.166,1.166,0,0,1-1.17,1.162H38.05ZM4.831,15.853H1.587a.777.777,0,0,1-.776-.778V9.431A1.555,1.555,0,0,1,2.364,7.874H5.527l-.046.035a2.179,2.179,0,0,0-.638,1.545v3.461a.546.546,0,0,0-.012.186v2.753ZM6.766,7.874h0a1.529,1.529,0,0,0-.869.441,1.619,1.619,0,0,0-.475,1.138v2.88l1.831-1.777a.313.313,0,0,1-.058-.069A1.373,1.373,0,0,1,6.778,9.5V7.874ZM38.444,19.024H61.223a.389.389,0,0,1,.382.395v3.217a.386.386,0,0,1-.382.383H38.444a.389.389,0,0,1-.394-.383V19.419a.391.391,0,0,1,.394-.395M2.34,16.468h35v6.55h-35A1.542,1.542,0,0,1,.811,21.462V18.025A1.55,1.55,0,0,1,2.34,16.468M21.331.813H8.18a.867.867,0,0,0-.776.929V9.5a.739.739,0,0,0,.232.546.75.75,0,0,0,.51.232H21.331a.772.772,0,0,0,.776-.778V1.742a.867.867,0,0,0-.776-.929m17.5,0H51.977a.867.867,0,0,1,.776.929V9.5a.739.739,0,0,1-.232.546.75.75,0,0,1-.51.232H38.826A.772.772,0,0,1,38.05,9.5V1.742a.867.867,0,0,1,.776-.929M52.3,10.859l8.574,7.421H38.258a1.257,1.257,0,0,0-.209.023l-.011-7.654c.011.012.034.023.046.035a1.373,1.373,0,0,0,.741.209H51.977a1.545,1.545,0,0,0,.324-.034M37.436,9.5V1.742a.875.875,0,0,0-.776-.929H23.5a.875.875,0,0,0-.776.929V9.5a.787.787,0,0,0,.232.546.753.753,0,0,0,.545.232H36.659a.773.773,0,0,0,.545-.232.785.785,0,0,0,.232-.546m-7.357,2.764h7.137a1.445,1.445,0,0,1,.22.023l-.011-1.626a1.352,1.352,0,0,1-.765.232H23.5a1.352,1.352,0,0,1-.765-.232l-.011,1.626a1.306,1.306,0,0,1,.22-.023Zm7.357,3.368V13.1a.22.22,0,0,0-.22-.22H22.941a.22.22,0,0,0-.22.22v2.532a.22.22,0,0,0,.22.221H37.216a.22.22,0,0,0,.22-.221M7.856,10.859l-1.6,1.405h15.63a.679.679,0,0,1,.22.023l.012-1.638c-.012.012-.035.023-.047.035a1.374,1.374,0,0,1-.741.209H8.18a1.468,1.468,0,0,1-.324-.034M21.887,12.88a.211.211,0,0,1,.22.209v2.543a.211.211,0,0,1-.209.221H5.666a.218.218,0,0,1-.22-.209V13.1a.22.22,0,0,1,.22-.22ZM53.414,7.874h0a1.529,1.529,0,0,1,.869.441,1.619,1.619,0,0,1,.475,1.138V12.16l-1.68-1.452-.162-.151.07-.069A1.372,1.372,0,0,0,53.4,9.5V7.874Z" transform="translate(0 0)" fill-rule="evenodd"/></g></g></symbol><symbol viewBox="0 0 37 28.394" id="svg-category_4" xmlns="http://www.w3.org/2000/svg"><defs><clipPath id="ana"><rect width="37" height="28.394"/></clipPath></defs><g transform="translate(0 0)"><g transform="translate(0 0)" clip-path="url(#ana)"><path d="M8.774,2.945v-.31A2.588,2.588,0,0,1,11.294,0H25.705a2.587,2.587,0,0,1,2.52,2.635v.31h1.037a6.23,6.23,0,0,1,1.994.31l3.263,1.038a3.82,3.82,0,0,1,.99.45,2.5,2.5,0,0,1,.526.465,2.892,2.892,0,0,1,.433.527,4.48,4.48,0,0,1,.526,2.6c-.031,1.085-.2,2.155-.325,3.224-.494,4.495-1.361,8.943-2.025,13.423a2.187,2.187,0,0,1-1.3,1.689v1.72h-5.35v-1.55H9.005v1.55H3.655v-1.72a2.185,2.185,0,0,1-1.3-1.689C1.692,20.505.826,16.057.331,11.562.223,10.493.037,9.423.006,8.338a4.483,4.483,0,0,1,.525-2.6,2.94,2.94,0,0,1,.959-.992,4.064,4.064,0,0,1,.99-.45L5.743,3.255a6.3,6.3,0,0,1,1.994-.31ZM1.6,6.231a3.337,3.337,0,0,0-.433,2.077c.031,1.023.217,2.092.325,3.131.216,2.03.525,4.076.85,6.091.386,2.433.8,4.851,1.16,7.284a1,1,0,0,0,.99.853H32.509a1,1,0,0,0,.99-.853c.355-2.433.773-4.851,1.16-7.284.324-2.015.634-4.061.85-6.091.124-1.039.294-2.092.325-3.131A3.341,3.341,0,0,0,35.4,6.231a4.655,4.655,0,0,0-1.238,1.286,11.32,11.32,0,0,0-.99,1.984c-.093.217-.185.433-.263.651-1.067,2.541-2.3,4.8-2.3,7.641v1.674A1.536,1.536,0,0,1,29.076,21H7.923a1.536,1.536,0,0,1-1.531-1.534V17.716c0-2.806-1.237-5.053-2.288-7.564-.093-.218-.186-.434-.263-.651A11.386,11.386,0,0,0,2.836,7.517,4.439,4.439,0,0,0,1.6,6.231m30.585,20.3H29.153v.7h3.031Zm-24.338,0H4.815v.7H7.846ZM27.962,4.107v7.238a2.569,2.569,0,0,1-.773,1.844L29.942,16.3a31,31,0,0,1,2.165-6.479c.093-.217.186-.434.278-.666a11.376,11.376,0,0,1,1.067-2.123,5.291,5.291,0,0,1,1.3-1.4,3.015,3.015,0,0,0-.572-.248L30.9,4.355a5.314,5.314,0,0,0-1.638-.248Zm-18.926,0h-1.3A5.317,5.317,0,0,0,6.1,4.355L2.821,5.394a2.512,2.512,0,0,0-.557.248,5.574,5.574,0,0,1,1.3,1.4A13.586,13.586,0,0,1,4.63,9.16c.093.232.185.45.278.666a31.784,31.784,0,0,1,2.118,6.262L9.7,13.066a2.592,2.592,0,0,1-.665-1.706Zm1.407,8.463.031.015a1.811,1.811,0,0,0,1.284.528H25.241a1.861,1.861,0,0,0,1.252-.481l.031-.047a1.7,1.7,0,0,0,.541-1.24V2.635a1.429,1.429,0,0,0-1.361-1.473H11.294A1.417,1.417,0,0,0,9.949,2.635c0,2.914-.016,5.812-.016,8.725a1.72,1.72,0,0,0,.51,1.209m16.035,1.116a2.643,2.643,0,0,1-1.237.295H11.758a2.8,2.8,0,0,1-1.391-.372l-2.15,2.433H28.55ZM7.258,19.467a.67.67,0,0,0,.665.666H29.076a.67.67,0,0,0,.665-.666V17.576a.681.681,0,0,0-.2-.481.655.655,0,0,0-.464-.186H7.923a.655.655,0,0,0-.464.186.681.681,0,0,0-.2.481Z" transform="translate(0 0)" fill-rule="evenodd"/></g></g></symbol><symbol viewBox="0 0 34 20.924" id="svg-category_5" xmlns="http://www.w3.org/2000/svg"><defs><clipPath id="aoa"><rect width="34" height="20.924"/></clipPath></defs><g transform="translate(0 0)"><g transform="translate(0 0)" clip-path="url(#aoa)"><path d="M31.82,18.5v2.423H24.134v-2.1H9.866v2.1H2.18V18.5A3.674,3.674,0,0,1,0,15.169V3.678A3.671,3.671,0,0,1,3.67,0H30.33A3.67,3.67,0,0,1,34,3.678V15.169A3.673,3.673,0,0,1,31.82,18.5M31.41,7.422H2.591A1.1,1.1,0,0,0,1.512,8.5v6.665A2.163,2.163,0,0,0,3.67,17.311H30.33a2.163,2.163,0,0,0,2.159-2.142V8.5A1.1,1.1,0,0,0,31.41,7.422M2.591,6.34H31.41a1.083,1.083,0,0,0,1.079-1.081V3.678A2.167,2.167,0,0,0,30.33,1.515H3.67A2.167,2.167,0,0,0,1.512,3.678v1.58A1.083,1.083,0,0,0,2.591,6.34m1.1,12.01H8.355v1.06H3.692Zm26.618,0H25.646v1.06h4.663Z" transform="translate(0 0)" fill-rule="evenodd"/></g></g></symbol><symbol viewBox="0 0 55.212 31" id="svg-category_6" xmlns="http://www.w3.org/2000/svg"><defs><clipPath id="apa"><rect width="55.212" height="31"/></clipPath></defs><g transform="translate(0 0)" clip-path="url(#apa)"><path d="M.376,15.917a1.842,1.842,0,0,1-.361-1.038A3.644,3.644,0,0,1,.6,12.834c1-1.541,3.107-2.045,4.817-2.328,2.134-.362,4.33-.488,6.5-.786A21.755,21.755,0,0,0,16.365,8.7a41.113,41.113,0,0,0,6.37-2.973C23.96,5,25.058,4.184,26.219,3.4A18.933,18.933,0,0,1,32.339.756,22.509,22.509,0,0,1,36.9.032C43.667-.345,49.08,2.6,49.928,9.736a5.292,5.292,0,0,1,1.13-.126c5.334.031,5.256,7.172,1.333,7.565-.424,3.476-.91,6.952-1.4,10.412a2.114,2.114,0,0,1-1.145,1.62V31H44.844V29.443H7.924V31H2.918V29.207a2.116,2.116,0,0,1-1.145-1.62c-.2-1.431-.408-2.878-.6-4.325a2.1,2.1,0,0,1,.251-1.369A2.525,2.525,0,0,1,.22,20.179,10.561,10.561,0,0,1,0,18.339V16.971a1.662,1.662,0,0,1,.376-1.054M43.526,28.342h5.429a1.068,1.068,0,0,0,.958-.912c.408-2.972.988-7.077,1.38-10.412a1.054,1.054,0,0,1,.957-.928c2.573-.236,2.777-5.364-1.208-5.379a3.2,3.2,0,0,0-3.358,3.129v4.876a7.761,7.761,0,0,1-.2,1.588,2.1,2.1,0,0,1-2.055,1.62H3.295a1.057,1.057,0,0,0-1.035,1.2c.2,1.542.424,3.035.6,4.309a1.067,1.067,0,0,0,.957.912H43.526Zm5.225.849H45.942V29.9h2.808Zm-41.925,0H4.017V29.9H6.826ZM46.209,16.342H1.726a.63.63,0,0,0-.628.629v1.353a9.456,9.456,0,0,0,.188,1.636,1.314,1.314,0,0,0,1.24,1.117h42.9a1.285,1.285,0,0,0,1.223-1.117,7.147,7.147,0,0,0,.189-1.636c.015-.456.015-.9.015-1.353a.634.634,0,0,0-.643-.629M16.742,9.72C10.5,12.079,1.1,10.239,1.114,14.879a.655.655,0,0,0,.644.629H46.193a.631.631,0,0,0,.628-.629c0-.362.015-.723.015-1.07a3.937,3.937,0,0,1,1.742-3.24.543.543,0,0,0,.282-.488C47.92.818,39.07.142,32.621,1.825c-7.249,1.887-5.665,4.058-15.879,7.9" transform="translate(0 0)" fill-rule="evenodd"/></g></symbol><symbol viewBox="0 0 21.5 21.5" id="svg-chat" xmlns="http://www.w3.org/2000/svg"><g transform="translate(0.75 0.75)"><path d="M9.085,1.166a1.169,1.169,0,1,1,1.169,1.169A1.169,1.169,0,0,1,9.085,1.166Zm-4.542,0A1.168,1.168,0,1,1,5.711,2.336,1.169,1.169,0,0,1,4.543,1.166ZM0,1.166A1.169,1.169,0,1,1,1.168,2.336,1.169,1.169,0,0,1,0,1.166Z" transform="translate(4.527 9.056)"/><path d="M1.168-.5A1.668,1.668,0,1,1-.5,1.166,1.67,1.67,0,0,1,1.168-.5Zm0,2.336A.668.668,0,1,0,.5,1.166.67.67,0,0,0,1.168,1.836ZM5.711-.5A1.668,1.668,0,1,1,4.043,1.166,1.669,1.669,0,0,1,5.711-.5Zm0,2.336a.668.668,0,1,0-.668-.669A.669.669,0,0,0,5.711,1.836ZM10.255-.5A1.668,1.668,0,1,1,8.585,1.166,1.669,1.669,0,0,1,10.255-.5Zm0,2.336a.668.668,0,1,0-.669-.669A.669.669,0,0,0,10.255,1.836Z" transform="translate(4.527 9.056)"/><path d="M10.02-.75a10.609,10.609,0,0,1,7.657,3.22,10.8,10.8,0,0,1,2.255,3.419,10.638,10.638,0,0,1,.818,4.1,10.561,10.561,0,0,1-3.382,7.876A11,11,0,0,1,10,20.75a10.731,10.731,0,0,1-5.3-1.406l-.01-.006a1.7,1.7,0,0,0-.715-.314.479.479,0,0,0-.15.026l-.02.006-2.015.6a1.5,1.5,0,0,1-.445.068,1.364,1.364,0,0,1-1.1-.535,1.4,1.4,0,0,1-.219-1.231l0-.014L.7,15.7l.011-.035a.317.317,0,0,0,0-.261L.691,15.37A11.315,11.315,0,0,1-.75,10.015a10.7,10.7,0,0,1,.8-4.072A10.841,10.841,0,0,1,2.291,2.511,10.634,10.634,0,0,1,10.02-.75Zm-.02,20A9.25,9.25,0,0,0,10.02.75,9.278,9.278,0,0,0,.75,10.015,9.809,9.809,0,0,0,2,14.639a1.8,1.8,0,0,1,.133,1.5l-.6,2.023,1.838-.546a1.979,1.979,0,0,1,.606-.1,2.823,2.823,0,0,1,1.492.531A9.191,9.191,0,0,0,10,19.25Z"/></g></symbol><symbol viewBox="0 0 10 7.457" id="svg-check" xmlns="http://www.w3.org/2000/svg"><path d="M3.4,11.888.146,8.638a.5.5,0,0,1,0-.707l.707-.707a.5.5,0,0,1,.707,0L3.75,9.413,8.439,4.724a.5.5,0,0,1,.707,0l.707.707a.5.5,0,0,1,0,.707L4.1,11.888A.5.5,0,0,1,3.4,11.888Z" transform="translate(0 -4.577)"/></symbol><symbol viewBox="0 0 20 20" id="svg-clock" xmlns="http://www.w3.org/2000/svg"><g transform="translate(0 0)"><path d="M9.25-.75a10,10,0,1,1-10,10A10.011,10.011,0,0,1,9.25-.75Zm0,18.5a8.5,8.5,0,1,0-8.5-8.5A8.51,8.51,0,0,0,9.25,17.75Z" transform="translate(0.75 0.751)"/><path d="M3.769,7.846a.746.746,0,0,1-.384-.106L-.384,5.491A.75.75,0,0,1-.75,4.847V0A.75.75,0,0,1,0-.75.75.75,0,0,1,.75,0V4.421l3.4,2.031a.75.75,0,0,1-.385,1.394Z" transform="translate(9.661 5.847)"/></g></symbol><symbol viewBox="0 0 47.196 20" id="svg-discount" xmlns="http://www.w3.org/2000/svg"><defs><clipPath id="ata"><rect width="47.196" height="20"/></clipPath></defs><g clip-path="url(#ata)"><path d="M6.2,1.237.778,7.832a3.413,3.413,0,0,0,0,4.339l5.427,6.592A3.413,3.413,0,0,0,8.848,20l34.936,0A3.414,3.414,0,0,0,47.2,16.584V3.412A3.414,3.414,0,0,0,43.784,0H8.845A3.413,3.413,0,0,0,6.2,1.237Zm5.753,4.74A4.006,4.006,0,1,1,9.107,7.15a4.02,4.02,0,0,1,2.848-1.173" transform="translate(0 0)"/><path d="M138.184,114.6a1.459,1.459,0,1,0-.428-1.032,1.46,1.46,0,0,0,.428,1.032Z" transform="translate(-127.26 -103.569)"/></g></symbol><symbol viewBox="0 0 14 15.625" id="svg-filter" xmlns="http://www.w3.org/2000/svg"><defs><clipPath id="ava"><rect width="14" height="15.625"/></clipPath></defs><g clip-path="url(#ava)"><path d="M5.426,15.595a.175.175,0,0,0,.117.029.413.413,0,0,0,.175-.058l2.915-2.332A.36.36,0,0,0,8.749,13V8.249L13.821,1.4a.848.848,0,0,0,.087-.9.878.878,0,0,0-.787-.5H.878a.859.859,0,0,0-.787.5.849.849,0,0,0,.088.9L5.251,8.249v7.084a.255.255,0,0,0,.175.262Z" transform="translate(0 0.001)"/></g></symbol><symbol viewBox="0 0 13.259 13.259" id="svg-filter-choose-close" xmlns="http://www.w3.org/2000/svg"><path d="M10,3.375A6.629,6.629,0,1,0,16.634,10,6.628,6.628,0,0,0,10,3.375Zm1.68,9.029L10,10.725,8.325,12.4a.509.509,0,1,1-.72-.72L9.284,10,7.6,8.325a.509.509,0,0,1,.72-.72L10,9.284l1.68-1.68a.509.509,0,0,1,.72.72L10.725,10l1.68,1.68a.512.512,0,0,1,0,.72A.506.506,0,0,1,11.684,12.4Z" transform="translate(-3.375 -3.375)"/></symbol><symbol viewBox="0 0 26.841 25.5" id="svg-heart" xmlns="http://www.w3.org/2000/svg"><g transform="translate(0.754 0.75)"><path d="M12.673,24.75a.749.749,0,0,1-.385-.107l-.325-.195-.008,0A47.281,47.281,0,0,1,3.8,18.091l-.006-.006a16.83,16.83,0,0,1-4-6.379l-.005-.016A10.482,10.482,0,0,1-.028,4.533,8.327,8.327,0,0,1,5.2-.331a8.7,8.7,0,0,1,2.67-.42A8.8,8.8,0,0,1,12.662.686a8.808,8.808,0,0,1,4.8-1.435,8.711,8.711,0,0,1,2.667.418,8.345,8.345,0,0,1,5.233,4.862,10.464,10.464,0,0,1,.195,7.158l-.005.016a16.83,16.83,0,0,1-4,6.379l-.006.006a47.281,47.281,0,0,1-8.158,6.352l-.31.193A.75.75,0,0,1,12.673,24.75ZM4.845,17.019a45.785,45.785,0,0,0,7.822,6.1,45.788,45.788,0,0,0,7.822-6.1,15.322,15.322,0,0,0,3.636-5.8C25.35,7.4,24.2,2.56,19.664,1.1A7.212,7.212,0,0,0,17.457.751,7.3,7.3,0,0,0,13.111,2.2a.75.75,0,0,1-.9,0A7.217,7.217,0,0,0,5.658,1.1C1.126,2.557-.016,7.4,1.209,11.223A15.322,15.322,0,0,0,4.845,17.019Z" transform="translate(0 0)"/><path d="M2.555,3.979a.75.75,0,0,1-.747-.687A2.949,2.949,0,0,0-.228.714.75.75,0,0,1-.714-.228.75.75,0,0,1,.228-.714,4.444,4.444,0,0,1,3.3,3.166a.75.75,0,0,1-.685.81Z" transform="translate(17.652 5.404)"/></g></symbol><symbol viewBox="0 0 15.293 14.563" id="svg-heart-2" xmlns="http://www.w3.org/2000/svg"><g transform="translate(-610.248 -2239.25)"><g transform="translate(611 2240)"><path d="M6.9,13.813a.749.749,0,0,1-.385-.107L6.336,13.6l-.008,0a26.078,26.078,0,0,1-4.5-3.5l-.006-.006a9.5,9.5,0,0,1-2.26-3.6l-.005-.016a6.048,6.048,0,0,1,.111-4.13A4.869,4.869,0,0,1,2.725-.505,5.076,5.076,0,0,1,4.282-.75a5.131,5.131,0,0,1,2.61.721A5.137,5.137,0,0,1,9.5-.749a5.083,5.083,0,0,1,1.556.244,4.879,4.879,0,0,1,3.06,2.842,6.038,6.038,0,0,1,.115,4.131l-.005.016a9.5,9.5,0,0,1-2.26,3.6l-.006.006a26.078,26.078,0,0,1-4.5,3.5l-.168.1A.749.749,0,0,1,6.9,13.813ZM2.877,9.02a24.583,24.583,0,0,0,4.018,3.162A24.588,24.588,0,0,0,10.913,9.02,8,8,0,0,0,12.808,6c.614-1.92.049-4.35-2.209-5.078a3.593,3.593,0,0,0-3.257.55.75.75,0,0,1-.9,0A3.586,3.586,0,0,0,3.184.923C.93,1.649.368,4.079.982,6A8,8,0,0,0,2.877,9.02Z" transform="translate(0 0)"/><path d="M1.39,2.508a.75.75,0,0,1-.747-.687A1.264,1.264,0,0,0-.228.714.75.75,0,0,1-.714-.228.75.75,0,0,1,.228-.714a2.76,2.76,0,0,1,1.91,2.409.75.75,0,0,1-.685.81Z" transform="translate(9.608 2.941)"/></g></g></symbol><symbol viewBox="0 0 12.863 15.086" id="svg-location" xmlns="http://www.w3.org/2000/svg"><g transform="translate(0.011 0.011)"><path d="M5.681-.75H5.7A6.439,6.439,0,0,1,12.113,5.7v.064s0,.007,0,.011A9.28,9.28,0,0,1,9.3,11.728l0,0a15.994,15.994,0,0,1-2.813,2.321,1.282,1.282,0,0,1-1.609,0A15.645,15.645,0,0,1,.906,10.327,8.026,8.026,0,0,1-.75,5.7q0-.01,0-.02v-.02A6.432,6.432,0,0,1,5.681-.75Zm5.287,6.512V5.7A5.293,5.293,0,0,0,5.7.395H5.681A5.3,5.3,0,0,0,.395,5.663v.008A6.888,6.888,0,0,0,1.816,9.633l0,0a14.505,14.505,0,0,0,3.709,3.473.572.572,0,0,1,.062.047.138.138,0,0,0,.18,0,.572.572,0,0,1,.064-.048,14.85,14.85,0,0,0,2.637-2.171A8.178,8.178,0,0,0,10.968,5.762Z" transform="translate(0.739 0.739)"/><path d="M1.7-.75A2.45,2.45,0,1,1-.75,1.7,2.453,2.453,0,0,1,1.7-.75Zm0,3.756A1.306,1.306,0,1,0,.395,1.7,1.307,1.307,0,0,0,1.7,3.006Z" transform="translate(4.72 4.813)"/></g></symbol><symbol viewBox="0 0 197.934 46.939" id="svg-main-logo" xmlns="http://www.w3.org/2000/svg"><defs><clipPath id="aza"><rect width="197.934" height="46.939"/></clipPath></defs><g clip-path="url(#aza)"><path d="M164.479,118.017c-.144.02-.291.034-.439.04s-.313.01-.493.01a2.97,2.97,0,0,1-.993-.159,2.019,2.019,0,0,1-.784-.5,2.356,2.356,0,0,1-.52-.862,3.72,3.72,0,0,1-.189-1.261,2.944,2.944,0,0,1,.73-2.144,2.631,2.631,0,0,1,1.973-.747c.09,0,.209,0,.358.01a2.261,2.261,0,0,1,.358.04V111.6h1.7v.877a2.658,2.658,0,0,1,.487-.065c.189-.009.342-.015.459-.015a2.82,2.82,0,0,1,.993.169,2.1,2.1,0,0,1,.784.513,2.335,2.335,0,0,1,.513.872,3.788,3.788,0,0,1,.183,1.236,3.481,3.481,0,0,1-.21,1.266,2.628,2.628,0,0,1-.561.9,2.249,2.249,0,0,1-.838.538,2.946,2.946,0,0,1-1.027.179q-.2,0-.412-.015a2.217,2.217,0,0,1-.372-.055v.977h-1.7Zm-.473-1.037c.063,0,.151,0,.264,0a1.378,1.378,0,0,0,.291-.035V113.5c-.072-.007-.153-.012-.243-.015s-.176-.005-.257-.005a1.172,1.172,0,0,0-.939.423,2.719,2.719,0,0,0-.034,2.637,1.075,1.075,0,0,0,.919.438m2.69-3.5c-.072,0-.171,0-.3.01a1.481,1.481,0,0,0-.3.04v3.43a.97.97,0,0,0,.216.019h.27a1.189,1.189,0,0,0,.946-.424,2.066,2.066,0,0,0,.365-1.361,2.247,2.247,0,0,0-.3-1.261,1.013,1.013,0,0,0-.9-.454" transform="translate(-109.176 -75.647)"/><path d="M191.713,117.495h-2.23l-.554,1.595h-1.689l2.744-7.028h1.338l2.757,7.028h-1.784Zm-1.865-1.017h1.568l-.541-1.625-.216-1.1H190.6l-.23,1.106Z" transform="translate(-126.922 -75.962)"/><path d="M210.271,112.216h4.96v1.156h-3.257v1.515q.2-.03.486-.06a5.192,5.192,0,0,1,.554-.03,5.361,5.361,0,0,1,1.162.114,2.464,2.464,0,0,1,.879.369,1.68,1.68,0,0,1,.561.663,2.3,2.3,0,0,1,.2,1,2.052,2.052,0,0,1-.8,1.764,3.963,3.963,0,0,1-2.365.588c-.127,0-.288,0-.487-.01s-.41-.015-.635-.025-.448-.025-.669-.045-.417-.046-.588-.08Zm2.5,5.962a1.479,1.479,0,0,0,.912-.259,1.028,1.028,0,0,0,.345-.877,1.343,1.343,0,0,0-.108-.588.836.836,0,0,0-.291-.339,1.1,1.1,0,0,0-.432-.159,3.512,3.512,0,0,0-.547-.04,3.413,3.413,0,0,0-.372.025,2.84,2.84,0,0,0-.3.044v2.144q.121.02.351.035t.446.015" transform="translate(-142.534 -76.067)"/><path d="M230.242,112.076q.487-.08,1.067-.125t1.163-.045a8.786,8.786,0,0,1,1.223.085,3.284,3.284,0,0,1,1.074.334,2.057,2.057,0,0,1,.771.7,2.125,2.125,0,0,1,.3,1.181,2.307,2.307,0,0,1-.25,1.117,2.144,2.144,0,0,1-.669.747,2.821,2.821,0,0,1-.966.419,4.879,4.879,0,0,1-1.128.13h-.176c-.081,0-.167,0-.257-.005s-.178-.008-.264-.014-.147-.014-.182-.02v2.4h-1.7Zm1.7,3.379a2.01,2.01,0,0,0,.3.035c.149.01.25.015.3.015a2.614,2.614,0,0,0,.567-.06,1.343,1.343,0,0,0,.48-.2,1,1,0,0,0,.331-.4,1.49,1.49,0,0,0,.121-.643,1.237,1.237,0,0,0-.115-.559.945.945,0,0,0-.311-.364,1.31,1.31,0,0,0-.453-.194,2.368,2.368,0,0,0-.54-.06,3.945,3.945,0,0,0-.689.05Z" transform="translate(-156.072 -75.857)"/><path d="M254.727,115.476l.135-.987h-.068l-.513,1.057-2.689,3.649h-1.338v-6.978h1.7v3.649l-.149,1.017h.068l.541-1.087,2.69-3.579h1.325v6.978h-1.7Z" transform="translate(-169.636 -76.067)"/><path d="M275.27,116.2H274.9v2.99h-1.7v-6.978h1.7v3.091l.338-.12,1.987-2.971h1.919l-2.163,2.934-.635.368.649.379,2.5,3.3h-2.081Z" transform="translate(-185.193 -76.067)"/><path d="M296.807,117.495h-2.23l-.554,1.595h-1.689l2.744-7.028h1.338l2.757,7.028h-1.784Zm-1.865-1.017h1.568l-.541-1.625-.216-1.1H295.7l-.23,1.106Z" transform="translate(-198.161 -75.962)"/><path d="M322.753,115.645l-2.095-3.43h2.054l1.095,1.994.257.758.243-.758,1.149-1.994h1.838l-2.163,3.36,2.271,3.619h-1.987l-1.271-2.144-.284-.778-.27.778-1.271,2.144h-1.878Z" transform="translate(-217.215 -76.066)"/><path d="M343.14,115.412a3.944,3.944,0,0,1,.824-2.7,3.193,3.193,0,0,1,2.514-.927,4.069,4.069,0,0,1,1.514.254,2.637,2.637,0,0,1,1.041.728,3.045,3.045,0,0,1,.6,1.146,5.365,5.365,0,0,1,.2,1.5,3.881,3.881,0,0,1-.845,2.7,3.222,3.222,0,0,1-2.507.927,4.064,4.064,0,0,1-1.521-.254,2.639,2.639,0,0,1-1.034-.728,2.969,2.969,0,0,1-.595-1.147,5.531,5.531,0,0,1-.189-1.5m1.784,0a5.576,5.576,0,0,0,.081.982,2.41,2.41,0,0,0,.27.783,1.494,1.494,0,0,0,.48.518,1.3,1.3,0,0,0,.723.189,1.32,1.32,0,0,0,1.176-.588,3.492,3.492,0,0,0,.391-1.884,5.457,5.457,0,0,0-.081-.962,2.582,2.582,0,0,0-.263-.788,1.45,1.45,0,0,0-.48-.528,1.333,1.333,0,0,0-.743-.194q-1.555,0-1.554,2.472" transform="translate(-232.601 -75.773)"/><path d="M367.011,112.076q.487-.08,1.068-.125t1.163-.045a8.782,8.782,0,0,1,1.223.085,3.284,3.284,0,0,1,1.074.334,2.054,2.054,0,0,1,.77.7,2.122,2.122,0,0,1,.3,1.181,2.311,2.311,0,0,1-.25,1.117,2.144,2.144,0,0,1-.669.747,2.826,2.826,0,0,1-.966.419,4.881,4.881,0,0,1-1.128.13h-.176c-.081,0-.167,0-.257-.005s-.178-.008-.263-.014-.147-.014-.182-.02v2.4h-1.7Zm1.7,3.379a2.022,2.022,0,0,0,.3.035c.149.01.25.015.3.015a2.616,2.616,0,0,0,.567-.06,1.346,1.346,0,0,0,.48-.2,1,1,0,0,0,.331-.4,1.489,1.489,0,0,0,.121-.643,1.237,1.237,0,0,0-.115-.559.948.948,0,0,0-.311-.364,1.313,1.313,0,0,0-.453-.194,2.369,2.369,0,0,0-.54-.06,3.95,3.95,0,0,0-.689.05Z" transform="translate(-248.782 -75.857)"/><path d="M386.016,115.412a3.942,3.942,0,0,1,.824-2.7,3.192,3.192,0,0,1,2.514-.927,4.067,4.067,0,0,1,1.514.254,2.632,2.632,0,0,1,1.041.728,3.049,3.049,0,0,1,.6,1.146,5.363,5.363,0,0,1,.2,1.5,3.883,3.883,0,0,1-.845,2.7,3.224,3.224,0,0,1-2.507.927,4.065,4.065,0,0,1-1.521-.254,2.638,2.638,0,0,1-1.033-.728,2.965,2.965,0,0,1-.595-1.147,5.517,5.517,0,0,1-.189-1.5m1.784,0a5.576,5.576,0,0,0,.081.982,2.41,2.41,0,0,0,.27.783,1.5,1.5,0,0,0,.48.518,1.3,1.3,0,0,0,.723.189,1.32,1.32,0,0,0,1.176-.588,3.491,3.491,0,0,0,.392-1.884,5.456,5.456,0,0,0-.081-.962,2.582,2.582,0,0,0-.264-.788,1.444,1.444,0,0,0-.48-.528,1.332,1.332,0,0,0-.743-.194q-1.554,0-1.554,2.472" transform="translate(-261.664 -75.773)"/><path d="M409.888,119.194v-6.978h1.7v5.822H413.2v-5.822h1.7v5.822h1.609v-5.822h1.7v6.978Z" transform="translate(-277.846 -76.067)"/><path d="M439.507,112.216h4.73v1.156H441.21v1.715h2.744v1.156H441.21v1.794h3.082v1.156h-4.784Z" transform="translate(-297.924 -76.067)"/><path d="M462.021,111.826l.135-.987h-.068l-.514,1.057-2.689,3.649h-1.338v-6.978h1.7v3.649l-.149,1.017h.067l.541-1.087,2.69-3.579h1.324v6.978h-1.7Zm-1.946-4.994a.776.776,0,0,0,1.513.01l1.379.15a1.223,1.223,0,0,1-.662.937,3.228,3.228,0,0,1-1.486.289,5.747,5.747,0,0,1-.865-.06,2.5,2.5,0,0,1-.689-.2,1.376,1.376,0,0,1-.486-.369,1.167,1.167,0,0,1-.243-.578Z" transform="translate(-310.152 -72.417)"/><path d="M495.15,115.6l.189-1.336h-.067l-.5,1.2-1.54,2.452h-.568l-1.635-2.462-.5-1.206h-.081l.257,1.346v3.609h-1.608v-6.978h1.636l1.973,3.021.324.867h.054l.311-.888,1.852-3h1.608v6.978h-1.7Z" transform="translate(-331.537 -76.067)"/><path d="M516.952,112.216h4.73v1.156h-3.027v1.715H521.4v1.156h-2.744v1.794h3.082v1.156h-4.784Z" transform="translate(-350.421 -76.067)"/><path d="M534.992,112.216h4.96v1.156h-3.257v1.515q.2-.03.487-.06a5.186,5.186,0,0,1,.554-.03,5.362,5.362,0,0,1,1.162.114,2.461,2.461,0,0,1,.878.369,1.677,1.677,0,0,1,.561.663,2.3,2.3,0,0,1,.2,1,2.051,2.051,0,0,1-.8,1.764,3.963,3.963,0,0,1-2.365.588q-.189,0-.486-.01t-.635-.025q-.338-.015-.669-.045t-.588-.08Zm2.5,5.962a1.48,1.48,0,0,0,.912-.259,1.028,1.028,0,0,0,.344-.877,1.342,1.342,0,0,0-.108-.588.835.835,0,0,0-.29-.339,1.1,1.1,0,0,0-.433-.159,3.507,3.507,0,0,0-.547-.04,3.408,3.408,0,0,0-.371.025,2.849,2.849,0,0,0-.3.044v2.144q.122.02.351.035t.446.015" transform="translate(-362.649 -76.067)"/><path d="M554.962,112.216h4.731v1.156h-3.027v1.715h2.744v1.156h-2.744v1.794h3.082v1.156h-4.785Z" transform="translate(-376.186 -76.067)"/><path d="M575.435,113.372H574q-.095,1.894-.257,3.165a4.438,4.438,0,0,1-.622,1.939,1.6,1.6,0,0,1-.371.394,1.937,1.937,0,0,1-.419.24,2.02,2.02,0,0,1-.426.12,2.489,2.489,0,0,1-.392.035,3.183,3.183,0,0,1-.5-.035,2.187,2.187,0,0,1-.406-.105l.189-1.136a.894.894,0,0,0,.486.005.69.69,0,0,0,.406-.324,2.041,2.041,0,0,0,.284-.643,7.68,7.68,0,0,0,.209-1.092q.088-.668.135-1.585t.074-2.134h4.744v6.978h-1.7Z" transform="translate(-386.793 -76.067)"/><path d="M599.165,115.476l.135-.987h-.068l-.513,1.057-2.69,3.649h-1.338v-6.978h1.7v3.649l-.149,1.017h.068l.541-1.087,2.69-3.579h1.324v6.978h-1.7Z" transform="translate(-403.117 -76.067)"/><path d="M169.162,36.594h-4.61V9.983h11.137l-.045,3.469h-6.528Z" transform="translate(-111.543 -6.767)"/><path d="M207.627,9.983h4.519L215.935,26h.045l1.643-16.022h4.565l-2.876,21.682a5.914,5.914,0,0,1-1.78,3.606,4.982,4.982,0,0,1-3.469,1.324h-3.2V32.532h1.415c.365,0,.593-.182.593-.5a.577.577,0,0,0-.046-.274Z" transform="translate(-140.742 -6.767)"/><path d="M329.366,9.983H336.9V36.594h-4.61V15.278l-3.2,21.316H324.3L321.059,14.73V36.594h-4.61V9.983h8.308l1.963,18.852Z" transform="translate(-214.507 -6.767)"/><path d="M400.771,36.736h-10.5V10.124h10.5v4.063h-5.843v5.934h5.751v3.971h-5.751v8.627h5.843Z" transform="translate(-264.549 -6.863)"/><path d="M437.674,13.9v5.615H440a4.779,4.779,0,0,1,3.7,1.187,5.314,5.314,0,0,1,1.506,3.378,41.624,41.624,0,0,1,.182,5.112c0,2.83-.456,4.747-1.324,5.752-.913,1-1.917,1.506-4.382,1.506h-6.619V9.841h11.959v4.017Zm0,9.951v8.81h1.278c1.05,0,1.6-1.369,1.6-4.108V27.6a8.05,8.05,0,0,0-.411-3.332,1.443,1.443,0,0,0-1.324-.685,2.223,2.223,0,0,0-1.141.274" transform="translate(-293.556 -6.671)"/><path d="M490.8,36.736H480.391V10.124H490.8v4.063h-5.843v5.934h5.751v3.971h-5.751v8.627H490.8Z" transform="translate(-325.637 -6.863)"/><path d="M524.77,10.124h12V36.735h-4.61V14.187H529.38v15.93a16.145,16.145,0,0,1-.32,3.971,3.29,3.29,0,0,1-2.282,2.647,5.351,5.351,0,0,1-1.871.228H522.9V32.445a2.765,2.765,0,0,0,1.6-.274c.183-.183.274-.73.274-1.689Z" transform="translate(-354.451 -6.863)"/><path d="M581.024,10.832v9.631a15.839,15.839,0,0,1,4.473.365c1.6.5,2.556,1.78,2.967,3.834a40.925,40.925,0,0,1,.228,5.523c0,2.83-.365,4.7-1.141,5.66-.821,1.05-1.734,1.6-4.154,1.6H576.46V10.832Zm0,13.694v9.083H582.3c1.05,0,1.6-1.369,1.6-4.108v-.959a8.17,8.17,0,0,0-.411-3.378,1.411,1.411,0,0,0-1.324-.639Z" transform="translate(-390.759 -7.343)"/><path d="M273.1,33.043V10.266H261.282V33.043h-1.369v3.788H274.52V33.043Zm-4.564,0h-2.693V14.055h2.693Z" transform="translate(-176.184 -6.959)"/><path d="M65.633,24.224c5.158,0,1.805,19.472-2.45,19.472H48.611c-1.16,0-1.934-.258-1.805-1.547.645-8,1.548-15.6.645-23.728L47.064,14.3C47.192,11.2,53,8.621,54.027,24.224Z" transform="translate(-31.718 -8.105)"/><path d="M10.059,35.59H12.9V16.118H6.964a21.341,21.341,0,0,1,3.611-5.287A15.773,15.773,0,0,1,13.8,8.252l-.129-1.934V6.189a3.973,3.973,0,0,1,1.805-3.224,3.28,3.28,0,0,1,2.192-.516A4.066,4.066,0,0,1,19.859,3.61,5.865,5.865,0,0,1,21.277,5.8c.645,0,1.29-.129,1.934-.129A17.872,17.872,0,0,1,35.849,36.235a17.21,17.21,0,0,1-12.638,5.287,17.72,17.72,0,0,1-12.637-5.287c-.129-.129-.258-.387-.516-.645M23.47,0A23.336,23.336,0,0,0,0,23.469,23.47,23.47,0,1,0,40.1,6.834,24.05,24.05,0,0,0,23.47,0" transform="translate(0 0.001)"/></g></symbol><symbol viewBox="0 0 15 15" id="svg-percent-in-round" xmlns="http://www.w3.org/2000/svg"><defs><clipPath id="baa"><rect width="15" height="15"/></clipPath></defs><g clip-path="url(#baa)"><path d="M15,7.5a7.507,7.507,0,1,0-2.2,5.3A7.5,7.5,0,0,0,15,7.5Zm-4.493,3.007a1.207,1.207,0,0,1-1.723,0,1.221,1.221,0,0,1,1.723-1.723,1.207,1.207,0,0,1,0,1.723ZM4.493,4.493a1.207,1.207,0,0,1,1.723,0A1.221,1.221,0,1,1,4.493,6.216a1.207,1.207,0,0,1,0-1.723m.858,6.391a.7.7,0,0,1-.544-1.137L9.1,4.382a.7.7,0,1,1,1.088.872L5.9,10.619A.7.7,0,0,1,5.351,10.884Z" transform="translate(0 0)"/></g></symbol><symbol viewBox="0 0 16.859 16.771" id="svg-phone" xmlns="http://www.w3.org/2000/svg"><g transform="translate(0.252 0.25)"><path d="M3-.75l.079,0,.029,0a2.008,2.008,0,0,1,1.214.6l.025.024a16.076,16.076,0,0,1,1.22,1.464c.882,1.171.943,1.464.972,1.6a2.3,2.3,0,0,1-.4,1.685c-.208.361-.261.486-.214.628a7.149,7.149,0,0,0,4.082,4.079.294.294,0,0,0,.095.017,1.407,1.407,0,0,0,.533-.231,2.569,2.569,0,0,1,1.311-.439,1.842,1.842,0,0,1,.373.039,12.525,12.525,0,0,1,3.069,2.194,2.019,2.019,0,0,1,.626,1.24q0,.018,0,.035c.052,1.482-1.791,3-2.224,3.294a2.864,2.864,0,0,1-1.7.532,4.7,4.7,0,0,1-1.949-.485,20.983,20.983,0,0,1-5.959-4.4A20.529,20.529,0,0,1-.268,5.117,3.481,3.481,0,0,1-.228,1.488C.107.964,1.621-.75,3-.75ZM3.32.97,3.3.953A.709.709,0,0,0,3,.75C2.462.759,1.289,1.876,1.036,2.295q-.017.029-.037.056c-.134.183-.541.739.1,2.158l.012.027c1.291,3.162,6.418,8.287,9.624,9.621l.028.012a3.252,3.252,0,0,0,1.331.352,1.375,1.375,0,0,0,.829-.254q.029-.021.061-.039c.381-.238,1.522-1.4,1.533-1.957a.714.714,0,0,0-.2-.3,15.685,15.685,0,0,0-2.334-1.779l-.035,0a1.4,1.4,0,0,0-.564.239,2.517,2.517,0,0,1-1.28.431,1.807,1.807,0,0,1-.618-.111l-.027-.011A8.7,8.7,0,0,1,4.534,5.812l-.011-.029a2.138,2.138,0,0,1,.321-1.9c.173-.3.252-.457.237-.6A15.9,15.9,0,0,0,3.32.97Z" transform="translate(0.5 0.5)"/><path d="M5.658,6.4a.75.75,0,0,1-.744-.666,5.626,5.626,0,0,0-5-4.99A.75.75,0,0,1-.745-.083.75.75,0,0,1,.083-.745,7.182,7.182,0,0,1,4.35,1.3,7.183,7.183,0,0,1,6.4,5.568a.75.75,0,0,1-.662.829A.759.759,0,0,1,5.658,6.4Z" transform="translate(10.198 0.701)"/><path d="M2.811,3.562a.75.75,0,0,1-.735-.607A2.8,2.8,0,0,0-.143.736a.75.75,0,0,1-.593-.88.75.75,0,0,1,.88-.593,4.29,4.29,0,0,1,3.4,3.4.751.751,0,0,1-.737.894Z" transform="translate(10.198 3.549)"/></g></symbol><symbol viewBox="0 0 21.7 27.13" id="svg-profile" xmlns="http://www.w3.org/2000/svg"><g transform="translate(0.75 0.75)"><path d="M6.371-.75A7.121,7.121,0,1,1-.75,6.371,7.129,7.129,0,0,1,6.371-.75Zm0,12.741A5.621,5.621,0,1,0,.75,6.371,5.627,5.627,0,0,0,6.371,11.991Z" transform="translate(3.735 0)"/><path d="M10.1-.75c.991,0,1.995.044,2.982.13A23.471,23.471,0,0,1,16.3-.167C18.549.3,19.99,1.16,20.582,2.405a3.762,3.762,0,0,1,0,3.244c-.6,1.256-2.039,2.117-4.283,2.56a21.776,21.776,0,0,1-3.221.465c-.982.083-1.98.125-2.966.125-.621,0-1.251-.017-1.871-.05a6.157,6.157,0,0,1-1.163-.078A21.385,21.385,0,0,1,3.91,8.209C1.673,7.771.229,6.912-.382,5.655l0-.006A3.812,3.812,0,0,1-.75,4.02,3.72,3.72,0,0,1-.383,2.4l0-.01C.437.763,2.65.09,3.9-.167A23.213,23.213,0,0,1,7.118-.62C8.1-.706,9.108-.75,10.1-.75Zm.015,8.05c.946,0,1.9-.041,2.845-.12h.012a20.268,20.268,0,0,0,3.012-.435l.018,0C17.734,6.4,18.85,5.8,19.228,5a2.267,2.267,0,0,0,0-1.955C18.853,2.264,17.736,1.659,16,1.3H15.99A21.966,21.966,0,0,0,12.97.876h-.013C12.01.792,11.049.75,10.1.75S8.188.792,7.242.875H7.228a21.708,21.708,0,0,0-3.02.425H4.2c-1.667.342-2.846.982-3.236,1.756a2.216,2.216,0,0,0-.216.96A2.308,2.308,0,0,0,.969,5c.39.8,1.51,1.4,3.238,1.736l.021,0a19.877,19.877,0,0,0,3,.435.749.749,0,0,1,.1.013,4.775,4.775,0,0,0,.939.059H8.3C8.9,7.283,9.512,7.3,10.114,7.3Z" transform="translate(0 17.58)"/></g></symbol><symbol viewBox="0 0 20.982 21.891" id="svg-search" xmlns="http://www.w3.org/2000/svg"><g transform="translate(0.75 0.75)"><g transform="translate(0 0)"><path d="M8.8-.75A9.547,9.547,0,1,1-.75,8.8,9.558,9.558,0,0,1,8.8-.75Zm0,17.594A8.047,8.047,0,1,0,.75,8.8,8.056,8.056,0,0,0,8.8,16.844Z" transform="translate(0 0)"/></g><path d="M0,.75A.75.75,0,0,1-.75,0,.75.75,0,0,1,0-.75H6.065a.75.75,0,0,1,.75.75.75.75,0,0,1-.75.75Z" transform="translate(14.883 15.792) rotate(45)"/></g></symbol><symbol viewBox="0 0 16.997 17" id="svg-search-old" xmlns="http://www.w3.org/2000/svg"><defs><clipPath id="bda"><rect width="16.997" height="17"/></clipPath></defs><g opacity="0.5"><g clip-path="url(#bda)"><path d="M16.767,15.655l-3.26-3.26a7.632,7.632,0,1,0-1.113,1.113l3.26,3.26a.751.751,0,0,0,1.087,0,.76.76,0,0,0,.026-1.112ZM1.578,7.607a6.055,6.055,0,1,1,6.055,6.029A6.063,6.063,0,0,1,1.578,7.607Z"/></g></g></symbol><symbol viewBox="0 0 8.746 5" id="svg-select-arrow" xmlns="http://www.w3.org/2000/svg"><path d="M14.743,10.565,11.434,7.259a.625.625,0,0,1,.885-.883l3.749,3.747a.624.624,0,0,1,.018.862l-3.765,3.773a.625.625,0,0,1-.885-.883Z" transform="translate(14.939 -11.251) rotate(90)"/></symbol><symbol viewBox="0 0 19.284 20.722" id="svg-setting" xmlns="http://www.w3.org/2000/svg"><g transform="translate(-0.03 -0.028)"><path d="M8.265-.75H9.52a2.663,2.663,0,0,1,2.662,2.722,1.082,1.082,0,0,0,.151.529,1.149,1.149,0,0,0,.707.537,1.164,1.164,0,0,0,.876-.123l.008,0a2.662,2.662,0,0,1,3.631.981l.622,1.08a.75.75,0,0,1,.043.087A2.673,2.673,0,0,1,17.211,8.6l-.006,0a1.127,1.127,0,0,0-.418.418l0,0a1.154,1.154,0,0,0,.422,1.581,2.654,2.654,0,0,1,.97,3.636l0,.008-.657,1.094a2.662,2.662,0,0,1-3.629.964,1.2,1.2,0,0,0-.553-.156,1.146,1.146,0,0,0-.813.338,1.161,1.161,0,0,0-.338.821s0,0,0,.007a2.669,2.669,0,0,1-2.663,2.65H8.265A2.666,2.666,0,0,1,5.6,17.314a1.082,1.082,0,0,0-.151-.537l-.006-.01a1.145,1.145,0,0,0-1.571-.42l-.011.006A2.663,2.663,0,0,1,.235,15.327l-.628-1.084a2.658,2.658,0,0,1,.969-3.625,1.167,1.167,0,0,0,.582-1.008A1.166,1.166,0,0,0,.576,8.6a2.669,2.669,0,0,1-.97-3.633l.009-.015L.279,3.864a2.662,2.662,0,0,1,3.627-.973l.01.006a1.082,1.082,0,0,0,.537.151A1.168,1.168,0,0,0,5.611,1.908,2.654,2.654,0,0,1,8.265-.75Zm5.066,5.324a2.654,2.654,0,0,1-2.289-1.311,2.58,2.58,0,0,1-.359-1.287q0-.015,0-.029A1.163,1.163,0,0,0,9.52.75v0H8.265A1.154,1.154,0,0,0,7.111,1.909s0,.01,0,.014A2.674,2.674,0,0,1,4.448,4.549H4.44a2.584,2.584,0,0,1-1.284-.358,1.162,1.162,0,0,0-1.582.431l-.009.015L.9,5.727a1.165,1.165,0,0,0,.427,1.579A2.669,2.669,0,0,1,2.658,9.611a2.67,2.67,0,0,1-1.332,2.306,1.155,1.155,0,0,0-.421,1.575l.631,1.088.007.013a1.163,1.163,0,0,0,1.581.453,2.645,2.645,0,0,1,3.619.97A2.584,2.584,0,0,1,7.1,17.3s0,.005,0,.008a1.164,1.164,0,0,0,1.163,1.163H9.519a1.166,1.166,0,0,0,1.163-1.155,2.671,2.671,0,0,1,.777-1.885,2.636,2.636,0,0,1,1.877-.777h.029a2.709,2.709,0,0,1,1.267.355,1.162,1.162,0,0,0,1.588-.422l.005-.009.656-1.094a1.154,1.154,0,0,0-.424-1.577,2.654,2.654,0,0,1-.971-3.635,2.629,2.629,0,0,1,.969-.969,1.167,1.167,0,0,0,.42-1.579.75.75,0,0,1-.036-.071L16.256,4.64a1.162,1.162,0,0,0-1.583-.43A2.656,2.656,0,0,1,13.331,4.574Z" transform="translate(0.779 0.778)"/><path d="M2.636-.75A3.386,3.386,0,1,1-.75,2.636,3.39,3.39,0,0,1,2.636-.75Zm0,5.272A1.886,1.886,0,1,0,.75,2.636,1.888,1.888,0,0,0,2.636,4.522Z" transform="translate(7.039 7.753)"/></g></symbol><symbol viewBox="0 0 16 19.058" id="svg-sizes" xmlns="http://www.w3.org/2000/svg"><defs><clipPath id="bha"><rect width="16" height="19.058"/></clipPath></defs><g clip-path="url(#bha)"><path d="M205.752,17.059h-2.893a1,1,0,0,0,0,2h2.893a3.105,3.105,0,0,0,3.1-3.1V3.1A3.108,3.108,0,0,0,205.747,0l-2.888.013a1,1,0,0,0,0,2L205.752,2a1.1,1.1,0,0,1,1.1,1.1V15.955a1.1,1.1,0,0,1-1.1,1.1Z" transform="translate(-192.855 0)"/><path d="M.441,32.558A1.039,1.039,0,0,0,1.76,32.4l1.249-1.249V42.377L1.735,41.106a1.014,1.014,0,0,0-1.269-.152A1,1,0,0,0,.3,42.5l1.681,1.679h0a2.88,2.88,0,0,0,1.024.68,2.805,2.805,0,0,0,3-.635L7.73,42.5h0a1,1,0,0,0-.137-1.529,1.04,1.04,0,0,0-1.317.155L5.027,42.377V31.149L6.3,32.423h0a1.014,1.014,0,0,0,1.269.15,1,1,0,0,0,.162-1.544l-1.7-1.681a2.916,2.916,0,0,0-1.024-.677,2.81,2.81,0,0,0-3,.634L.286,31.029a1,1,0,0,0,.155,1.529Z" transform="translate(0.001 -27.212)"/></g></symbol><symbol viewBox="0 0 15 14.266" id="svg-star" xmlns="http://www.w3.org/2000/svg"><path d="M17.571,8.132l-5.182-.753-2.318-4.7-2.318,4.7-5.182.753,3.75,3.655-.885,5.161,4.635-2.437,4.635,2.437-.885-5.161,3.75-3.655Z" transform="translate(-2.571 -2.683)"/></symbol><symbol viewBox="0 0 13.013 10.913" id="svg-tg" xmlns="http://www.w3.org/2000/svg"><path d="M38.976,64.105l-1.964,9.261c-.148.654-.535.816-1.084.508l-2.992-2.2-1.444,1.389a.751.751,0,0,1-.6.293l.215-3.047,5.546-5.011c.241-.215-.052-.334-.375-.119l-6.856,4.317-2.951-.924c-.642-.2-.654-.642.134-.95L38.149,63.17C38.683,62.969,39.151,63.289,38.976,64.105Z" transform="translate(-26.001 -63.112)"/></symbol><symbol viewBox="0 0 30.45 18" id="svg-tour-3d" xmlns="http://www.w3.org/2000/svg"><defs><clipPath id="bka"><rect width="30.45" height="18"/></clipPath></defs><g clip-path="url(#bka)"><path d="M170.814,4.149a.846.846,0,0,0-.024-.2V3.9a.886.886,0,0,0-.054-.136.5.5,0,0,0-.03-.057.764.764,0,0,0-.091-.13l-.027-.033h0a.851.851,0,0,0-.157-.136l-.036-.015h0a.721.721,0,0,0-.106-.06L162.7.075a.905.905,0,0,0-.724,0L154.442,3.32a1.237,1.237,0,0,0-.109.06L154.3,3.4a.961.961,0,0,0-.157.136.293.293,0,0,0-.024.033.782.782,0,0,0-.093.13.5.5,0,0,0-.03.057.9.9,0,0,0-.051.136l-.018.057h0a.856.856,0,0,0-.024.2v9.733a.9.9,0,0,0,.54.829l7.538,3.241H162a.638.638,0,0,0,.13.039.111.111,0,0,0,.042,0,.729.729,0,0,0,.163.018,1.162,1.162,0,0,0,.148-.015h.048a.679.679,0,0,0,.127-.039h.024l7.582-3.244a.9.9,0,0,0,.549-.829Zm-8.466-2.258,5.264,2.258L162.348,6.4,157.08,4.149ZM155.69,5.509l5.753,2.463v7.767l-5.752-2.469ZM169,13.269l-5.753,2.469V7.984L169,5.52Z" transform="translate(-147.207)"/><path d="M3.2,139.591a.9.9,0,0,1-.639-.265L.264,137.038a.9.9,0,0,1,0-1.278l2.291-2.291h0a.9.9,0,1,1,1.278,1.278L2.182,136.4l1.652,1.652a.9.9,0,0,1-.639,1.544Z" transform="translate(0 -127.386)"/><path d="M606.651,140.519a.9.9,0,0,1-.639-1.544l1.652-1.652-1.652-1.652a.9.9,0,0,1,1.278-1.278l2.291,2.291h0a.9.9,0,0,1,0,1.278l-2.292,2.292a.9.9,0,0,1-.639.265Z" transform="translate(-579.396 -128.314)"/></g></symbol><symbol viewBox="0 0 13.496 8.421" id="svg-vk" xmlns="http://www.w3.org/2000/svg"><path d="M96.331,43C91.72,43,89.09,39.84,88.98,34.58h2.31c.076,3.861,1.779,5.5,3.127,5.833V34.58h2.175v3.33c1.332-.143,2.731-1.661,3.2-3.33h2.175a6.425,6.425,0,0,1-2.959,4.2A6.655,6.655,0,0,1,102.476,43h-2.394a4.162,4.162,0,0,0-3.49-3.009V43Z" transform="translate(-88.98 -34.58)"/></symbol><symbol viewBox="0 0 15 15" id="svg-wrench" xmlns="http://www.w3.org/2000/svg"><defs><clipPath id="bma"><rect width="15" height="15"/></clipPath></defs><g clip-path="url(#bma)"><path d="M7.5,15A7.5,7.5,0,1,0,0,7.5,7.5,7.5,0,0,0,7.5,15M3.236,9.938l3.47-3.47a2.749,2.749,0,0,1,3.729-3.324L9.16,4.419a.439.439,0,0,0,0,.62l.8.8a.439.439,0,0,0,.62,0l1.275-1.275A2.749,2.749,0,0,1,8.532,8.294l-3.47,3.47a1.094,1.094,0,0,1-1.546,0l-.28-.28a1.094,1.094,0,0,1,0-1.546Z"/></g></symbol></svg>