<svg xmlns="http://www.w3.org/2000/svg" xmlns:xlink="http://www.w3.org/1999/xlink" width="24.443" height="24" viewBox="0 0 24.443 24"><defs><clipPath id="a"><rect width="24.443" height="24" fill="#f7b905"/></clipPath></defs><g clip-path="url(#a)"><path d="M157.229,19.088l-.008-.008a1.333,1.333,0,0,0-1.885,0L143.842,30.573l-1.724-1.724a1.333,1.333,0,0,0-1.885,0l-.008.008a1.333,1.333,0,0,0,0,1.885l3.617,3.617,13.386-13.386a1.333,1.333,0,0,0,0-1.885" transform="translate(-133.176 -17.8)" fill="#f7b905"/><path d="M21.594,9.394h0a1.34,1.34,0,0,0-.373,1.157,9.334,9.334,0,1,1-9.108-7.884,9.278,9.278,0,0,1,3.2.606,1.329,1.329,0,0,0,1.411-.305h0A1.335,1.335,0,0,0,16.246.776a11.993,11.993,0,1,0,7.607,9.348,1.333,1.333,0,0,0-2.259-.73" transform="translate(0 0.001)" fill="#f7b905"/></g></svg>