<svg xmlns="http://www.w3.org/2000/svg" width="48.291" height="44.744" viewBox="0 0 48.291 44.744"><g transform="translate(1 1)"><path d="M16.3,14.019H6.512A7.509,7.509,0,1,1,6.511-1H16.3a1,1,0,0,1,1,1,1,1,0,0,1-1,1H6.512a5.509,5.509,0,1,0,0,11.019H16.3a1,1,0,0,1,0,2Z" transform="translate(29.988 14.544)" fill="#0391a2"/><path d="M1.054,1.456H.3a1,1,0,0,1,0-2h.754a1,1,0,0,1,0,2Z" transform="translate(36.553 20.449)" fill="#f7bd13"/><path d="M12.692-1H33.6A13.693,13.693,0,0,1,47.291,12.692V30.051A13.693,13.693,0,0,1,33.6,43.744H12.692A13.693,13.693,0,0,1-1,30.051V12.692A13.693,13.693,0,0,1,12.692-1ZM33.6,41.744A11.706,11.706,0,0,0,45.291,30.051V12.692A11.706,11.706,0,0,0,33.6,1H12.692A11.706,11.706,0,0,0,1,12.692V30.051A11.706,11.706,0,0,0,12.692,41.744Z" transform="translate(0 0)" fill="#0391a2"/><path d="M13.058,1.456H0a1,1,0,0,1-1-1,1,1,0,0,1,1-1H13.058a1,1,0,1,1,0,2Z" transform="translate(10.97 10.521)" fill="#f7bd13"/></g></svg>