<svg xmlns="http://www.w3.org/2000/svg" width="62.223" height="41.497" viewBox="0 0 62.223 41.497"><g transform="translate(1 40.497) rotate(-90)"><path d="M59.449,1H0A1,1,0,0,1-1,0,1,1,0,0,1,0-1H59.449a1,1,0,0,1,1,1A1,1,0,0,1,59.449,1Z" transform="translate(26.913 0.773) rotate(90)" fill="#0391a2"/><path d="M16.556,1H0A1,1,0,0,1-1,0,1,1,0,0,1,0-1H16.556a1,1,0,0,1,1,1A1,1,0,0,1,16.556,1Z" transform="translate(17.433 9.167) rotate(90)" fill="#f7bd13"/><path d="M28.815,61.222h0l-18.223-.009h-.006A11.5,11.5,0,0,1,2.122,57.9,12.082,12.082,0,0,1-1,49.3V10.919A12.086,12.086,0,0,1,2.147,2.289,11.529,11.529,0,0,1,10.679-1L28.9-.993h.006a11.5,11.5,0,0,1,8.464,3.316,12.084,12.084,0,0,1,3.124,8.6V49.3a12.084,12.084,0,0,1-3.148,8.629A11.533,11.533,0,0,1,28.815,61.222ZM10.6,59.213l18.22.009c5.972,0,9.682-3.8,9.682-9.919V10.919c0-6.076-3.678-9.874-9.6-9.912L10.679,1C4.709,1,1,4.8,1,10.919V49.3C1,55.378,4.677,59.175,10.6,59.213Z" transform="translate(0 0)" fill="#0391a2"/></g></svg>