<svg xmlns="http://www.w3.org/2000/svg" width="49.189" height="49.191" viewBox="0 0 49.189 49.191"><g transform="translate(0.25 0.25)"><path d="M23.6,48.191a6.728,6.728,0,0,1-4.774-1.97l-1.859-1.859a4.8,4.8,0,0,0-3.357-1.386H10.982a6.775,6.775,0,0,1-6.768-6.768V33.584a4.783,4.783,0,0,0-1.386-3.355L.994,28.393a6.767,6.767,0,0,1-.024-9.57l1.858-1.861A4.741,4.741,0,0,0,4.214,13.6v-2.62a6.777,6.777,0,0,1,6.768-6.77h2.625a4.738,4.738,0,0,0,3.359-1.386L18.8.993A6.769,6.769,0,0,1,28.347.95l0,0,.043.04L30.23,2.829a4.728,4.728,0,0,0,3.357,1.383h2.622a6.778,6.778,0,0,1,6.77,6.77V13.6a4.742,4.742,0,0,0,1.386,3.362L46.2,18.8a6.778,6.778,0,0,1,.025,9.57L44.362,30.23a4.781,4.781,0,0,0-1.383,3.354v2.625a6.777,6.777,0,0,1-6.77,6.768H33.586a4.8,4.8,0,0,0-3.358,1.387L28.392,46.2A6.715,6.715,0,0,1,23.6,48.191ZM10.982,6.212a4.774,4.774,0,0,0-4.768,4.77V13.6a6.73,6.73,0,0,1-1.969,4.771l-1.86,1.862a4.767,4.767,0,0,0,.021,6.742l1.837,1.839a6.8,6.8,0,0,1,1.971,4.768v2.625a4.773,4.773,0,0,0,4.768,4.768h2.625a6.727,6.727,0,0,1,4.768,1.969l1.86,1.86a4.767,4.767,0,0,0,6.741-.021l1.84-1.837a6.719,6.719,0,0,1,4.77-1.971h2.622a4.774,4.774,0,0,0,4.77-4.768V33.584a6.8,6.8,0,0,1,1.968-4.767l1.861-1.861a4.775,4.775,0,0,0-.022-6.742l-1.838-1.838A6.731,6.731,0,0,1,40.979,13.6v-2.62a4.776,4.776,0,0,0-4.77-4.77H33.586a6.717,6.717,0,0,1-4.769-1.967L27,2.427l-.041-.039a4.769,4.769,0,0,0-6.744.017L18.378,4.243a6.729,6.729,0,0,1-4.771,1.969Z" transform="translate(0.75 0.751)" fill="#0391a2"/><path d="M0,14.112a1,1,0,0,1-.707-.293,1,1,0,0,1,0-1.414L12.4-.707a1,1,0,0,1,1.414,0,1,1,0,0,1,0,1.414L.707,13.819A1,1,0,0,1,0,14.112Z" transform="translate(17.79 17.788)" fill="#f7bd13"/><path d="M1.913,3.8A1.911,1.911,0,0,1,.561,3.24,2.1,2.1,0,0,1,.153,2.6,1.7,1.7,0,0,1,0,1.888a1.83,1.83,0,0,1,.153-.74A1.979,1.979,0,0,1,.561.536a1.974,1.974,0,0,1,2.7,0,2.058,2.058,0,0,1,.434.612,2.37,2.37,0,0,1,.128.74A2.2,2.2,0,0,1,3.7,2.6a2.173,2.173,0,0,1-.434.638A1.911,1.911,0,0,1,1.913,3.8" transform="translate(28.98 29.02)" fill="#f7bd13"/><path d="M1.913,3.8A1.714,1.714,0,0,1,1.2,3.647a2.088,2.088,0,0,1-.638-.406A2.457,2.457,0,0,1,.153,2.6,1.72,1.72,0,0,1,0,1.89a1.821,1.821,0,0,1,.153-.74A1.72,1.72,0,0,1,.561.538a1.969,1.969,0,0,1,2.7,0A1.907,1.907,0,0,1,3.826,1.89,1.7,1.7,0,0,1,3.7,2.6a2.567,2.567,0,0,1-.434.638,1.972,1.972,0,0,1-.612.406,1.832,1.832,0,0,1-.74.156" transform="translate(15.868 15.907)" fill="#f7bd13"/></g></svg>