<svg xmlns="http://www.w3.org/2000/svg" width="41.692" height="48.871" viewBox="0 0 41.692 48.871"><g transform="translate(0.25 0.25)"><path d="M9.785-1H26.763a1,1,0,0,1,.721.307l12.93,13.466a1,1,0,0,1,.279.693V36.921a10.87,10.87,0,0,1-10.52,10.921H9.785A10.667,10.667,0,0,1,2.1,44.664,10.964,10.964,0,0,1-1,36.921V9.517A10.285,10.285,0,0,1,2.229,2.066,10.976,10.976,0,0,1,5.657-.176,10.746,10.746,0,0,1,9.785-1ZM26.336,1H9.785A8.77,8.77,0,0,0,1,9.517v27.4a8.759,8.759,0,0,0,8.785,8.921H30.172a8.844,8.844,0,0,0,8.52-8.921V13.868Z" transform="translate(0.75 0.78)" fill="#0391a2"/><path d="M10.955,15Q9.271,15,6.554,15A7.571,7.571,0,0,1-1,7.424V0A1,1,0,0,1,0-1,1,1,0,0,1,1,0V7.424A5.58,5.58,0,0,0,6.559,13c4.826.011,6.763.005,6.967,0a1,1,0,0,1,.125,2C13.515,15,12.612,15,10.955,15Z" transform="translate(26.842 0.75)" fill="#0391a2"/><path d="M0,17.776a1,1,0,0,1-1-1V0A1,1,0,0,1,0-1,1,1,0,0,1,1,0V16.776A1,1,0,0,1,0,17.776Z" transform="translate(28 26.213) rotate(90)" fill="#f7bd13"/><path d="M0,8.276a1,1,0,0,1-.705-.291,1,1,0,0,1,0-1.414L6.534-.705A1,1,0,0,1,7.243-1a1,1,0,0,1,.709.294L15.2,6.571A1,1,0,1,1,13.78,7.982L7.243,1.417.709,7.982A1,1,0,0,1,0,8.276Z" transform="translate(28.001 18.969) rotate(90)" fill="#f7bd13"/></g></svg>