<svg xmlns="http://www.w3.org/2000/svg" width="21.5" height="24.609" viewBox="0 0 21.5 24.609"><g transform="translate(-82 -264.696)"><path d="M19.09,18.316,11.426,22.7v-10h0L21.1,7.121a.675.675,0,0,0,.055-1.2L11.1.124a.575.575,0,0,0-.711,0l-10,5.74A.759.759,0,0,0,0,6.52V18.11a.686.686,0,0,0,.328.6l10.059,5.795a.667.667,0,0,0,.711,0l8.684-4.983a.7.7,0,0,0-.692-1.208M10.059,22.7,1.366,17.727v-10L10.059,12.7Zm.711-11.207L2.077,6.52,10.77,1.49l8.638,5.03Z" transform="translate(82 264.695)" fill="#0391a2"/><path d="M458.592,208.484a.668.668,0,0,0-.641.674v6.167a.683.683,0,0,0,1.367,0v-6.13a.723.723,0,0,0-.726-.711" transform="translate(-355.817 65.371)" fill="#f7b905"/></g></svg>