<svg xmlns="http://www.w3.org/2000/svg" xmlns:xlink="http://www.w3.org/1999/xlink" width="16" height="19.058" viewBox="0 0 16 19.058"><defs><clipPath id="a"><rect width="16" height="19.058" fill="none"/></clipPath></defs><g clip-path="url(#a)"><path d="M205.752,17.059h-2.893a1,1,0,0,0,0,2h2.893a3.105,3.105,0,0,0,3.1-3.1V3.1A3.108,3.108,0,0,0,205.747,0l-2.888.013a1,1,0,0,0,0,2L205.752,2a1.1,1.1,0,0,1,1.1,1.1V15.955a1.1,1.1,0,0,1-1.1,1.1Z" transform="translate(-192.855 0)" fill="#ffca1f"/><path d="M.441,32.558A1.039,1.039,0,0,0,1.76,32.4l1.249-1.249V42.377L1.735,41.106a1.014,1.014,0,0,0-1.269-.152A1,1,0,0,0,.3,42.5l1.681,1.679h0a2.88,2.88,0,0,0,1.024.68,2.805,2.805,0,0,0,3-.635L7.73,42.5h0a1,1,0,0,0-.137-1.529,1.04,1.04,0,0,0-1.317.155L5.027,42.377V31.149L6.3,32.423h0a1.014,1.014,0,0,0,1.269.15,1,1,0,0,0,.162-1.544l-1.7-1.681a2.916,2.916,0,0,0-1.024-.677,2.81,2.81,0,0,0-3,.634L.286,31.029a1,1,0,0,0,.155,1.529Z" transform="translate(0.001 -27.212)" fill="#0391a2"/></g></svg>