<svg xmlns="http://www.w3.org/2000/svg" width="50" height="50" viewBox="0 0 50 50"><g transform="translate(-1325 -405)"><g transform="translate(22 22)"><circle cx="25" cy="25" r="25" transform="translate(1303 383)" fill="#f7bd13"/></g><path d="M11.132.48l2.524,5.078a.87.87,0,0,0,.654.476l5.651.816a.87.87,0,0,1,.575.334.839.839,0,0,1-.093,1.125l-4.1,3.961a.831.831,0,0,0-.246.764l.981,5.589a.858.858,0,0,1-.711.972.946.946,0,0,1-.562-.087l-5.033-2.639a.845.845,0,0,0-.809,0L4.9,19.522a.885.885,0,0,1-1.174-.36.867.867,0,0,1-.088-.545l.981-5.589a.859.859,0,0,0-.246-.763L.253,8.306a.856.856,0,0,1,0-1.212l0,0a.991.991,0,0,1,.493-.242L6.4,6.031a.885.885,0,0,0,.654-.477L9.574.48a.857.857,0,0,1,.5-.436.87.87,0,0,1,.665.048A.893.893,0,0,1,11.132.48Z" transform="translate(1340 420)" fill="#fff"/></g></svg>