<svg xmlns="http://www.w3.org/2000/svg" width="42.5" height="42.5" viewBox="0 0 42.5 42.5"><g transform="translate(0 0)"><path d="M30.1,41.666H10.89C3.928,41.666-.75,36.772-.75,29.49V11.426A12.5,12.5,0,0,1,2.387,2.69a11.277,11.277,0,0,1,8.5-3.44h8.138a.75.75,0,0,1,.75.75.75.75,0,0,1-.75.75H10.89C4.73.75.75,4.941.75,11.426V29.49c0,6.485,3.98,10.676,10.139,10.676H30.1c6.161,0,10.142-4.191,10.142-10.676V20.738a.75.75,0,0,1,1.5,0V29.49C41.737,36.772,37.059,41.666,30.1,41.666Z" transform="translate(0.75 0.835)" fill="#0391a2"/><path d="M8.183,30.088H0a.75.75,0,0,1-.537-.226.75.75,0,0,1-.213-.542l.205-8.257a5.468,5.468,0,0,1,1.607-3.745L17.386.993a5.96,5.96,0,0,1,8.424,0l2.659,2.659a5.956,5.956,0,0,1,0,8.425l-16.4,16.4A5.456,5.456,0,0,1,8.183,30.088Zm-7.414-1.5H8.183a3.966,3.966,0,0,0,2.823-1.17l16.4-16.4a4.456,4.456,0,0,0,0-6.3L24.75,2.054a4.46,4.46,0,0,0-6.3,0L2.123,18.378A3.974,3.974,0,0,0,.955,21.1Z" transform="translate(12.286 0.75)" fill="#f7b905"/><path d="M9.974,10.724a.748.748,0,0,1-.53-.22L-.53.53A.75.75,0,0,1-.53-.53.75.75,0,0,1,.53-.53L10.5,9.444a.75.75,0,0,1-.53,1.28Z" transform="translate(27.722 4.796)" fill="#f7b905"/></g></svg>