<svg xmlns="http://www.w3.org/2000/svg" xmlns:xlink="http://www.w3.org/1999/xlink" width="30.45" height="18" viewBox="0 0 30.45 18"><defs><clipPath id="a"><rect width="30.45" height="18" fill="none"/></clipPath></defs><g clip-path="url(#a)"><path d="M170.814,4.149a.846.846,0,0,0-.024-.2V3.9a.886.886,0,0,0-.054-.136.5.5,0,0,0-.03-.057.764.764,0,0,0-.091-.13l-.027-.033h0a.851.851,0,0,0-.157-.136l-.036-.015h0a.721.721,0,0,0-.106-.06L162.7.075a.905.905,0,0,0-.724,0L154.442,3.32a1.237,1.237,0,0,0-.109.06L154.3,3.4a.961.961,0,0,0-.157.136.293.293,0,0,0-.024.033.782.782,0,0,0-.093.13.5.5,0,0,0-.03.057.9.9,0,0,0-.051.136l-.018.057h0a.856.856,0,0,0-.024.2v9.733a.9.9,0,0,0,.54.829l7.538,3.241H162a.638.638,0,0,0,.13.039.111.111,0,0,0,.042,0,.729.729,0,0,0,.163.018,1.162,1.162,0,0,0,.148-.015h.048a.679.679,0,0,0,.127-.039h.024l7.582-3.244a.9.9,0,0,0,.549-.829Zm-8.466-2.258,5.264,2.258L162.348,6.4,157.08,4.149ZM155.69,5.509l5.753,2.463v7.767l-5.752-2.469ZM169,13.269l-5.753,2.469V7.984L169,5.52Z" transform="translate(-147.207)" fill="#0391a2"/><path d="M3.2,139.591a.9.9,0,0,1-.639-.265L.264,137.038a.9.9,0,0,1,0-1.278l2.291-2.291h0a.9.9,0,1,1,1.278,1.278L2.182,136.4l1.652,1.652a.9.9,0,0,1-.639,1.544Z" transform="translate(0 -127.386)" fill="#6ebe44"/><path d="M606.651,140.519a.9.9,0,0,1-.639-1.544l1.652-1.652-1.652-1.652a.9.9,0,0,1,1.278-1.278l2.291,2.291h0a.9.9,0,0,1,0,1.278l-2.292,2.292a.9.9,0,0,1-.639.265Z" transform="translate(-579.396 -128.314)" fill="#6ebe44"/></g></svg>