<svg xmlns="http://www.w3.org/2000/svg" width="34.472" height="34.015" viewBox="0 0 34.472 34.015"><g transform="translate(0.25 0.25)"><path d="M16.189,10.671c-4.494,0-8.987,0-10.07,0A6.167,6.167,0,0,1,.945,8.384,7.673,7.673,0,0,1-.691,4.073C-.748,3.133-.994.112-1,.081A1,1,0,0,1-.081-1,1,1,0,0,1,1-.081c.01.125.251,3.073.309,4.035A5.689,5.689,0,0,0,2.484,7.107,4.224,4.224,0,0,0,6.122,8.669c2.164,0,17.969,0,20.133,0a4.223,4.223,0,0,0,3.636-1.56,5.706,5.706,0,0,0,1.182-3.156c.056-.96.3-3.909.307-4.034A1,1,0,0,1,32.458-1,1,1,0,0,1,33.374.081c0,.03-.249,3.051-.3,3.99A7.693,7.693,0,0,1,31.43,8.386a6.166,6.166,0,0,1-5.172,2.283C25.176,10.67,20.682,10.671,16.189,10.671Z" transform="translate(0.845 23.094)" fill="#ffca1f"/><path d="M12.288,5.528a1,1,0,0,1-1-1l0-.651A2.88,2.88,0,0,0,8.41,1H3.877A2.88,2.88,0,0,0,1,3.877v.651a1,1,0,0,1-1,1,1,1,0,0,1-1-1V3.877A4.882,4.882,0,0,1,3.877-1H8.41a4.882,4.882,0,0,1,4.877,4.877l0,.649a1,1,0,0,1-1,1Z" transform="translate(10.838 0.751)" fill="#0391a2"/><path d="M.5,3.272a1,1,0,0,1-1-1V0a1,1,0,0,1,1-1,1,1,0,0,1,1,1V2.272A1,1,0,0,1,.5,3.272Z" transform="translate(16.482 22.932)" fill="#ffca1f"/><path d="M5.385-1H27.1a6.356,6.356,0,0,1,6.367,6.369v6.087a1,1,0,0,1-.448.834,29.811,29.811,0,0,1-12.3,4.567,1,1,0,0,1-1.107-.745,3.483,3.483,0,0,0-3.39-2.613,3.519,3.519,0,0,0-3.428,2.614,1,1,0,0,1-1.1.726A29.8,29.8,0,0,1-.551,12.291,1,1,0,0,1-1,11.456V5.369A6.371,6.371,0,0,1,5.385-1ZM31.463,10.912V5.369A4.373,4.373,0,0,0,27.1,1H5.385A4.382,4.382,0,0,0,1,5.369v5.542a27.789,27.789,0,0,0,10.175,3.826,5.6,5.6,0,0,1,1.642-2.077,5.536,5.536,0,0,1,8.435,2.093A27.792,27.792,0,0,0,31.463,10.912Z" transform="translate(0.75 5.281)" fill="#0391a2"/></g></svg>