<svg xmlns="http://www.w3.org/2000/svg" width="32.667" height="38.214" viewBox="0 0 32.667 38.214"><g transform="translate(0.25 0.25)"><path d="M7.56-1H20.68a1,1,0,0,1,.721.307l9.988,10.4a1,1,0,0,1,.279.693V28.478a8.973,8.973,0,0,1-2.424,6.064,8.09,8.09,0,0,1-5.93,2.648H7.56A8.545,8.545,0,0,1-1,28.478V7.353a8.172,8.172,0,0,1,2.564-5.92A8.615,8.615,0,0,1,7.56-1ZM20.253,1H7.56A6.546,6.546,0,0,0,1,7.353V28.478a6.567,6.567,0,0,0,6.56,6.712H23.314a6.628,6.628,0,0,0,6.353-6.712V10.806Z" transform="translate(0.75 0.773)" fill="#0391a2"/><path d="M8.472,11.819c-.791,0-1.888,0-3.411,0A6.086,6.086,0,0,1-1,5.736V0A1,1,0,0,1,0-1,1,1,0,0,1,1,0V5.736A4.083,4.083,0,0,0,5.066,9.814c3.7.008,5.2,0,5.374,0a1,1,0,0,1,.123,2C10.514,11.811,10.4,11.819,8.472,11.819Z" transform="translate(20.911 0.75)" fill="#0391a2"/><path d="M10.642,1.5H0a1,1,0,0,1,0-2H10.642a1,1,0,0,1,0,2Z" transform="translate(9.894 25.506)" fill="#f7b905"/><path d="M6.618,1.5H0a1,1,0,0,1-1-1,1,1,0,0,1,1-1H6.618a1,1,0,0,1,0,2Z" transform="translate(9.893 15.74)" fill="#f7b905"/></g></svg>