<svg xmlns="http://www.w3.org/2000/svg" width="41.883" height="41.019" viewBox="0 0 41.883 41.019"><g transform="translate(0.25 0.25)"><path d="M1.647-1A2.648,2.648,0,1,1-1,1.649,2.652,2.652,0,0,1,1.647-1Zm0,3.3A.648.648,0,1,0,1,1.649.649.649,0,0,0,1.647,2.3Z" transform="translate(9.176 36.473)" fill="#ffca1f"/><path d="M1.649-1A2.648,2.648,0,1,1-1,1.649,2.652,2.652,0,0,1,1.649-1Zm0,3.3A.648.648,0,1,0,1,1.649.649.649,0,0,0,1.649,2.3Z" transform="translate(33.432 36.473)" fill="#ffca1f"/><path d="M33.959,30.073H10.434a4.886,4.886,0,0,1-4.871-4.48L3.552,1.63-.171.985A1,1,0,0,1-.985-.171,1,1,0,0,1,.171-.985l4.484.776a1,1,0,0,1,.826.9L6.035,7.3H36.992a3.89,3.89,0,0,1,3.85,4.448L38.8,25.884a4.889,4.889,0,0,1-4.838,4.19ZM6.2,9.3,7.557,25.426a2.869,2.869,0,0,0,2.878,2.647H33.959A2.906,2.906,0,0,0,36.817,25.6l2.046-14.137A1.89,1.89,0,0,0,36.992,9.3Z" transform="translate(0.75 0.75)" fill="#0391a2"/><path d="M5.978,1.5H0a1,1,0,1,1,0-2H5.978a1,1,0,0,1,0,2Z" transform="translate(25.273 16.516)" fill="#ffca1f"/></g></svg>