<svg xmlns="http://www.w3.org/2000/svg" width="47.284" height="38.227" viewBox="0 0 47.284 38.227"><g transform="translate(1 1)"><g transform="translate(26.83 0.567)"><path d="M.5,6.479a1,1,0,0,1-1-1V0a1,1,0,0,1,1-1,1,1,0,0,1,1,1V5.479A1,1,0,0,1,.5,6.479Z" transform="translate(-0.5 0)" fill="#ffca1f"/><path d="M.5,5.583a1,1,0,0,1-1-1V0a1,1,0,1,1,2,0V4.583A1,1,0,0,1,.5,5.583Z" transform="translate(-0.5 30.589)" fill="#ffca1f"/><path d="M.5,11.916a1,1,0,0,1-1-1V0a1,1,0,0,1,1-1,1,1,0,0,1,1,1V10.916A1,1,0,0,1,.5,11.916Z" transform="translate(-0.5 11.895)" fill="#ffca1f"/></g><path d="M37.817,37.227H7.467A8.431,8.431,0,0,1-1,28.853v-5.87a1,1,0,0,1,1-1,3.9,3.9,0,0,0,3.928-3.867A3.726,3.726,0,0,0,0,14.438a1,1,0,0,1-.707-.293A1,1,0,0,1-1,13.437l0-6.064A8.43,8.43,0,0,1,7.469-1H37.815a8.431,8.431,0,0,1,8.467,8.374l0,5.872a1,1,0,0,1-1,1,3.869,3.869,0,1,0,0,7.737,1,1,0,0,1,1,1v5.87A8.431,8.431,0,0,1,37.817,37.227ZM1,23.9v4.952a6.428,6.428,0,0,0,6.467,6.374h30.35a6.428,6.428,0,0,0,6.467-6.374V23.9a5.9,5.9,0,0,1-3.191-1.629,5.84,5.84,0,0,1,0-8.313,5.9,5.9,0,0,1,3.19-1.63l0-4.954A6.428,6.428,0,0,0,37.815,1H7.469A6.428,6.428,0,0,0,1,7.374l0,5.14a5.961,5.961,0,0,1,3.17,1.521,5.523,5.523,0,0,1,1.758,4.081,5.8,5.8,0,0,1-1.738,4.156A5.9,5.9,0,0,1,1,23.9Z" fill="#0391a2"/></g></svg>