<svg xmlns="http://www.w3.org/2000/svg" xmlns:xlink="http://www.w3.org/1999/xlink" width="32.729" height="32.729" viewBox="0 0 32.729 32.729"><defs><clipPath id="a"><rect width="32.729" height="32.729" fill="none"/></clipPath></defs><rect width="9.752" height="10.554" transform="translate(3.35 12.693)" fill="#008092"/><g clip-path="url(#a)"><path d="M32.071,13.479a1.482,1.482,0,0,0,.6-1.6,16.193,16.193,0,0,0-1.6-3.893,1.547,1.547,0,0,0-1.557-.733,3.431,3.431,0,0,1-3.114-.916,3.346,3.346,0,0,1-.916-3.114,1.474,1.474,0,0,0-.733-1.557,17.014,17.014,0,0,0-3.893-1.6,1.392,1.392,0,0,0-1.6.6,3.432,3.432,0,0,1-2.885,1.557A3.385,3.385,0,0,1,13.479.657a1.483,1.483,0,0,0-1.6-.6,16.193,16.193,0,0,0-3.893,1.6,1.547,1.547,0,0,0-.733,1.557,3.432,3.432,0,0,1-.916,3.114,3.347,3.347,0,0,1-3.114.916,1.474,1.474,0,0,0-1.557.733,17.015,17.015,0,0,0-1.6,3.893,1.392,1.392,0,0,0,.6,1.6,3.432,3.432,0,0,1,1.557,2.885A3.384,3.384,0,0,1,.657,19.249a1.483,1.483,0,0,0-.6,1.6,16.2,16.2,0,0,0,1.6,3.893,1.547,1.547,0,0,0,1.557.733,3.389,3.389,0,0,1,4.029,4.03,1.474,1.474,0,0,0,.733,1.557,17.015,17.015,0,0,0,3.893,1.6,1.392,1.392,0,0,0,1.6-.6,3.432,3.432,0,0,1,2.885-1.557,3.384,3.384,0,0,1,2.885,1.557,1.483,1.483,0,0,0,1.6.6,16.2,16.2,0,0,0,3.893-1.6,1.547,1.547,0,0,0,.733-1.557,3.389,3.389,0,0,1,4.03-4.03,1.474,1.474,0,0,0,1.557-.733,17.02,17.02,0,0,0,1.6-3.893,1.392,1.392,0,0,0-.6-1.6,3.432,3.432,0,0,1-1.557-2.885,3.384,3.384,0,0,1,1.557-2.885m-15.753,14.1A11.211,11.211,0,1,1,27.53,16.364,11.189,11.189,0,0,1,16.318,27.575" transform="translate(0 0)" fill="#008092"/><path d="M75.163,28.172c3.281,0,1.148,12.385-1.558,12.385H64.336c-.738,0-1.23-.164-1.148-.984.41-5.088.985-9.922.41-15.091l-.246-2.621c.081-1.972,3.775-3.612,4.428,6.312Z" transform="translate(-53.684 -17.309)" fill="#f9a800"/></g></svg>