<svg xmlns="http://www.w3.org/2000/svg" width="39.09" height="48.968" viewBox="0 0 39.09 48.968"><g transform="translate(-715.655 -2078)"><path d="M187.224,5.244h-2.2L188.2,2.067a1.209,1.209,0,0,0,0-1.71l0,0a1.209,1.209,0,0,0-1.706,0l-6.169,6.116,6.719,6.719a1.209,1.209,0,1,0,1.71-1.71l-3.787-3.787h2.2A10.1,10.1,0,0,1,197.3,17.765V31.751a10.1,10.1,0,0,1-10.078,10.139h-3.372a1.209,1.209,0,0,0-1.209,1.209v.024a1.209,1.209,0,0,0,1.209,1.209h3.372a12.537,12.537,0,0,0,12.521-12.521V17.765A12.538,12.538,0,0,0,187.225,5.244Z" transform="translate(555 2078)" fill="#0391a2"/><path d="M12.521,50.527h3.372A1.209,1.209,0,0,0,17.1,49.318v-.024a1.209,1.209,0,0,0-1.209-1.209H12.521A12.538,12.538,0,0,0,0,60.6V74.592A12.551,12.551,0,0,0,12.521,87.174h2.2l-2.565,2.565a1.209,1.209,0,0,0,0,1.71l0,0a1.209,1.209,0,0,0,1.706,0l5.558-5.5-5.8-5.8a1.209,1.209,0,1,0-1.71,1.71l2.871,2.871h-2.2A10.1,10.1,0,0,1,2.443,74.653V60.6A10.088,10.088,0,0,1,12.521,50.527Z" transform="translate(715.655 2035.16)" fill="#ffca1f"/></g></svg>