<svg xmlns="http://www.w3.org/2000/svg" width="42.859" height="39.728" viewBox="0 0 42.859 39.728"><g transform="translate(1 1)"><path d="M14.39,12.491H5.747A6.745,6.745,0,1,1,5.747-1H14.39a1,1,0,0,1,1,1,1,1,0,0,1-1,1H5.747a4.745,4.745,0,1,0,0,9.491H14.39a1,1,0,0,1,0,2Z" transform="translate(26.469 12.837)" fill="#ffca1f"/><path d="M.965,1.456H.3a1,1,0,0,1,0-2H.965a1,1,0,1,1,0,2Z" transform="translate(32.229 17.996)" fill="#ffca1f"/><path d="M11.2-1H29.655a12.2,12.2,0,0,1,12.2,12.2V26.525a12.2,12.2,0,0,1-12.2,12.2H11.2A12.2,12.2,0,0,1-1,26.525V11.2A12.2,12.2,0,0,1,11.2-1ZM29.655,36.728a10.215,10.215,0,0,0,10.2-10.2V11.2A10.215,10.215,0,0,0,29.655,1H11.2A10.215,10.215,0,0,0,1,11.2V26.525a10.215,10.215,0,0,0,10.2,10.2Z" transform="translate(0 0)" fill="#0391a2"/><path d="M11.526,1.456H0a1,1,0,0,1-1-1,1,1,0,0,1,1-1H11.526a1,1,0,1,1,0,2Z" transform="translate(9.683 9.233)" fill="#ffca1f"/></g></svg>