<svg xmlns="http://www.w3.org/2000/svg" width="43.452" height="43.452" viewBox="0 0 43.452 43.452"><g transform="translate(1 1)"><path d="M18.831,2.417a2.422,2.422,0,1,1,2.423,2.423A2.423,2.423,0,0,1,18.831,2.417Zm-9.414,0a2.421,2.421,0,1,1,2.421,2.423A2.423,2.423,0,0,1,9.416,2.417ZM0,2.417A2.422,2.422,0,1,1,2.421,4.841,2.423,2.423,0,0,1,0,2.417Z" transform="translate(9.382 18.769)" fill="#ffca1f"/><path d="M20.768-1A21.439,21.439,0,0,1,36.24,5.507,21.84,21.84,0,0,1,40.8,12.419a21.5,21.5,0,0,1,1.653,8.276,22.005,22.005,0,0,1-1.88,9.055,20.887,20.887,0,0,1-4.95,6.862,22.245,22.245,0,0,1-14.9,5.84,21.672,21.672,0,0,1-10.7-2.837l-.014-.008a3.765,3.765,0,0,0-1.771-.732,1.537,1.537,0,0,0-.484.082l-.027.008-4.18,1.241a2.565,2.565,0,0,1-.761.117,2.276,2.276,0,0,1-1.833-.89,2.347,2.347,0,0,1-.361-2.068L.6,37.347,1.985,32.7q.007-.024.015-.047a1.189,1.189,0,0,0-.055-1.015l-.026-.045A22.9,22.9,0,0,1-1,20.757,21.622,21.622,0,0,1,.626,12.528,21.917,21.917,0,0,1,5.148,5.589,21.491,21.491,0,0,1,20.768-1Zm-.041,41.452A19.726,19.726,0,0,0,20.768,1,19.785,19.785,0,0,0,1,20.757a20.889,20.889,0,0,0,2.666,9.858,3.173,3.173,0,0,1,.229,2.676L2.516,37.908a.374.374,0,0,0,.028.315.373.373,0,0,0,.411.073l.015,0,4.174-1.24a3.549,3.549,0,0,1,1.093-.177A5.4,5.4,0,0,1,11.043,37.9,19.617,19.617,0,0,0,20.726,40.452Z" fill="#0391a2"/></g></svg>